<mxfile host="65bd71144e">
    <diagram id="D0Xmx_UGtG_R-Hn3s5M2" name="Page-1">
        <mxGraphModel dx="1118" dy="793" grid="1" gridSize="10" guides="1" tooltips="1" connect="1" arrows="1" fold="1" page="1" pageScale="1" pageWidth="827" pageHeight="1169" math="0" shadow="0">
            <root>
                <mxCell id="0"/>
                <mxCell id="1" parent="0"/>
                <mxCell id="24" value="Twin 1" style="ellipse;whiteSpace=wrap;html=1;verticalAlign=top;fillColor=#fff2cc;strokeColor=#d6b656;" vertex="1" parent="1">
                    <mxGeometry x="4470" y="174" width="56" height="51" as="geometry"/>
                </mxCell>
                <mxCell id="1VjSuDgPF0RQ6vDxP6wa-129" value="HOST 2" style="rounded=1;whiteSpace=wrap;html=1;verticalAlign=top;fillColor=#d5e8d4;strokeColor=#82b366;" parent="1" vertex="1">
                    <mxGeometry x="4611" y="1054" width="120" height="60" as="geometry"/>
                </mxCell>
                <mxCell id="D7zJYAnAHMYaYhCPeeGG-34" value="vault" style="shape=cylinder3;whiteSpace=wrap;html=1;boundedLbl=1;backgroundOutline=1;size=8;verticalAlign=top;" parent="1" vertex="1">
                    <mxGeometry x="2894" y="818" width="60" height="80" as="geometry"/>
                </mxCell>
                <mxCell id="LQZeExEs7iWXj-Pr253q-61" value="Abstraction layer" style="rounded=0;whiteSpace=wrap;html=1;fontSize=12;fontColor=#333333;fillColor=#f5f5f5;strokeColor=none;verticalAlign=top;" parent="1" vertex="1">
                    <mxGeometry x="3050" y="346.25" width="194" height="354" as="geometry"/>
                </mxCell>
                <mxCell id="LQZeExEs7iWXj-Pr253q-60" value="Messy reality" style="rounded=0;whiteSpace=wrap;html=1;fontSize=12;fontColor=#333333;fillColor=#f5f5f5;strokeColor=none;verticalAlign=top;" parent="1" vertex="1">
                    <mxGeometry x="2540" y="346" width="450" height="354" as="geometry"/>
                </mxCell>
                <mxCell id="LQZeExEs7iWXj-Pr253q-1" value="" style="ellipse;whiteSpace=wrap;html=1;verticalAlign=top;fillColor=#fff2cc;strokeColor=#d6b656;" parent="1" vertex="1">
                    <mxGeometry x="2620" y="133" width="96" height="96" as="geometry"/>
                </mxCell>
                <mxCell id="LQZeExEs7iWXj-Pr253q-4" value="agent" style="shape=process;whiteSpace=wrap;html=1;backgroundOutline=1;fillColor=#d5e8d4;strokeColor=#82b366;verticalAlign=top;" parent="1" vertex="1">
                    <mxGeometry x="2570" y="120" width="80" height="140" as="geometry"/>
                </mxCell>
                <mxCell id="gNXgvPfP9ovzg26KDNBa-220" value="shared ownership" style="rounded=0;whiteSpace=wrap;html=1;fontSize=9;strokeWidth=1;fillColor=#E1F5E0;strokeColor=none;verticalAlign=bottom;" parent="1" vertex="1">
                    <mxGeometry x="2096" y="499" width="190" height="361" as="geometry"/>
                </mxCell>
                <mxCell id="gNXgvPfP9ovzg26KDNBa-173" value="graph" style="ellipse;whiteSpace=wrap;html=1;aspect=fixed;fontSize=12;fillColor=none;strokeColor=#d6b656;strokeWidth=4;dashed=1;" parent="1" vertex="1">
                    <mxGeometry x="1895" y="34" width="150" height="150" as="geometry"/>
                </mxCell>
                <mxCell id="gNXgvPfP9ovzg26KDNBa-16" value="agent" style="shape=process;whiteSpace=wrap;html=1;backgroundOutline=1;fillColor=#d5e8d4;strokeColor=#82b366;verticalAlign=top;" parent="1" vertex="1">
                    <mxGeometry x="180" y="511" width="80" height="99" as="geometry"/>
                </mxCell>
                <mxCell id="9cSc91lexvF5Ney-PgAN-6" value="" style="ellipse;whiteSpace=wrap;html=1;verticalAlign=top;fillColor=#fff2cc;strokeColor=#d6b656;" parent="1" vertex="1">
                    <mxGeometry x="234" y="84" width="80" height="80" as="geometry"/>
                </mxCell>
                <mxCell id="9cSc91lexvF5Ney-PgAN-5" value="sync" style="edgeStyle=orthogonalEdgeStyle;rounded=0;orthogonalLoop=1;jettySize=auto;html=1;startArrow=classicThin;startFill=1;endArrow=classicThin;endFill=1;" parent="1" source="9cSc91lexvF5Ney-PgAN-2" target="9cSc91lexvF5Ney-PgAN-4" edge="1">
                    <mxGeometry relative="1" as="geometry"/>
                </mxCell>
                <mxCell id="9cSc91lexvF5Ney-PgAN-2" value="Asset" style="rounded=0;whiteSpace=wrap;html=1;fillColor=#ffe6cc;strokeColor=#d79b00;" parent="1" vertex="1">
                    <mxGeometry x="40" y="110" width="70" height="30" as="geometry"/>
                </mxCell>
                <mxCell id="9cSc91lexvF5Ney-PgAN-14" value="subscribe" style="rounded=0;orthogonalLoop=1;jettySize=auto;html=1;entryX=1;entryY=0.5;entryDx=0;entryDy=0;entryPerimeter=0;labelBackgroundColor=default;startArrow=classicThin;startFill=1;endArrow=none;endFill=0;" parent="1" source="9cSc91lexvF5Ney-PgAN-4" target="9cSc91lexvF5Ney-PgAN-13" edge="1">
                    <mxGeometry x="0.1872" y="-4" relative="1" as="geometry">
                        <mxPoint as="offset"/>
                    </mxGeometry>
                </mxCell>
                <mxCell id="9cSc91lexvF5Ney-PgAN-16" value="subscribe" style="edgeStyle=none;rounded=0;orthogonalLoop=1;jettySize=auto;html=1;entryX=1;entryY=0.5;entryDx=0;entryDy=0;entryPerimeter=0;labelBackgroundColor=default;startArrow=classicThin;startFill=1;endArrow=none;endFill=0;" parent="1" source="9cSc91lexvF5Ney-PgAN-4" target="9cSc91lexvF5Ney-PgAN-12" edge="1">
                    <mxGeometry x="0.1696" y="1" relative="1" as="geometry">
                        <mxPoint as="offset"/>
                    </mxGeometry>
                </mxCell>
                <mxCell id="9cSc91lexvF5Ney-PgAN-4" value="agent" style="shape=process;whiteSpace=wrap;html=1;backgroundOutline=1;fillColor=#d5e8d4;strokeColor=#82b366;" parent="1" vertex="1">
                    <mxGeometry x="180" y="105" width="80" height="40" as="geometry"/>
                </mxCell>
                <mxCell id="9cSc91lexvF5Ney-PgAN-7" value="Twin" style="ellipse;whiteSpace=wrap;html=1;verticalAlign=top;" parent="1" vertex="1">
                    <mxGeometry x="400" y="40" width="80" height="80" as="geometry"/>
                </mxCell>
                <mxCell id="9cSc91lexvF5Ney-PgAN-8" value="Twin" style="ellipse;whiteSpace=wrap;html=1;verticalAlign=top;" parent="1" vertex="1">
                    <mxGeometry x="400" y="145" width="80" height="80" as="geometry"/>
                </mxCell>
                <mxCell id="9cSc91lexvF5Ney-PgAN-17" style="edgeStyle=none;rounded=0;orthogonalLoop=1;jettySize=auto;html=1;entryX=0;entryY=0.5;entryDx=0;entryDy=0;entryPerimeter=0;labelBackgroundColor=default;startArrow=none;startFill=0;endArrow=classicThin;endFill=1;" parent="1" source="9cSc91lexvF5Ney-PgAN-9" target="9cSc91lexvF5Ney-PgAN-12" edge="1">
                    <mxGeometry relative="1" as="geometry"/>
                </mxCell>
                <mxCell id="9cSc91lexvF5Ney-PgAN-9" value="agent" style="shape=process;whiteSpace=wrap;html=1;backgroundOutline=1;" parent="1" vertex="1">
                    <mxGeometry x="460" y="60" width="80" height="40" as="geometry"/>
                </mxCell>
                <mxCell id="9cSc91lexvF5Ney-PgAN-18" style="edgeStyle=none;rounded=0;orthogonalLoop=1;jettySize=auto;html=1;entryX=0;entryY=0.5;entryDx=0;entryDy=0;entryPerimeter=0;labelBackgroundColor=default;startArrow=none;startFill=0;endArrow=classicThin;endFill=1;" parent="1" source="9cSc91lexvF5Ney-PgAN-10" target="9cSc91lexvF5Ney-PgAN-13" edge="1">
                    <mxGeometry relative="1" as="geometry"/>
                </mxCell>
                <mxCell id="9cSc91lexvF5Ney-PgAN-10" value="agent" style="shape=process;whiteSpace=wrap;html=1;backgroundOutline=1;" parent="1" vertex="1">
                    <mxGeometry x="460" y="165" width="80" height="40" as="geometry"/>
                </mxCell>
                <mxCell id="9cSc91lexvF5Ney-PgAN-12" value="feed" style="shape=singleArrow;direction=west;whiteSpace=wrap;html=1;arrowWidth=0.588888888888889;arrowSize=0.18000000000000058;" parent="1" vertex="1">
                    <mxGeometry x="380" y="64" width="50" height="30" as="geometry"/>
                </mxCell>
                <mxCell id="9cSc91lexvF5Ney-PgAN-13" value="feed" style="shape=singleArrow;direction=west;whiteSpace=wrap;html=1;arrowWidth=0.588888888888889;arrowSize=0.18000000000000058;" parent="1" vertex="1">
                    <mxGeometry x="380" y="170" width="50" height="30" as="geometry"/>
                </mxCell>
                <mxCell id="9cSc91lexvF5Ney-PgAN-19" value="" style="ellipse;whiteSpace=wrap;html=1;verticalAlign=top;fillColor=#fff2cc;strokeColor=#d6b656;" parent="1" vertex="1">
                    <mxGeometry x="234" y="270" width="80" height="80" as="geometry"/>
                </mxCell>
                <mxCell id="9cSc91lexvF5Ney-PgAN-20" value="sync" style="edgeStyle=orthogonalEdgeStyle;rounded=0;orthogonalLoop=1;jettySize=auto;html=1;startArrow=classicThin;startFill=1;endArrow=classicThin;endFill=1;" parent="1" source="9cSc91lexvF5Ney-PgAN-21" target="9cSc91lexvF5Ney-PgAN-22" edge="1">
                    <mxGeometry relative="1" as="geometry"/>
                </mxCell>
                <mxCell id="9cSc91lexvF5Ney-PgAN-21" value="Asset" style="rounded=0;whiteSpace=wrap;html=1;fillColor=#ffe6cc;strokeColor=#d79b00;" parent="1" vertex="1">
                    <mxGeometry x="40" y="296" width="70" height="30" as="geometry"/>
                </mxCell>
                <mxCell id="9cSc91lexvF5Ney-PgAN-25" value="publish" style="edgeStyle=none;rounded=0;orthogonalLoop=1;jettySize=auto;html=1;labelBackgroundColor=#FFF2CC;startArrow=none;startFill=0;endArrow=classicThin;endFill=1;" parent="1" source="9cSc91lexvF5Ney-PgAN-22" target="9cSc91lexvF5Ney-PgAN-24" edge="1">
                    <mxGeometry x="-0.2593" relative="1" as="geometry">
                        <mxPoint as="offset"/>
                    </mxGeometry>
                </mxCell>
                <mxCell id="9cSc91lexvF5Ney-PgAN-22" value="agent" style="shape=process;whiteSpace=wrap;html=1;backgroundOutline=1;fillColor=#d5e8d4;strokeColor=#82b366;" parent="1" vertex="1">
                    <mxGeometry x="170" y="291" width="80" height="40" as="geometry"/>
                </mxCell>
                <mxCell id="9cSc91lexvF5Ney-PgAN-24" value="feed" style="shape=singleArrow;whiteSpace=wrap;html=1;arrowWidth=0.623809523809524;arrowSize=0.21571428571428497;fillColor=#fff2cc;strokeColor=#d6b656;" parent="1" vertex="1">
                    <mxGeometry x="305" y="280" width="40" height="21" as="geometry"/>
                </mxCell>
                <mxCell id="9cSc91lexvF5Ney-PgAN-26" value="feed" style="shape=singleArrow;whiteSpace=wrap;html=1;arrowWidth=0.623809523809524;arrowSize=0.21571428571428497;fillColor=#fff2cc;strokeColor=#d6b656;" parent="1" vertex="1">
                    <mxGeometry x="305" y="320" width="40" height="21" as="geometry"/>
                </mxCell>
                <mxCell id="9cSc91lexvF5Ney-PgAN-27" value="publish" style="edgeStyle=none;rounded=0;orthogonalLoop=1;jettySize=auto;html=1;labelBackgroundColor=#FFF2CC;startArrow=none;startFill=0;endArrow=classicThin;endFill=1;exitX=1.008;exitY=0.683;exitDx=0;exitDy=0;exitPerimeter=0;entryX=0;entryY=0.5;entryDx=0;entryDy=0;entryPerimeter=0;" parent="1" source="9cSc91lexvF5Ney-PgAN-22" target="9cSc91lexvF5Ney-PgAN-26" edge="1">
                    <mxGeometry x="-0.2593" relative="1" as="geometry">
                        <mxPoint x="260" y="313.86956521739137" as="sourcePoint"/>
                        <mxPoint x="315" y="304.0652173913044" as="targetPoint"/>
                        <mxPoint as="offset"/>
                    </mxGeometry>
                </mxCell>
                <mxCell id="gNXgvPfP9ovzg26KDNBa-1" value="Twin" style="ellipse;whiteSpace=wrap;html=1;verticalAlign=top;fillColor=#fff2cc;strokeColor=#d6b656;" parent="1" vertex="1">
                    <mxGeometry x="614" y="287" width="80" height="80" as="geometry"/>
                </mxCell>
                <mxCell id="gNXgvPfP9ovzg26KDNBa-2" value="sync" style="edgeStyle=orthogonalEdgeStyle;rounded=0;orthogonalLoop=1;jettySize=auto;html=1;startArrow=classicThin;startFill=1;endArrow=classicThin;endFill=1;" parent="1" source="gNXgvPfP9ovzg26KDNBa-3" target="gNXgvPfP9ovzg26KDNBa-5" edge="1">
                    <mxGeometry relative="1" as="geometry"/>
                </mxCell>
                <mxCell id="gNXgvPfP9ovzg26KDNBa-3" value="Asset&lt;br&gt;&lt;br&gt;file.csv&lt;br&gt;col1, col2, ..." style="rounded=0;whiteSpace=wrap;html=1;fillColor=#ffe6cc;strokeColor=#d79b00;verticalAlign=top;align=left;" parent="1" vertex="1">
                    <mxGeometry x="420" y="280" width="70" height="94" as="geometry"/>
                </mxCell>
                <mxCell id="gNXgvPfP9ovzg26KDNBa-5" value="agent" style="shape=process;whiteSpace=wrap;html=1;backgroundOutline=1;fillColor=#d5e8d4;strokeColor=#82b366;" parent="1" vertex="1">
                    <mxGeometry x="550" y="308" width="80" height="40" as="geometry"/>
                </mxCell>
                <mxCell id="gNXgvPfP9ovzg26KDNBa-9" value="https://www.w3.org/TR/vocab-dcat-3/" style="text;html=1;strokeColor=none;fillColor=none;align=center;verticalAlign=middle;whiteSpace=wrap;rounded=0;" parent="1" vertex="1">
                    <mxGeometry x="544" y="374" width="226" height="30" as="geometry"/>
                </mxCell>
                <mxCell id="gNXgvPfP9ovzg26KDNBa-12" value="" style="ellipse;whiteSpace=wrap;html=1;verticalAlign=middle;fillColor=#fff2cc;strokeColor=#d6b656;" parent="1" vertex="1">
                    <mxGeometry x="265" y="530.5" width="80" height="80" as="geometry"/>
                </mxCell>
                <mxCell id="gNXgvPfP9ovzg26KDNBa-13" value="sync" style="edgeStyle=orthogonalEdgeStyle;rounded=0;orthogonalLoop=1;jettySize=auto;html=1;startArrow=classicThin;startFill=1;endArrow=classicThin;endFill=1;entryX=0.008;entryY=0.347;entryDx=0;entryDy=0;entryPerimeter=0;" parent="1" source="gNXgvPfP9ovzg26KDNBa-14" target="gNXgvPfP9ovzg26KDNBa-16" edge="1">
                    <mxGeometry relative="1" as="geometry">
                        <mxPoint x="170" y="544.5" as="targetPoint"/>
                    </mxGeometry>
                </mxCell>
                <mxCell id="gNXgvPfP9ovzg26KDNBa-14" value="Asset" style="rounded=0;whiteSpace=wrap;html=1;fillColor=#ffe6cc;strokeColor=#d79b00;" parent="1" vertex="1">
                    <mxGeometry x="50" y="530.5" width="70" height="30" as="geometry"/>
                </mxCell>
                <mxCell id="gNXgvPfP9ovzg26KDNBa-15" value="publish" style="edgeStyle=none;rounded=0;orthogonalLoop=1;jettySize=auto;html=1;labelBackgroundColor=#FFF2CC;startArrow=none;startFill=0;endArrow=classicThin;endFill=1;exitX=-0.004;exitY=0.347;exitDx=0;exitDy=0;exitPerimeter=0;entryX=0;entryY=0.5;entryDx=0;entryDy=0;entryPerimeter=0;" parent="1" source="gNXgvPfP9ovzg26KDNBa-16" target="gNXgvPfP9ovzg26KDNBa-17" edge="1">
                    <mxGeometry x="0.5903" relative="1" as="geometry">
                        <mxPoint as="offset"/>
                        <mxPoint x="400" y="560" as="targetPoint"/>
                    </mxGeometry>
                </mxCell>
                <mxCell id="gNXgvPfP9ovzg26KDNBa-17" value="feed" style="shape=singleArrow;whiteSpace=wrap;html=1;arrowWidth=0.623809523809524;arrowSize=0.21571428571428497;fillColor=#fff2cc;strokeColor=#d6b656;" parent="1" vertex="1">
                    <mxGeometry x="333" y="553" width="40" height="21" as="geometry"/>
                </mxCell>
                <mxCell id="gNXgvPfP9ovzg26KDNBa-18" value="feed" style="shape=singleArrow;whiteSpace=wrap;html=1;arrowWidth=0.623809523809524;arrowSize=0.21571428571428497;fillColor=#fff2cc;strokeColor=#d6b656;" parent="1" vertex="1">
                    <mxGeometry x="333" y="577" width="40" height="21" as="geometry"/>
                </mxCell>
                <mxCell id="gNXgvPfP9ovzg26KDNBa-19" value="publish" style="edgeStyle=none;rounded=0;orthogonalLoop=1;jettySize=auto;html=1;labelBackgroundColor=#FFF2CC;startArrow=none;startFill=0;endArrow=classicThin;endFill=1;exitX=0.967;exitY=0.567;exitDx=0;exitDy=0;exitPerimeter=0;entryX=0;entryY=0.5;entryDx=0;entryDy=0;entryPerimeter=0;" parent="1" source="gNXgvPfP9ovzg26KDNBa-25" target="gNXgvPfP9ovzg26KDNBa-18" edge="1">
                    <mxGeometry x="0.3337" y="-1" relative="1" as="geometry">
                        <mxPoint x="270" y="533.8695652173914" as="sourcePoint"/>
                        <mxPoint x="325" y="524.0652173913044" as="targetPoint"/>
                        <mxPoint as="offset"/>
                    </mxGeometry>
                </mxCell>
                <mxCell id="gNXgvPfP9ovzg26KDNBa-25" value="Custom logic" style="ellipse;shape=umlControl;whiteSpace=wrap;html=1;fontSize=7;" parent="1" vertex="1">
                    <mxGeometry x="205" y="570" width="30" height="30" as="geometry"/>
                </mxCell>
                <mxCell id="gNXgvPfP9ovzg26KDNBa-26" value="Twin" style="ellipse;whiteSpace=wrap;html=1;verticalAlign=top;" parent="1" vertex="1">
                    <mxGeometry x="410" y="490" width="80" height="80" as="geometry"/>
                </mxCell>
                <mxCell id="gNXgvPfP9ovzg26KDNBa-27" style="edgeStyle=none;rounded=0;orthogonalLoop=1;jettySize=auto;html=1;entryX=0;entryY=0.5;entryDx=0;entryDy=0;entryPerimeter=0;labelBackgroundColor=default;startArrow=none;startFill=0;endArrow=classicThin;endFill=1;" parent="1" source="gNXgvPfP9ovzg26KDNBa-28" target="gNXgvPfP9ovzg26KDNBa-29" edge="1">
                    <mxGeometry relative="1" as="geometry"/>
                </mxCell>
                <mxCell id="gNXgvPfP9ovzg26KDNBa-28" value="agent" style="shape=process;whiteSpace=wrap;html=1;backgroundOutline=1;" parent="1" vertex="1">
                    <mxGeometry x="470" y="510" width="80" height="40" as="geometry"/>
                </mxCell>
                <mxCell id="gNXgvPfP9ovzg26KDNBa-29" value="feed" style="shape=singleArrow;direction=west;whiteSpace=wrap;html=1;arrowWidth=0.588888888888889;arrowSize=0.18000000000000058;" parent="1" vertex="1">
                    <mxGeometry x="390" y="514" width="50" height="30" as="geometry"/>
                </mxCell>
                <mxCell id="gNXgvPfP9ovzg26KDNBa-30" value="" style="edgeStyle=none;rounded=0;orthogonalLoop=1;jettySize=auto;html=1;entryX=1;entryY=0.5;entryDx=0;entryDy=0;entryPerimeter=0;labelBackgroundColor=default;startArrow=classicThin;startFill=1;endArrow=none;endFill=0;exitX=0.988;exitY=0.36;exitDx=0;exitDy=0;exitPerimeter=0;" parent="1" source="gNXgvPfP9ovzg26KDNBa-16" target="gNXgvPfP9ovzg26KDNBa-29" edge="1">
                    <mxGeometry x="0.1696" y="1" relative="1" as="geometry">
                        <mxPoint as="offset"/>
                        <mxPoint x="280" y="528.5" as="sourcePoint"/>
                        <mxPoint x="400" y="494" as="targetPoint"/>
                    </mxGeometry>
                </mxCell>
                <mxCell id="6jeWKin9Ll09lfW82CDg-1" value="subscribe" style="edgeLabel;html=1;align=center;verticalAlign=middle;resizable=0;points=[];" parent="gNXgvPfP9ovzg26KDNBa-30" vertex="1" connectable="0">
                    <mxGeometry x="0.2999" y="1" relative="1" as="geometry">
                        <mxPoint as="offset"/>
                    </mxGeometry>
                </mxCell>
                <mxCell id="gNXgvPfP9ovzg26KDNBa-31" value="Synthesiser Twin" style="text;html=1;strokeColor=none;fillColor=none;align=center;verticalAlign=middle;whiteSpace=wrap;rounded=0;fontSize=12;" parent="1" vertex="1">
                    <mxGeometry x="275" y="617" width="60" height="13" as="geometry"/>
                </mxCell>
                <mxCell id="gNXgvPfP9ovzg26KDNBa-39" value="" style="group" parent="1" vertex="1" connectable="0">
                    <mxGeometry x="45" y="680" width="80" height="110" as="geometry"/>
                </mxCell>
                <mxCell id="gNXgvPfP9ovzg26KDNBa-32" value="Twin" style="ellipse;whiteSpace=wrap;html=1;verticalAlign=top;fillColor=#fff2cc;strokeColor=#d6b656;" parent="gNXgvPfP9ovzg26KDNBa-39" vertex="1">
                    <mxGeometry width="80" height="80" as="geometry"/>
                </mxCell>
                <mxCell id="gNXgvPfP9ovzg26KDNBa-34" value="V: 1.0&lt;br&gt;Prev: -" style="text;html=1;strokeColor=none;fillColor=none;align=left;verticalAlign=middle;whiteSpace=wrap;rounded=0;fontSize=12;" parent="gNXgvPfP9ovzg26KDNBa-39" vertex="1">
                    <mxGeometry x="10" y="30" width="60" height="30" as="geometry"/>
                </mxCell>
                <mxCell id="gNXgvPfP9ovzg26KDNBa-40" value="" style="group" parent="1" vertex="1" connectable="0">
                    <mxGeometry x="140" y="680" width="80" height="110" as="geometry"/>
                </mxCell>
                <mxCell id="gNXgvPfP9ovzg26KDNBa-35" value="Twin" style="ellipse;whiteSpace=wrap;html=1;verticalAlign=top;fillColor=#fff2cc;strokeColor=#d6b656;" parent="gNXgvPfP9ovzg26KDNBa-40" vertex="1">
                    <mxGeometry width="80" height="80" as="geometry"/>
                </mxCell>
                <mxCell id="gNXgvPfP9ovzg26KDNBa-36" value="V: 1.1&lt;br&gt;Prev: 1.0" style="text;html=1;strokeColor=none;fillColor=none;align=left;verticalAlign=middle;whiteSpace=wrap;rounded=0;fontSize=12;" parent="gNXgvPfP9ovzg26KDNBa-40" vertex="1">
                    <mxGeometry x="10" y="30" width="60" height="30" as="geometry"/>
                </mxCell>
                <mxCell id="gNXgvPfP9ovzg26KDNBa-52" value="Asset&lt;br style=&quot;font-size: 7px&quot;&gt;&lt;br style=&quot;font-size: 7px&quot;&gt;file.csv&lt;br style=&quot;font-size: 7px&quot;&gt;col1, col2, col3" style="rounded=0;whiteSpace=wrap;html=1;fillColor=#ffe6cc;strokeColor=#d79b00;verticalAlign=top;align=left;fontSize=7;" parent="gNXgvPfP9ovzg26KDNBa-40" vertex="1">
                    <mxGeometry x="-10" y="70" width="50" height="50" as="geometry"/>
                </mxCell>
                <mxCell id="gNXgvPfP9ovzg26KDNBa-41" value="" style="group" parent="1" vertex="1" connectable="0">
                    <mxGeometry x="235" y="680" width="80" height="120" as="geometry"/>
                </mxCell>
                <mxCell id="gNXgvPfP9ovzg26KDNBa-37" value="Twin" style="ellipse;whiteSpace=wrap;html=1;verticalAlign=top;fillColor=#fff2cc;strokeColor=#d6b656;" parent="gNXgvPfP9ovzg26KDNBa-41" vertex="1">
                    <mxGeometry width="80" height="80" as="geometry"/>
                </mxCell>
                <mxCell id="gNXgvPfP9ovzg26KDNBa-38" value="V: 2.0&lt;br&gt;Prev: 1.1&lt;br&gt;Latest: true" style="text;html=1;strokeColor=none;fillColor=none;align=left;verticalAlign=middle;whiteSpace=wrap;rounded=0;fontSize=12;" parent="gNXgvPfP9ovzg26KDNBa-41" vertex="1">
                    <mxGeometry x="10" y="30" width="65" height="30" as="geometry"/>
                </mxCell>
                <mxCell id="gNXgvPfP9ovzg26KDNBa-53" value="Asset&lt;br style=&quot;font-size: 7px&quot;&gt;&lt;br style=&quot;font-size: 7px&quot;&gt;file.csv&lt;br style=&quot;font-size: 7px&quot;&gt;col2, col3" style="rounded=0;whiteSpace=wrap;html=1;fillColor=#ffe6cc;strokeColor=#d79b00;verticalAlign=top;align=left;fontSize=7;" parent="gNXgvPfP9ovzg26KDNBa-41" vertex="1">
                    <mxGeometry x="-5" y="70" width="50" height="50" as="geometry"/>
                </mxCell>
                <mxCell id="gNXgvPfP9ovzg26KDNBa-51" value="Asset&lt;br style=&quot;font-size: 7px&quot;&gt;&lt;br style=&quot;font-size: 7px&quot;&gt;file.csv&lt;br style=&quot;font-size: 7px&quot;&gt;col1, col2," style="rounded=0;whiteSpace=wrap;html=1;fillColor=#ffe6cc;strokeColor=#d79b00;verticalAlign=top;align=left;fontSize=7;" parent="1" vertex="1">
                    <mxGeometry x="30" y="750" width="50" height="50" as="geometry"/>
                </mxCell>
                <mxCell id="gNXgvPfP9ovzg26KDNBa-54" value="agent" style="shape=process;whiteSpace=wrap;html=1;backgroundOutline=1;fillColor=#d5e8d4;strokeColor=#82b366;verticalAlign=top;" parent="1" vertex="1">
                    <mxGeometry x="155" y="891" width="80" height="99" as="geometry"/>
                </mxCell>
                <mxCell id="gNXgvPfP9ovzg26KDNBa-55" value="" style="ellipse;whiteSpace=wrap;html=1;verticalAlign=middle;fillColor=#fff2cc;strokeColor=#d6b656;" parent="1" vertex="1">
                    <mxGeometry x="240" y="900.5" width="80" height="80" as="geometry"/>
                </mxCell>
                <mxCell id="gNXgvPfP9ovzg26KDNBa-60" value="K1" style="shape=singleArrow;whiteSpace=wrap;html=1;arrowWidth=0.623809523809524;arrowSize=0.21571428571428497;fillColor=#fff2cc;strokeColor=#d6b656;" parent="1" vertex="1">
                    <mxGeometry x="305" y="904.5" width="40" height="21" as="geometry"/>
                </mxCell>
                <mxCell id="gNXgvPfP9ovzg26KDNBa-61" value="publish" style="edgeStyle=none;rounded=0;orthogonalLoop=1;jettySize=auto;html=1;labelBackgroundColor=#FFF2CC;startArrow=none;startFill=0;endArrow=classicThin;endFill=1;exitX=0.978;exitY=0.506;exitDx=0;exitDy=0;exitPerimeter=0;entryX=0;entryY=0.5;entryDx=0;entryDy=0;entryPerimeter=0;" parent="1" source="gNXgvPfP9ovzg26KDNBa-62" target="gNXgvPfP9ovzg26KDNBa-60" edge="1">
                    <mxGeometry x="0.3337" y="-1" relative="1" as="geometry">
                        <mxPoint x="245" y="913.8695652173914" as="sourcePoint"/>
                        <mxPoint x="300" y="904.0652173913044" as="targetPoint"/>
                        <mxPoint as="offset"/>
                    </mxGeometry>
                </mxCell>
                <mxCell id="gNXgvPfP9ovzg26KDNBa-62" value="splitter logic" style="ellipse;shape=umlControl;whiteSpace=wrap;html=1;fontSize=7;" parent="1" vertex="1">
                    <mxGeometry x="180" y="925.5" width="30" height="30" as="geometry"/>
                </mxCell>
                <mxCell id="gNXgvPfP9ovzg26KDNBa-63" value="Twin" style="ellipse;whiteSpace=wrap;html=1;verticalAlign=top;" parent="1" vertex="1">
                    <mxGeometry x="385" y="828" width="80" height="80" as="geometry"/>
                </mxCell>
                <mxCell id="gNXgvPfP9ovzg26KDNBa-64" style="edgeStyle=none;rounded=0;orthogonalLoop=1;jettySize=auto;html=1;entryX=0;entryY=0.5;entryDx=0;entryDy=0;entryPerimeter=0;labelBackgroundColor=default;startArrow=none;startFill=0;endArrow=classicThin;endFill=1;" parent="1" source="gNXgvPfP9ovzg26KDNBa-65" target="gNXgvPfP9ovzg26KDNBa-66" edge="1">
                    <mxGeometry relative="1" as="geometry"/>
                </mxCell>
                <mxCell id="gNXgvPfP9ovzg26KDNBa-65" value="agent" style="shape=process;whiteSpace=wrap;html=1;backgroundOutline=1;" parent="1" vertex="1">
                    <mxGeometry x="445" y="848" width="80" height="40" as="geometry"/>
                </mxCell>
                <mxCell id="gNXgvPfP9ovzg26KDNBa-66" value="feed" style="shape=singleArrow;direction=west;whiteSpace=wrap;html=1;arrowWidth=0.588888888888889;arrowSize=0.18000000000000058;" parent="1" vertex="1">
                    <mxGeometry x="365" y="852" width="50" height="30" as="geometry"/>
                </mxCell>
                <mxCell id="gNXgvPfP9ovzg26KDNBa-67" value="" style="edgeStyle=none;rounded=0;orthogonalLoop=1;jettySize=auto;html=1;entryX=1;entryY=0.5;entryDx=0;entryDy=0;entryPerimeter=0;labelBackgroundColor=default;startArrow=classicThin;startFill=1;endArrow=none;endFill=0;exitX=0.988;exitY=0.36;exitDx=0;exitDy=0;exitPerimeter=0;" parent="1" source="gNXgvPfP9ovzg26KDNBa-54" target="gNXgvPfP9ovzg26KDNBa-66" edge="1">
                    <mxGeometry x="0.1696" y="1" relative="1" as="geometry">
                        <mxPoint as="offset"/>
                        <mxPoint x="255" y="908.5" as="sourcePoint"/>
                        <mxPoint x="375" y="874" as="targetPoint"/>
                    </mxGeometry>
                </mxCell>
                <mxCell id="6jeWKin9Ll09lfW82CDg-2" value="subscribe" style="edgeLabel;html=1;align=center;verticalAlign=middle;resizable=0;points=[];" parent="gNXgvPfP9ovzg26KDNBa-67" vertex="1" connectable="0">
                    <mxGeometry x="0.311" y="-3" relative="1" as="geometry">
                        <mxPoint as="offset"/>
                    </mxGeometry>
                </mxCell>
                <mxCell id="gNXgvPfP9ovzg26KDNBa-68" value="Splitter Twin" style="text;html=1;strokeColor=none;fillColor=none;align=center;verticalAlign=middle;whiteSpace=wrap;rounded=0;fontSize=12;" parent="1" vertex="1">
                    <mxGeometry x="244" y="981" width="70" height="13" as="geometry"/>
                </mxCell>
                <mxCell id="gNXgvPfP9ovzg26KDNBa-69" value="K1 -&amp;gt; V1&lt;br&gt;K2 -&amp;gt; V2&lt;br&gt;K3 -&amp;gt; V3" style="text;html=1;strokeColor=none;fillColor=none;align=center;verticalAlign=middle;whiteSpace=wrap;rounded=0;fontSize=7;" parent="1" vertex="1">
                    <mxGeometry x="295" y="852" width="60" height="30" as="geometry"/>
                </mxCell>
                <mxCell id="gNXgvPfP9ovzg26KDNBa-70" value="K2" style="shape=singleArrow;whiteSpace=wrap;html=1;arrowWidth=0.623809523809524;arrowSize=0.21571428571428497;fillColor=#fff2cc;strokeColor=#d6b656;" parent="1" vertex="1">
                    <mxGeometry x="314" y="930" width="40" height="21" as="geometry"/>
                </mxCell>
                <mxCell id="gNXgvPfP9ovzg26KDNBa-71" value="publish" style="edgeStyle=none;rounded=0;orthogonalLoop=1;jettySize=auto;html=1;labelBackgroundColor=#FFF2CC;startArrow=none;startFill=0;endArrow=classicThin;endFill=1;entryX=0;entryY=0.5;entryDx=0;entryDy=0;entryPerimeter=0;" parent="1" source="gNXgvPfP9ovzg26KDNBa-62" target="gNXgvPfP9ovzg26KDNBa-70" edge="1">
                    <mxGeometry x="0.3337" y="-1" relative="1" as="geometry">
                        <mxPoint x="219.01" y="977.01" as="sourcePoint"/>
                        <mxPoint x="320" y="944.5" as="targetPoint"/>
                        <mxPoint as="offset"/>
                    </mxGeometry>
                </mxCell>
                <mxCell id="gNXgvPfP9ovzg26KDNBa-72" value="K3" style="shape=singleArrow;whiteSpace=wrap;html=1;arrowWidth=0.623809523809524;arrowSize=0.21571428571428497;fillColor=#fff2cc;strokeColor=#d6b656;" parent="1" vertex="1">
                    <mxGeometry x="305" y="955.5" width="40" height="21" as="geometry"/>
                </mxCell>
                <mxCell id="gNXgvPfP9ovzg26KDNBa-73" value="publish" style="edgeStyle=none;rounded=0;orthogonalLoop=1;jettySize=auto;html=1;labelBackgroundColor=#FFF2CC;startArrow=none;startFill=0;endArrow=classicThin;endFill=1;entryX=0;entryY=0.5;entryDx=0;entryDy=0;entryPerimeter=0;exitX=1;exitY=0.472;exitDx=0;exitDy=0;exitPerimeter=0;" parent="1" source="gNXgvPfP9ovzg26KDNBa-62" target="gNXgvPfP9ovzg26KDNBa-72" edge="1">
                    <mxGeometry x="0.3337" y="-1" relative="1" as="geometry">
                        <mxPoint x="220" y="950.5" as="sourcePoint"/>
                        <mxPoint x="324" y="950.5" as="targetPoint"/>
                        <mxPoint as="offset"/>
                    </mxGeometry>
                </mxCell>
                <mxCell id="gNXgvPfP9ovzg26KDNBa-74" value="V1a, V1b, ..." style="text;html=1;strokeColor=none;fillColor=none;align=center;verticalAlign=middle;whiteSpace=wrap;rounded=0;fontSize=7;" parent="1" vertex="1">
                    <mxGeometry x="340" y="900" width="60" height="30" as="geometry"/>
                </mxCell>
                <mxCell id="gNXgvPfP9ovzg26KDNBa-75" value="V2a, V2b, ..." style="text;html=1;strokeColor=none;fillColor=none;align=center;verticalAlign=middle;whiteSpace=wrap;rounded=0;fontSize=7;" parent="1" vertex="1">
                    <mxGeometry x="350" y="925.5" width="60" height="30" as="geometry"/>
                </mxCell>
                <mxCell id="gNXgvPfP9ovzg26KDNBa-76" value="V3a, V3b, ..." style="text;html=1;strokeColor=none;fillColor=none;align=center;verticalAlign=middle;whiteSpace=wrap;rounded=0;fontSize=7;" parent="1" vertex="1">
                    <mxGeometry x="340" y="951" width="60" height="30" as="geometry"/>
                </mxCell>
                <mxCell id="gNXgvPfP9ovzg26KDNBa-78" value="{feed metadata}" style="text;html=1;strokeColor=none;fillColor=none;align=center;verticalAlign=middle;whiteSpace=wrap;rounded=0;fontSize=7;" parent="1" vertex="1">
                    <mxGeometry x="360" y="870" width="60" height="30" as="geometry"/>
                </mxCell>
                <mxCell id="gNXgvPfP9ovzg26KDNBa-79" value="{feed metadata}" style="text;html=1;strokeColor=none;fillColor=none;align=center;verticalAlign=middle;whiteSpace=wrap;rounded=0;fontSize=7;" parent="1" vertex="1">
                    <mxGeometry x="250" y="990" width="60" height="30" as="geometry"/>
                </mxCell>
                <mxCell id="gNXgvPfP9ovzg26KDNBa-80" value="" style="ellipse;whiteSpace=wrap;html=1;verticalAlign=top;fillColor=#fff2cc;strokeColor=#d6b656;" parent="1" vertex="1">
                    <mxGeometry x="1172" y="126" width="80" height="80" as="geometry"/>
                </mxCell>
                <mxCell id="gNXgvPfP9ovzg26KDNBa-83" value="" style="rounded=0;orthogonalLoop=1;jettySize=auto;html=1;entryX=1;entryY=0.5;entryDx=0;entryDy=0;entryPerimeter=0;labelBackgroundColor=default;startArrow=classicThin;startFill=1;endArrow=none;endFill=0;" parent="1" source="gNXgvPfP9ovzg26KDNBa-85" target="gNXgvPfP9ovzg26KDNBa-93" edge="1">
                    <mxGeometry x="0.1872" y="-4" relative="1" as="geometry">
                        <mxPoint as="offset"/>
                    </mxGeometry>
                </mxCell>
                <mxCell id="gNXgvPfP9ovzg26KDNBa-84" value="" style="edgeStyle=none;rounded=0;orthogonalLoop=1;jettySize=auto;html=1;entryX=1;entryY=0.5;entryDx=0;entryDy=0;entryPerimeter=0;labelBackgroundColor=default;startArrow=classicThin;startFill=1;endArrow=none;endFill=0;" parent="1" source="gNXgvPfP9ovzg26KDNBa-85" target="gNXgvPfP9ovzg26KDNBa-92" edge="1">
                    <mxGeometry x="0.1696" y="1" relative="1" as="geometry">
                        <mxPoint as="offset"/>
                    </mxGeometry>
                </mxCell>
                <mxCell id="gNXgvPfP9ovzg26KDNBa-85" value="agent" style="shape=process;whiteSpace=wrap;html=1;backgroundOutline=1;fillColor=#d5e8d4;strokeColor=#82b366;verticalAlign=top;" parent="1" vertex="1">
                    <mxGeometry x="1106" y="120" width="80" height="90" as="geometry"/>
                </mxCell>
                <mxCell id="gNXgvPfP9ovzg26KDNBa-86" value="Twin" style="ellipse;whiteSpace=wrap;html=1;verticalAlign=top;" parent="1" vertex="1">
                    <mxGeometry x="1330" y="30" width="80" height="80" as="geometry"/>
                </mxCell>
                <mxCell id="gNXgvPfP9ovzg26KDNBa-87" value="Twin" style="ellipse;whiteSpace=wrap;html=1;verticalAlign=top;" parent="1" vertex="1">
                    <mxGeometry x="1340" y="204" width="80" height="80" as="geometry"/>
                </mxCell>
                <mxCell id="gNXgvPfP9ovzg26KDNBa-88" style="edgeStyle=none;rounded=0;orthogonalLoop=1;jettySize=auto;html=1;entryX=0;entryY=0.5;entryDx=0;entryDy=0;entryPerimeter=0;labelBackgroundColor=default;startArrow=none;startFill=0;endArrow=classicThin;endFill=1;" parent="1" source="gNXgvPfP9ovzg26KDNBa-89" target="gNXgvPfP9ovzg26KDNBa-92" edge="1">
                    <mxGeometry relative="1" as="geometry"/>
                </mxCell>
                <mxCell id="gNXgvPfP9ovzg26KDNBa-95" style="rounded=0;orthogonalLoop=1;jettySize=auto;html=1;entryX=0;entryY=0.5;entryDx=0;entryDy=0;entryPerimeter=0;fontSize=7;" parent="1" source="gNXgvPfP9ovzg26KDNBa-89" target="gNXgvPfP9ovzg26KDNBa-94" edge="1">
                    <mxGeometry relative="1" as="geometry"/>
                </mxCell>
                <mxCell id="gNXgvPfP9ovzg26KDNBa-89" value="agent" style="shape=process;whiteSpace=wrap;html=1;backgroundOutline=1;" parent="1" vertex="1">
                    <mxGeometry x="1390" y="50" width="80" height="40" as="geometry"/>
                </mxCell>
                <mxCell id="gNXgvPfP9ovzg26KDNBa-90" style="edgeStyle=none;rounded=0;orthogonalLoop=1;jettySize=auto;html=1;entryX=0;entryY=0.5;entryDx=0;entryDy=0;entryPerimeter=0;labelBackgroundColor=default;startArrow=none;startFill=0;endArrow=classicThin;endFill=1;" parent="1" source="gNXgvPfP9ovzg26KDNBa-91" target="gNXgvPfP9ovzg26KDNBa-93" edge="1">
                    <mxGeometry relative="1" as="geometry"/>
                </mxCell>
                <mxCell id="gNXgvPfP9ovzg26KDNBa-91" value="agent" style="shape=process;whiteSpace=wrap;html=1;backgroundOutline=1;" parent="1" vertex="1">
                    <mxGeometry x="1400" y="224" width="80" height="40" as="geometry"/>
                </mxCell>
                <mxCell id="gNXgvPfP9ovzg26KDNBa-92" value="f1" style="shape=singleArrow;direction=west;whiteSpace=wrap;html=1;arrowWidth=0.588888888888889;arrowSize=0.18000000000000058;" parent="1" vertex="1">
                    <mxGeometry x="1310" y="40" width="50" height="30" as="geometry"/>
                </mxCell>
                <mxCell id="gNXgvPfP9ovzg26KDNBa-93" value="f3" style="shape=singleArrow;direction=west;whiteSpace=wrap;html=1;arrowWidth=0.588888888888889;arrowSize=0.18000000000000058;" parent="1" vertex="1">
                    <mxGeometry x="1320" y="229" width="50" height="30" as="geometry"/>
                </mxCell>
                <mxCell id="gNXgvPfP9ovzg26KDNBa-94" value="f2" style="shape=singleArrow;direction=west;whiteSpace=wrap;html=1;arrowWidth=0.588888888888889;arrowSize=0.18000000000000058;" parent="1" vertex="1">
                    <mxGeometry x="1310" y="75" width="50" height="30" as="geometry"/>
                </mxCell>
                <mxCell id="gNXgvPfP9ovzg26KDNBa-96" value="" style="edgeStyle=none;rounded=0;orthogonalLoop=1;jettySize=auto;html=1;entryX=1;entryY=0.5;entryDx=0;entryDy=0;entryPerimeter=0;labelBackgroundColor=default;startArrow=classicThin;startFill=1;endArrow=none;endFill=0;" parent="1" source="gNXgvPfP9ovzg26KDNBa-85" target="gNXgvPfP9ovzg26KDNBa-94" edge="1">
                    <mxGeometry x="0.1696" y="1" relative="1" as="geometry">
                        <mxPoint as="offset"/>
                        <mxPoint x="1190" y="140" as="sourcePoint"/>
                        <mxPoint x="1320" y="65" as="targetPoint"/>
                    </mxGeometry>
                </mxCell>
                <mxCell id="gNXgvPfP9ovzg26KDNBa-97" value="{feed1 metadata}" style="text;html=1;strokeColor=none;fillColor=none;align=center;verticalAlign=middle;whiteSpace=wrap;rounded=0;fontSize=7;" parent="1" vertex="1">
                    <mxGeometry x="1290" y="20" width="60" height="30" as="geometry"/>
                </mxCell>
                <mxCell id="gNXgvPfP9ovzg26KDNBa-98" value="{feed2 metadata}" style="text;html=1;strokeColor=none;fillColor=none;align=center;verticalAlign=middle;whiteSpace=wrap;rounded=0;fontSize=7;" parent="1" vertex="1">
                    <mxGeometry x="1300" y="94" width="60" height="30" as="geometry"/>
                </mxCell>
                <mxCell id="gNXgvPfP9ovzg26KDNBa-99" value="{feed3 metadata}" style="text;html=1;strokeColor=none;fillColor=none;align=center;verticalAlign=middle;whiteSpace=wrap;rounded=0;fontSize=7;" parent="1" vertex="1">
                    <mxGeometry x="1284" y="249" width="60" height="30" as="geometry"/>
                </mxCell>
                <mxCell id="gNXgvPfP9ovzg26KDNBa-100" value="aggregator logic" style="ellipse;shape=umlControl;whiteSpace=wrap;html=1;fontSize=7;" parent="1" vertex="1">
                    <mxGeometry x="1126.5" y="146" width="39" height="40" as="geometry"/>
                </mxCell>
                <mxCell id="gNXgvPfP9ovzg26KDNBa-101" value="F" style="shape=singleArrow;whiteSpace=wrap;html=1;arrowWidth=0.623809523809524;arrowSize=0.21571428571428497;fillColor=#fff2cc;strokeColor=#d6b656;" parent="1" vertex="1">
                    <mxGeometry x="1244" y="155.5" width="40" height="21" as="geometry"/>
                </mxCell>
                <mxCell id="gNXgvPfP9ovzg26KDNBa-102" value="publish" style="edgeStyle=none;rounded=0;orthogonalLoop=1;jettySize=auto;html=1;labelBackgroundColor=#FFF2CC;startArrow=none;startFill=0;endArrow=classicThin;endFill=1;entryX=0;entryY=0.5;entryDx=0;entryDy=0;entryPerimeter=0;exitX=0.962;exitY=0.508;exitDx=0;exitDy=0;exitPerimeter=0;" parent="1" source="gNXgvPfP9ovzg26KDNBa-100" target="gNXgvPfP9ovzg26KDNBa-101" edge="1">
                    <mxGeometry x="0.1552" y="3" relative="1" as="geometry">
                        <mxPoint x="1095.4881885543289" y="166.30399326591674" as="sourcePoint"/>
                        <mxPoint x="1250" y="165" as="targetPoint"/>
                        <mxPoint as="offset"/>
                    </mxGeometry>
                </mxCell>
                <mxCell id="gNXgvPfP9ovzg26KDNBa-103" value="&lt;div style=&quot;text-align: left&quot;&gt;&lt;span&gt;{&amp;nbsp;&lt;/span&gt;&lt;span&gt;v1: data1,&amp;nbsp;&lt;/span&gt;&lt;span&gt;v2: data2,&amp;nbsp;&lt;/span&gt;&lt;span&gt;v3: data3&amp;nbsp;&lt;/span&gt;&lt;span&gt;}&lt;/span&gt;&lt;/div&gt;" style="text;html=1;strokeColor=none;fillColor=none;align=center;verticalAlign=middle;whiteSpace=wrap;rounded=0;fontSize=7;" parent="1" vertex="1">
                    <mxGeometry x="1279" y="149" width="120" height="30" as="geometry"/>
                </mxCell>
                <mxCell id="gNXgvPfP9ovzg26KDNBa-104" value="{v= data1}" style="text;html=1;strokeColor=none;fillColor=none;align=center;verticalAlign=middle;whiteSpace=wrap;rounded=0;fontSize=7;rotation=-30;" parent="1" vertex="1">
                    <mxGeometry x="1244" y="55" width="60" height="30" as="geometry"/>
                </mxCell>
                <mxCell id="gNXgvPfP9ovzg26KDNBa-105" value="{v= data2}" style="text;html=1;strokeColor=none;fillColor=none;align=center;verticalAlign=middle;whiteSpace=wrap;rounded=0;fontSize=7;rotation=-25;" parent="1" vertex="1">
                    <mxGeometry x="1244" y="84" width="60" height="30" as="geometry"/>
                </mxCell>
                <mxCell id="gNXgvPfP9ovzg26KDNBa-106" value="{v= data3}" style="text;html=1;strokeColor=none;fillColor=none;align=center;verticalAlign=middle;whiteSpace=wrap;rounded=0;fontSize=7;rotation=25&#10;;" parent="1" vertex="1">
                    <mxGeometry x="1252" y="206" width="60" height="30" as="geometry"/>
                </mxCell>
                <mxCell id="gNXgvPfP9ovzg26KDNBa-107" value="" style="ellipse;whiteSpace=wrap;html=1;verticalAlign=top;fillColor=#fff2cc;strokeColor=#d6b656;" parent="1" vertex="1">
                    <mxGeometry x="1258" y="394" width="80" height="80" as="geometry"/>
                </mxCell>
                <mxCell id="gNXgvPfP9ovzg26KDNBa-111" value="agent" style="shape=process;whiteSpace=wrap;html=1;backgroundOutline=1;fillColor=#d5e8d4;strokeColor=#82b366;verticalAlign=top;" parent="1" vertex="1">
                    <mxGeometry x="1204" y="400" width="80" height="70" as="geometry"/>
                </mxCell>
                <mxCell id="gNXgvPfP9ovzg26KDNBa-117" value="publish &amp;amp; &lt;br&gt;subscribe" style="edgeStyle=none;rounded=0;orthogonalLoop=1;jettySize=auto;html=1;fontSize=12;startArrow=classic;startFill=1;" parent="1" source="gNXgvPfP9ovzg26KDNBa-116" target="gNXgvPfP9ovzg26KDNBa-111" edge="1">
                    <mxGeometry relative="1" as="geometry"/>
                </mxCell>
                <mxCell id="gNXgvPfP9ovzg26KDNBa-116" value="" style="ellipse;whiteSpace=wrap;html=1;verticalAlign=top;fillColor=#ffe6cc;strokeColor=#d79b00;" parent="1" vertex="1">
                    <mxGeometry x="1007.5" y="395" width="80" height="80" as="geometry"/>
                </mxCell>
                <mxCell id="gNXgvPfP9ovzg26KDNBa-118" value="control" style="shape=singleArrow;direction=west;whiteSpace=wrap;html=1;arrowWidth=0.588888888888889;arrowSize=0.18000000000000058;fillColor=#fff2cc;strokeColor=#d6b656;" parent="1" vertex="1">
                    <mxGeometry x="1330" y="395" width="50" height="30" as="geometry"/>
                </mxCell>
                <mxCell id="gNXgvPfP9ovzg26KDNBa-119" value="F" style="shape=singleArrow;whiteSpace=wrap;html=1;arrowWidth=0.623809523809524;arrowSize=0.21571428571428497;fillColor=#ffe6cc;strokeColor=#d79b00;" parent="1" vertex="1">
                    <mxGeometry x="1071" y="449" width="40" height="21" as="geometry"/>
                </mxCell>
                <mxCell id="gNXgvPfP9ovzg26KDNBa-120" value="F" style="shape=singleArrow;whiteSpace=wrap;html=1;arrowWidth=0.623809523809524;arrowSize=0.21571428571428497;fillColor=#ffe6cc;strokeColor=#d79b00;" parent="1" vertex="1">
                    <mxGeometry x="1067" y="453" width="40" height="21" as="geometry"/>
                </mxCell>
                <mxCell id="gNXgvPfP9ovzg26KDNBa-121" value="F" style="shape=singleArrow;whiteSpace=wrap;html=1;arrowWidth=0.623809523809524;arrowSize=0.21571428571428497;fillColor=#ffe6cc;strokeColor=#d79b00;" parent="1" vertex="1">
                    <mxGeometry x="1061" y="460" width="40" height="21" as="geometry"/>
                </mxCell>
                <mxCell id="gNXgvPfP9ovzg26KDNBa-122" value="F" style="shape=singleArrow;whiteSpace=wrap;html=1;arrowWidth=0.623809523809524;arrowSize=0.21571428571428497;fillColor=#fff2cc;strokeColor=#d6b656;" parent="1" vertex="1">
                    <mxGeometry x="1330" y="438" width="40" height="21" as="geometry"/>
                </mxCell>
                <mxCell id="gNXgvPfP9ovzg26KDNBa-123" value="F" style="shape=singleArrow;whiteSpace=wrap;html=1;arrowWidth=0.623809523809524;arrowSize=0.21571428571428497;fillColor=#fff2cc;strokeColor=#d6b656;" parent="1" vertex="1">
                    <mxGeometry x="1326" y="442" width="40" height="21" as="geometry"/>
                </mxCell>
                <mxCell id="gNXgvPfP9ovzg26KDNBa-125" value="extra logic" style="ellipse;shape=umlControl;whiteSpace=wrap;html=1;fontSize=7;" parent="1" vertex="1">
                    <mxGeometry x="1224.5" y="425" width="39" height="40" as="geometry"/>
                </mxCell>
                <mxCell id="gNXgvPfP9ovzg26KDNBa-126" value="{ proxy: on}" style="text;html=1;strokeColor=none;fillColor=none;align=center;verticalAlign=middle;whiteSpace=wrap;rounded=0;fontSize=12;" parent="1" vertex="1">
                    <mxGeometry x="1380" y="394" width="80" height="30" as="geometry"/>
                </mxCell>
                <mxCell id="gNXgvPfP9ovzg26KDNBa-127" value="Twin" style="ellipse;whiteSpace=wrap;html=1;verticalAlign=top;fillColor=#fff2cc;strokeColor=#d6b656;" parent="1" vertex="1">
                    <mxGeometry x="1030" y="550" width="150" height="146" as="geometry"/>
                </mxCell>
                <mxCell id="gNXgvPfP9ovzg26KDNBa-124" value="F1" style="shape=singleArrow;whiteSpace=wrap;html=1;arrowWidth=0.623809523809524;arrowSize=0.21571428571428497;fillColor=#fff2cc;strokeColor=#d6b656;" parent="1" vertex="1">
                    <mxGeometry x="1150" y="556" width="62" height="21" as="geometry"/>
                </mxCell>
                <mxCell id="gNXgvPfP9ovzg26KDNBa-134" value="F2" style="shape=singleArrow;whiteSpace=wrap;html=1;arrowWidth=0.623809523809524;arrowSize=0.21571428571428497;fillColor=#fff2cc;strokeColor=#d6b656;" parent="1" vertex="1">
                    <mxGeometry x="1150" y="585" width="62" height="21" as="geometry"/>
                </mxCell>
                <mxCell id="gNXgvPfP9ovzg26KDNBa-135" value="..." style="shape=singleArrow;whiteSpace=wrap;html=1;arrowWidth=0.623809523809524;arrowSize=0.21571428571428497;fillColor=#fff2cc;strokeColor=#d6b656;" parent="1" vertex="1">
                    <mxGeometry x="1150" y="638" width="62" height="21" as="geometry"/>
                </mxCell>
                <mxCell id="gNXgvPfP9ovzg26KDNBa-136" value="F3" style="shape=singleArrow;whiteSpace=wrap;html=1;arrowWidth=0.623809523809524;arrowSize=0.21571428571428497;fillColor=#fff2cc;strokeColor=#d6b656;" parent="1" vertex="1">
                    <mxGeometry x="1150" y="611" width="62" height="21" as="geometry"/>
                </mxCell>
                <mxCell id="gNXgvPfP9ovzg26KDNBa-137" value="FN" style="shape=singleArrow;whiteSpace=wrap;html=1;arrowWidth=0.623809523809524;arrowSize=0.21571428571428497;fillColor=#fff2cc;strokeColor=#d6b656;" parent="1" vertex="1">
                    <mxGeometry x="1150" y="669" width="62" height="21" as="geometry"/>
                </mxCell>
                <mxCell id="gNXgvPfP9ovzg26KDNBa-138" value="v: value1" style="text;html=1;strokeColor=none;fillColor=none;align=center;verticalAlign=middle;whiteSpace=wrap;rounded=0;fontSize=12;" parent="1" vertex="1">
                    <mxGeometry x="1211" y="551.5" width="60" height="30" as="geometry"/>
                </mxCell>
                <mxCell id="gNXgvPfP9ovzg26KDNBa-139" value="v: value2" style="text;html=1;strokeColor=none;fillColor=none;align=center;verticalAlign=middle;whiteSpace=wrap;rounded=0;fontSize=12;" parent="1" vertex="1">
                    <mxGeometry x="1211" y="581.5" width="60" height="30" as="geometry"/>
                </mxCell>
                <mxCell id="gNXgvPfP9ovzg26KDNBa-140" value="v: value3" style="text;html=1;strokeColor=none;fillColor=none;align=center;verticalAlign=middle;whiteSpace=wrap;rounded=0;fontSize=12;" parent="1" vertex="1">
                    <mxGeometry x="1211" y="606.5" width="60" height="30" as="geometry"/>
                </mxCell>
                <mxCell id="gNXgvPfP9ovzg26KDNBa-141" value="..." style="text;html=1;strokeColor=none;fillColor=none;align=center;verticalAlign=middle;whiteSpace=wrap;rounded=0;fontSize=12;" parent="1" vertex="1">
                    <mxGeometry x="1211" y="636.5" width="60" height="30" as="geometry"/>
                </mxCell>
                <mxCell id="gNXgvPfP9ovzg26KDNBa-142" value="v: valueN" style="text;html=1;strokeColor=none;fillColor=none;align=center;verticalAlign=middle;whiteSpace=wrap;rounded=0;fontSize=12;" parent="1" vertex="1">
                    <mxGeometry x="1214" y="664.5" width="60" height="30" as="geometry"/>
                </mxCell>
                <mxCell id="gNXgvPfP9ovzg26KDNBa-143" value="Twin" style="ellipse;whiteSpace=wrap;html=1;verticalAlign=top;fillColor=#fff2cc;strokeColor=#d6b656;" parent="1" vertex="1">
                    <mxGeometry x="1320" y="551.5" width="150" height="146" as="geometry"/>
                </mxCell>
                <mxCell id="gNXgvPfP9ovzg26KDNBa-144" value="F" style="shape=singleArrow;whiteSpace=wrap;html=1;arrowWidth=0.7824377457404974;arrowSize=0.24500768049155072;fillColor=#fff2cc;strokeColor=#d6b656;" parent="1" vertex="1">
                    <mxGeometry x="1410" y="570" width="80" height="109" as="geometry"/>
                </mxCell>
                <mxCell id="gNXgvPfP9ovzg26KDNBa-145" value="{&lt;br&gt;&amp;nbsp; &amp;nbsp;v1: value1,&lt;br&gt;&amp;nbsp; &amp;nbsp;v2: value1,&lt;br&gt;&amp;nbsp; &amp;nbsp;v3: value1,&lt;br&gt;&amp;nbsp; &amp;nbsp;...,&lt;br&gt;&amp;nbsp; &amp;nbsp;vN: valueN,&lt;br&gt;}" style="text;html=1;strokeColor=none;fillColor=none;align=left;verticalAlign=middle;whiteSpace=wrap;rounded=0;fontSize=12;" parent="1" vertex="1">
                    <mxGeometry x="1490" y="548.75" width="90" height="151.5" as="geometry"/>
                </mxCell>
                <mxCell id="gNXgvPfP9ovzg26KDNBa-146" value="twin1" style="ellipse;whiteSpace=wrap;html=1;aspect=fixed;fontSize=12;fillColor=#ffe6cc;strokeColor=#d79b00;" parent="1" vertex="1">
                    <mxGeometry x="1081.5" y="820" width="80" height="80" as="geometry"/>
                </mxCell>
                <mxCell id="gNXgvPfP9ovzg26KDNBa-147" value="twin2" style="ellipse;whiteSpace=wrap;html=1;aspect=fixed;fontSize=12;fillColor=#fff2cc;strokeColor=#d6b656;" parent="1" vertex="1">
                    <mxGeometry x="1350" y="820.5" width="80" height="80" as="geometry"/>
                </mxCell>
                <mxCell id="gNXgvPfP9ovzg26KDNBa-148" value="data" style="shape=internalStorage;whiteSpace=wrap;html=1;backgroundOutline=1;fontSize=12;fillColor=#d5e8d4;strokeColor=#82b366;" parent="1" vertex="1">
                    <mxGeometry x="910" y="965" width="80" height="80" as="geometry"/>
                </mxCell>
                <mxCell id="gNXgvPfP9ovzg26KDNBa-149" value="1. data access request" style="shape=flexArrow;endArrow=classic;html=1;rounded=0;fontSize=12;width=6.666666666666666;endSize=2.747619047619047;fillColor=#ffe6cc;strokeColor=#d79b00;endWidth=13.015873015873016;" parent="1" edge="1">
                    <mxGeometry x="0.0588" y="-20" width="50" height="50" relative="1" as="geometry">
                        <mxPoint x="1340" y="830" as="sourcePoint"/>
                        <mxPoint x="1170" y="830" as="targetPoint"/>
                        <mxPoint as="offset"/>
                    </mxGeometry>
                </mxCell>
                <mxCell id="gNXgvPfP9ovzg26KDNBa-151" value="agent 1" style="shape=process;whiteSpace=wrap;html=1;backgroundOutline=1;fontSize=12;fillColor=#ffe6cc;strokeColor=#d79b00;" parent="1" vertex="1">
                    <mxGeometry x="890" y="830" width="120" height="60" as="geometry"/>
                </mxCell>
                <mxCell id="gNXgvPfP9ovzg26KDNBa-152" value="" style="endArrow=classic;html=1;rounded=0;fontSize=12;" parent="1" target="gNXgvPfP9ovzg26KDNBa-151" edge="1">
                    <mxGeometry width="50" height="50" relative="1" as="geometry">
                        <mxPoint x="1170" y="830" as="sourcePoint"/>
                        <mxPoint x="1180" y="920" as="targetPoint"/>
                    </mxGeometry>
                </mxCell>
                <mxCell id="gNXgvPfP9ovzg26KDNBa-153" value="2. generate &lt;br&gt;one time URI" style="endArrow=classic;html=1;rounded=0;fontSize=12;exitX=0.251;exitY=1.055;exitDx=0;exitDy=0;exitPerimeter=0;" parent="1" source="gNXgvPfP9ovzg26KDNBa-151" edge="1">
                    <mxGeometry width="50" height="50" relative="1" as="geometry">
                        <mxPoint x="1130" y="970" as="sourcePoint"/>
                        <mxPoint x="920" y="960" as="targetPoint"/>
                    </mxGeometry>
                </mxCell>
                <mxCell id="gNXgvPfP9ovzg26KDNBa-154" value="URI" style="endArrow=classic;html=1;rounded=0;fontSize=12;dashed=1;" parent="1" edge="1">
                    <mxGeometry width="50" height="50" relative="1" as="geometry">
                        <mxPoint x="976" y="960" as="sourcePoint"/>
                        <mxPoint x="976" y="900" as="targetPoint"/>
                    </mxGeometry>
                </mxCell>
                <mxCell id="gNXgvPfP9ovzg26KDNBa-155" value="URI" style="endArrow=classic;html=1;rounded=0;fontSize=12;dashed=1;" parent="1" edge="1">
                    <mxGeometry x="-0.4942" y="-7" width="50" height="50" relative="1" as="geometry">
                        <mxPoint x="1020" y="870" as="sourcePoint"/>
                        <mxPoint x="1180" y="880" as="targetPoint"/>
                        <mxPoint as="offset"/>
                    </mxGeometry>
                </mxCell>
                <mxCell id="gNXgvPfP9ovzg26KDNBa-156" value="URI" style="shape=flexArrow;endArrow=classic;html=1;rounded=0;fontSize=12;width=6.666666666666666;endSize=4.557142857142857;endWidth=14.920634920634921;fillColor=#fff2cc;strokeColor=#d6b656;" parent="1" edge="1">
                    <mxGeometry y="-20" width="50" height="50" relative="1" as="geometry">
                        <mxPoint x="1180" y="880" as="sourcePoint"/>
                        <mxPoint x="1340" y="880" as="targetPoint"/>
                        <mxPoint as="offset"/>
                    </mxGeometry>
                </mxCell>
                <mxCell id="gNXgvPfP9ovzg26KDNBa-157" value="3. Access via URI" style="endArrow=classic;html=1;rounded=0;fontSize=12;exitX=0.5;exitY=1;exitDx=0;exitDy=0;" parent="1" source="gNXgvPfP9ovzg26KDNBa-159" edge="1">
                    <mxGeometry width="50" height="50" relative="1" as="geometry">
                        <mxPoint x="1286.5" y="943.1800000000001" as="sourcePoint"/>
                        <mxPoint x="1000" y="1010" as="targetPoint"/>
                    </mxGeometry>
                </mxCell>
                <mxCell id="gNXgvPfP9ovzg26KDNBa-159" value="agent 2" style="shape=process;whiteSpace=wrap;html=1;backgroundOutline=1;fontSize=12;fillColor=#fff2cc;strokeColor=#d6b656;" parent="1" vertex="1">
                    <mxGeometry x="1460" y="831" width="120" height="60" as="geometry"/>
                </mxCell>
                <mxCell id="gNXgvPfP9ovzg26KDNBa-160" value="" style="endArrow=classic;html=1;rounded=0;fontSize=12;exitX=0;exitY=0.25;exitDx=0;exitDy=0;" parent="1" source="gNXgvPfP9ovzg26KDNBa-159" edge="1">
                    <mxGeometry width="50" height="50" relative="1" as="geometry">
                        <mxPoint x="1180" y="840" as="sourcePoint"/>
                        <mxPoint x="1340" y="830" as="targetPoint"/>
                    </mxGeometry>
                </mxCell>
                <mxCell id="gNXgvPfP9ovzg26KDNBa-161" value="URI" style="endArrow=classic;html=1;rounded=0;fontSize=12;dashed=1;entryX=-0.023;entryY=0.657;entryDx=0;entryDy=0;entryPerimeter=0;" parent="1" target="gNXgvPfP9ovzg26KDNBa-159" edge="1">
                    <mxGeometry x="0.6946" y="-8" width="50" height="50" relative="1" as="geometry">
                        <mxPoint x="1340" y="880" as="sourcePoint"/>
                        <mxPoint x="1190" y="890" as="targetPoint"/>
                        <mxPoint as="offset"/>
                    </mxGeometry>
                </mxCell>
                <mxCell id="gNXgvPfP9ovzg26KDNBa-162" value="Twin 3" style="ellipse;whiteSpace=wrap;html=1;verticalAlign=top;fillColor=#fff2cc;strokeColor=#d6b656;" parent="1" vertex="1">
                    <mxGeometry x="1920" y="20" width="56" height="51" as="geometry"/>
                </mxCell>
                <mxCell id="gNXgvPfP9ovzg26KDNBa-163" value="sync" style="edgeStyle=orthogonalEdgeStyle;rounded=0;orthogonalLoop=1;jettySize=auto;html=1;startArrow=classicThin;startFill=1;endArrow=classicThin;endFill=1;" parent="1" source="gNXgvPfP9ovzg26KDNBa-164" target="gNXgvPfP9ovzg26KDNBa-165" edge="1">
                    <mxGeometry relative="1" as="geometry"/>
                </mxCell>
                <mxCell id="gNXgvPfP9ovzg26KDNBa-164" value="Asset" style="rounded=0;whiteSpace=wrap;html=1;fillColor=#ffe6cc;strokeColor=#d79b00;" parent="1" vertex="1">
                    <mxGeometry x="1700" y="85" width="70" height="30" as="geometry"/>
                </mxCell>
                <mxCell id="gNXgvPfP9ovzg26KDNBa-165" value="agent" style="shape=process;whiteSpace=wrap;html=1;backgroundOutline=1;fillColor=#d5e8d4;strokeColor=#82b366;" parent="1" vertex="1">
                    <mxGeometry x="1840" y="80" width="80" height="40" as="geometry"/>
                </mxCell>
                <mxCell id="gNXgvPfP9ovzg26KDNBa-171" style="edgeStyle=none;rounded=0;orthogonalLoop=1;jettySize=auto;html=1;dashed=1;fontSize=12;" parent="1" source="gNXgvPfP9ovzg26KDNBa-166" target="gNXgvPfP9ovzg26KDNBa-167" edge="1">
                    <mxGeometry relative="1" as="geometry">
                        <Array as="points">
                            <mxPoint x="2020" y="160"/>
                        </Array>
                    </mxGeometry>
                </mxCell>
                <mxCell id="gNXgvPfP9ovzg26KDNBa-172" style="edgeStyle=none;rounded=0;orthogonalLoop=1;jettySize=auto;html=1;dashed=1;fontSize=12;" parent="1" source="gNXgvPfP9ovzg26KDNBa-166" target="gNXgvPfP9ovzg26KDNBa-162" edge="1">
                    <mxGeometry relative="1" as="geometry"/>
                </mxCell>
                <mxCell id="gNXgvPfP9ovzg26KDNBa-166" value="Twin 2" style="ellipse;whiteSpace=wrap;html=1;verticalAlign=top;fillColor=#fff2cc;strokeColor=#d6b656;" parent="1" vertex="1">
                    <mxGeometry x="2012" y="80" width="56" height="51" as="geometry"/>
                </mxCell>
                <mxCell id="gNXgvPfP9ovzg26KDNBa-169" style="edgeStyle=none;rounded=0;orthogonalLoop=1;jettySize=auto;html=1;dashed=1;fontSize=12;" parent="1" source="gNXgvPfP9ovzg26KDNBa-167" target="gNXgvPfP9ovzg26KDNBa-166" edge="1">
                    <mxGeometry relative="1" as="geometry">
                        <Array as="points">
                            <mxPoint x="1980" y="130"/>
                        </Array>
                    </mxGeometry>
                </mxCell>
                <mxCell id="gNXgvPfP9ovzg26KDNBa-167" value="Twin 1" style="ellipse;whiteSpace=wrap;html=1;verticalAlign=top;fillColor=#fff2cc;strokeColor=#d6b656;" parent="1" vertex="1">
                    <mxGeometry x="1930" y="145" width="56" height="51" as="geometry"/>
                </mxCell>
                <mxCell id="gNXgvPfP9ovzg26KDNBa-168" value="links_to: Twin2" style="text;html=1;strokeColor=none;fillColor=none;align=center;verticalAlign=middle;whiteSpace=wrap;rounded=0;fontSize=12;" parent="1" vertex="1">
                    <mxGeometry x="1920" y="196" width="100" height="30" as="geometry"/>
                </mxCell>
                <mxCell id="gNXgvPfP9ovzg26KDNBa-170" value="links_to: Twin1, Twin3" style="text;html=1;strokeColor=none;fillColor=none;align=center;verticalAlign=middle;whiteSpace=wrap;rounded=0;fontSize=12;" parent="1" vertex="1">
                    <mxGeometry x="2045" y="126" width="120" height="30" as="geometry"/>
                </mxCell>
                <mxCell id="gNXgvPfP9ovzg26KDNBa-174" value="sync" style="edgeStyle=orthogonalEdgeStyle;rounded=0;orthogonalLoop=1;jettySize=auto;html=1;startArrow=classicThin;startFill=1;endArrow=classicThin;endFill=1;" parent="1" source="gNXgvPfP9ovzg26KDNBa-175" target="gNXgvPfP9ovzg26KDNBa-176" edge="1">
                    <mxGeometry relative="1" as="geometry"/>
                </mxCell>
                <mxCell id="gNXgvPfP9ovzg26KDNBa-175" value="Asset2" style="rounded=0;whiteSpace=wrap;html=1;fillColor=#ffe6cc;strokeColor=#d79b00;" parent="1" vertex="1">
                    <mxGeometry x="1700" y="346" width="70" height="30" as="geometry"/>
                </mxCell>
                <mxCell id="gNXgvPfP9ovzg26KDNBa-183" style="edgeStyle=none;rounded=0;orthogonalLoop=1;jettySize=auto;html=1;entryX=0;entryY=0.5;entryDx=0;entryDy=0;fontSize=12;startArrow=classic;startFill=1;" parent="1" source="gNXgvPfP9ovzg26KDNBa-176" target="gNXgvPfP9ovzg26KDNBa-182" edge="1">
                    <mxGeometry relative="1" as="geometry"/>
                </mxCell>
                <mxCell id="gNXgvPfP9ovzg26KDNBa-176" value="agent" style="shape=process;whiteSpace=wrap;html=1;backgroundOutline=1;fillColor=#d5e8d4;strokeColor=#82b366;" parent="1" vertex="1">
                    <mxGeometry x="1840" y="341" width="80" height="40" as="geometry"/>
                </mxCell>
                <mxCell id="gNXgvPfP9ovzg26KDNBa-177" value="Asset1" style="rounded=0;whiteSpace=wrap;html=1;fillColor=#ffe6cc;strokeColor=#d79b00;" parent="1" vertex="1">
                    <mxGeometry x="1700" y="284" width="70" height="30" as="geometry"/>
                </mxCell>
                <mxCell id="gNXgvPfP9ovzg26KDNBa-178" value="Asset3" style="rounded=0;whiteSpace=wrap;html=1;fillColor=#ffe6cc;strokeColor=#d79b00;" parent="1" vertex="1">
                    <mxGeometry x="1700" y="412" width="70" height="30" as="geometry"/>
                </mxCell>
                <mxCell id="gNXgvPfP9ovzg26KDNBa-179" value="sync" style="rounded=0;orthogonalLoop=1;jettySize=auto;html=1;startArrow=classicThin;startFill=1;endArrow=classicThin;endFill=1;exitX=1;exitY=0.5;exitDx=0;exitDy=0;entryX=0;entryY=0.5;entryDx=0;entryDy=0;" parent="1" source="gNXgvPfP9ovzg26KDNBa-178" target="gNXgvPfP9ovzg26KDNBa-176" edge="1">
                    <mxGeometry relative="1" as="geometry">
                        <mxPoint x="1780" y="371" as="sourcePoint"/>
                        <mxPoint x="1850" y="371" as="targetPoint"/>
                    </mxGeometry>
                </mxCell>
                <mxCell id="gNXgvPfP9ovzg26KDNBa-181" value="sync" style="rounded=0;orthogonalLoop=1;jettySize=auto;html=1;startArrow=classicThin;startFill=1;endArrow=classicThin;endFill=1;exitX=1;exitY=0.5;exitDx=0;exitDy=0;" parent="1" source="gNXgvPfP9ovzg26KDNBa-177" edge="1">
                    <mxGeometry relative="1" as="geometry">
                        <mxPoint x="1780" y="371" as="sourcePoint"/>
                        <mxPoint x="1840" y="360" as="targetPoint"/>
                    </mxGeometry>
                </mxCell>
                <mxCell id="gNXgvPfP9ovzg26KDNBa-182" value="Twin 1" style="ellipse;whiteSpace=wrap;html=1;verticalAlign=top;fillColor=#fff2cc;strokeColor=#d6b656;" parent="1" vertex="1">
                    <mxGeometry x="1976" y="335.5" width="56" height="51" as="geometry"/>
                </mxCell>
                <mxCell id="gNXgvPfP9ovzg26KDNBa-184" value="IOTICSpace A" style="whiteSpace=wrap;html=1;aspect=fixed;fontSize=12;strokeWidth=4;fillColor=none;strokeColor=#d79b00;verticalAlign=top;" parent="1" vertex="1">
                    <mxGeometry x="1760" y="526.5" width="143.5" height="143.5" as="geometry"/>
                </mxCell>
                <mxCell id="gNXgvPfP9ovzg26KDNBa-185" value="IOTICSpace B" style="whiteSpace=wrap;html=1;aspect=fixed;fontSize=12;strokeWidth=4;fillColor=none;strokeColor=#d6b656;verticalAlign=top;" parent="1" vertex="1">
                    <mxGeometry x="2120" y="521" width="143.5" height="143.5" as="geometry"/>
                </mxCell>
                <mxCell id="gNXgvPfP9ovzg26KDNBa-186" value="Escrow IOTICSpace" style="whiteSpace=wrap;html=1;aspect=fixed;fontSize=12;strokeWidth=4;fillColor=none;strokeColor=#82b366;verticalAlign=bottom;" parent="1" vertex="1">
                    <mxGeometry x="2120" y="690.5" width="143.5" height="143.5" as="geometry"/>
                </mxCell>
                <mxCell id="gNXgvPfP9ovzg26KDNBa-215" style="edgeStyle=none;rounded=0;orthogonalLoop=1;jettySize=auto;html=1;fontSize=9;startArrow=none;startFill=0;endArrow=none;endFill=0;strokeColor=#000000;strokeWidth=1;" parent="1" source="gNXgvPfP9ovzg26KDNBa-187" target="gNXgvPfP9ovzg26KDNBa-188" edge="1">
                    <mxGeometry relative="1" as="geometry"/>
                </mxCell>
                <mxCell id="gNXgvPfP9ovzg26KDNBa-187" value="agent 1" style="shape=process;whiteSpace=wrap;html=1;backgroundOutline=1;fontSize=12;strokeWidth=4;fillColor=#ffe6cc;strokeColor=#d79b00;" parent="1" vertex="1">
                    <mxGeometry x="1660" y="555" width="80" height="30" as="geometry"/>
                </mxCell>
                <mxCell id="gNXgvPfP9ovzg26KDNBa-188" value="Twin 1" style="ellipse;whiteSpace=wrap;html=1;verticalAlign=top;fillColor=#ffe6cc;strokeColor=#d79b00;" parent="1" vertex="1">
                    <mxGeometry x="1803.75" y="553" width="56" height="51" as="geometry"/>
                </mxCell>
                <mxCell id="gNXgvPfP9ovzg26KDNBa-190" value="Follower" style="ellipse;whiteSpace=wrap;html=1;verticalAlign=top;fillColor=#ffe6cc;strokeColor=#d79b00;" parent="1" vertex="1">
                    <mxGeometry x="1803.75" y="612" width="56" height="51" as="geometry"/>
                </mxCell>
                <mxCell id="gNXgvPfP9ovzg26KDNBa-191" style="edgeStyle=none;rounded=0;orthogonalLoop=1;jettySize=auto;html=1;fontSize=12;startArrow=none;startFill=0;endArrow=none;endFill=0;" parent="1" source="gNXgvPfP9ovzg26KDNBa-192" target="gNXgvPfP9ovzg26KDNBa-193" edge="1">
                    <mxGeometry relative="1" as="geometry"/>
                </mxCell>
                <mxCell id="gNXgvPfP9ovzg26KDNBa-192" value="agent 1" style="shape=process;whiteSpace=wrap;html=1;backgroundOutline=1;fontSize=12;strokeWidth=4;fillColor=#ffe6cc;strokeColor=#d79b00;" parent="1" vertex="1">
                    <mxGeometry x="2000.25" y="733" width="80" height="30" as="geometry"/>
                </mxCell>
                <mxCell id="gNXgvPfP9ovzg26KDNBa-193" value="Twin 1" style="ellipse;whiteSpace=wrap;html=1;verticalAlign=top;fillColor=#ffe6cc;strokeColor=#d79b00;" parent="1" vertex="1">
                    <mxGeometry x="2144" y="730" width="56" height="51" as="geometry"/>
                </mxCell>
                <mxCell id="gNXgvPfP9ovzg26KDNBa-194" value="Twin X" style="ellipse;whiteSpace=wrap;html=1;verticalAlign=middle;fillColor=#fff2cc;strokeColor=#d6b656;fontSize=9;" parent="1" vertex="1">
                    <mxGeometry x="2140" y="553" width="30" height="30" as="geometry"/>
                </mxCell>
                <mxCell id="gNXgvPfP9ovzg26KDNBa-197" value="Twin Z" style="ellipse;whiteSpace=wrap;html=1;verticalAlign=middle;fillColor=#fff2cc;strokeColor=#d6b656;fontSize=9;" parent="1" vertex="1">
                    <mxGeometry x="2220" y="594" width="30" height="30" as="geometry"/>
                </mxCell>
                <mxCell id="gNXgvPfP9ovzg26KDNBa-198" value="Twin Y" style="ellipse;whiteSpace=wrap;html=1;verticalAlign=middle;fillColor=#fff2cc;strokeColor=#d6b656;fontSize=9;" parent="1" vertex="1">
                    <mxGeometry x="2176.75" y="604" width="30" height="30" as="geometry"/>
                </mxCell>
                <mxCell id="gNXgvPfP9ovzg26KDNBa-199" value="follow aggregated feed" style="endArrow=none;html=1;rounded=0;fontSize=9;" parent="1" source="gNXgvPfP9ovzg26KDNBa-190" target="gNXgvPfP9ovzg26KDNBa-193" edge="1">
                    <mxGeometry width="50" height="50" relative="1" as="geometry">
                        <mxPoint x="2030" y="730" as="sourcePoint"/>
                        <mxPoint x="2080" y="680" as="targetPoint"/>
                    </mxGeometry>
                </mxCell>
                <mxCell id="gNXgvPfP9ovzg26KDNBa-200" value="" style="endArrow=none;html=1;rounded=0;fontSize=9;" parent="1" source="gNXgvPfP9ovzg26KDNBa-194" target="gNXgvPfP9ovzg26KDNBa-193" edge="1">
                    <mxGeometry width="50" height="50" relative="1" as="geometry">
                        <mxPoint x="1861.418442674219" y="665.6493353132023" as="sourcePoint"/>
                        <mxPoint x="1982.3556827006682" y="777.3290064981181" as="targetPoint"/>
                    </mxGeometry>
                </mxCell>
                <mxCell id="gNXgvPfP9ovzg26KDNBa-201" value="" style="endArrow=none;html=1;rounded=0;fontSize=9;" parent="1" source="gNXgvPfP9ovzg26KDNBa-198" target="gNXgvPfP9ovzg26KDNBa-193" edge="1">
                    <mxGeometry width="50" height="50" relative="1" as="geometry">
                        <mxPoint x="2156.005600605958" y="590.0041984130589" as="sourcePoint"/>
                        <mxPoint x="2017.792642890814" y="774.443142812248" as="targetPoint"/>
                    </mxGeometry>
                </mxCell>
                <mxCell id="gNXgvPfP9ovzg26KDNBa-202" value="" style="endArrow=none;html=1;rounded=0;fontSize=9;" parent="1" source="gNXgvPfP9ovzg26KDNBa-197" target="gNXgvPfP9ovzg26KDNBa-193" edge="1">
                    <mxGeometry width="50" height="50" relative="1" as="geometry">
                        <mxPoint x="2166.005600605958" y="600.0041984130589" as="sourcePoint"/>
                        <mxPoint x="2027.792642890814" y="784.443142812248" as="targetPoint"/>
                    </mxGeometry>
                </mxCell>
                <mxCell id="gNXgvPfP9ovzg26KDNBa-203" value="follow Twin1" style="endArrow=none;html=1;rounded=0;fontSize=9;" parent="1" target="gNXgvPfP9ovzg26KDNBa-188" edge="1">
                    <mxGeometry width="50" height="50" relative="1" as="geometry">
                        <mxPoint x="2110" y="570" as="sourcePoint"/>
                        <mxPoint x="2037.792642890814" y="794.443142812248" as="targetPoint"/>
                    </mxGeometry>
                </mxCell>
                <mxCell id="gNXgvPfP9ovzg26KDNBa-204" value="follow Twin 2" style="endArrow=none;html=1;rounded=0;fontSize=9;" parent="1" target="gNXgvPfP9ovzg26KDNBa-188" edge="1">
                    <mxGeometry width="50" height="50" relative="1" as="geometry">
                        <mxPoint x="2110" y="590" as="sourcePoint"/>
                        <mxPoint x="1869.7360034327899" y="587.6938188311542" as="targetPoint"/>
                    </mxGeometry>
                </mxCell>
                <mxCell id="gNXgvPfP9ovzg26KDNBa-205" value="follow Twin 3" style="endArrow=none;html=1;rounded=0;fontSize=9;" parent="1" target="gNXgvPfP9ovzg26KDNBa-188" edge="1">
                    <mxGeometry width="50" height="50" relative="1" as="geometry">
                        <mxPoint x="2110" y="610" as="sourcePoint"/>
                        <mxPoint x="1879.7360034327899" y="597.6938188311542" as="targetPoint"/>
                    </mxGeometry>
                </mxCell>
                <mxCell id="gNXgvPfP9ovzg26KDNBa-208" value="" style="group" parent="1" vertex="1" connectable="0">
                    <mxGeometry x="2100" y="565" width="10" height="10" as="geometry"/>
                </mxCell>
                <mxCell id="gNXgvPfP9ovzg26KDNBa-206" value="" style="endArrow=none;html=1;rounded=0;fontSize=9;strokeWidth=2;strokeColor=#FF3333;" parent="gNXgvPfP9ovzg26KDNBa-208" edge="1">
                    <mxGeometry width="50" height="50" relative="1" as="geometry">
                        <mxPoint y="10" as="sourcePoint"/>
                        <mxPoint x="10" as="targetPoint"/>
                    </mxGeometry>
                </mxCell>
                <mxCell id="gNXgvPfP9ovzg26KDNBa-207" value="" style="endArrow=none;html=1;rounded=0;fontSize=9;strokeWidth=2;strokeColor=#FF3333;" parent="gNXgvPfP9ovzg26KDNBa-208" edge="1">
                    <mxGeometry width="50" height="50" relative="1" as="geometry">
                        <mxPoint x="1" as="sourcePoint"/>
                        <mxPoint x="11" y="10" as="targetPoint"/>
                        <Array as="points">
                            <mxPoint x="1"/>
                        </Array>
                    </mxGeometry>
                </mxCell>
                <mxCell id="gNXgvPfP9ovzg26KDNBa-209" value="" style="group" parent="1" vertex="1" connectable="0">
                    <mxGeometry x="2099" y="585" width="10" height="10" as="geometry"/>
                </mxCell>
                <mxCell id="gNXgvPfP9ovzg26KDNBa-210" value="" style="endArrow=none;html=1;rounded=0;fontSize=9;strokeWidth=2;strokeColor=#FF3333;" parent="gNXgvPfP9ovzg26KDNBa-209" edge="1">
                    <mxGeometry width="50" height="50" relative="1" as="geometry">
                        <mxPoint y="10" as="sourcePoint"/>
                        <mxPoint x="10" as="targetPoint"/>
                    </mxGeometry>
                </mxCell>
                <mxCell id="gNXgvPfP9ovzg26KDNBa-211" value="" style="endArrow=none;html=1;rounded=0;fontSize=9;strokeWidth=2;strokeColor=#FF3333;" parent="gNXgvPfP9ovzg26KDNBa-209" edge="1">
                    <mxGeometry width="50" height="50" relative="1" as="geometry">
                        <mxPoint x="1" as="sourcePoint"/>
                        <mxPoint x="11" y="10" as="targetPoint"/>
                        <Array as="points">
                            <mxPoint x="1"/>
                        </Array>
                    </mxGeometry>
                </mxCell>
                <mxCell id="gNXgvPfP9ovzg26KDNBa-212" value="" style="group" parent="1" vertex="1" connectable="0">
                    <mxGeometry x="2097" y="604" width="10" height="10" as="geometry"/>
                </mxCell>
                <mxCell id="gNXgvPfP9ovzg26KDNBa-213" value="" style="endArrow=none;html=1;rounded=0;fontSize=9;strokeWidth=2;strokeColor=#FF3333;" parent="gNXgvPfP9ovzg26KDNBa-212" edge="1">
                    <mxGeometry width="50" height="50" relative="1" as="geometry">
                        <mxPoint y="10" as="sourcePoint"/>
                        <mxPoint x="10" as="targetPoint"/>
                    </mxGeometry>
                </mxCell>
                <mxCell id="gNXgvPfP9ovzg26KDNBa-214" value="" style="endArrow=none;html=1;rounded=0;fontSize=9;strokeWidth=2;strokeColor=#FF3333;" parent="gNXgvPfP9ovzg26KDNBa-212" edge="1">
                    <mxGeometry width="50" height="50" relative="1" as="geometry">
                        <mxPoint x="1" as="sourcePoint"/>
                        <mxPoint x="11" y="10" as="targetPoint"/>
                        <Array as="points">
                            <mxPoint x="1"/>
                        </Array>
                    </mxGeometry>
                </mxCell>
                <mxCell id="gNXgvPfP9ovzg26KDNBa-217" style="edgeStyle=none;rounded=0;orthogonalLoop=1;jettySize=auto;html=1;fontSize=9;startArrow=none;startFill=0;endArrow=none;endFill=0;strokeColor=#000000;strokeWidth=1;" parent="1" source="gNXgvPfP9ovzg26KDNBa-216" target="gNXgvPfP9ovzg26KDNBa-190" edge="1">
                    <mxGeometry relative="1" as="geometry"/>
                </mxCell>
                <mxCell id="gNXgvPfP9ovzg26KDNBa-216" value="agent 2" style="shape=process;whiteSpace=wrap;html=1;backgroundOutline=1;fontSize=12;strokeWidth=4;fillColor=#ffe6cc;strokeColor=#d79b00;" parent="1" vertex="1">
                    <mxGeometry x="1660" y="622.5" width="80" height="30" as="geometry"/>
                </mxCell>
                <mxCell id="gNXgvPfP9ovzg26KDNBa-219" value="allow A" style="shape=note;whiteSpace=wrap;html=1;backgroundOutline=1;darkOpacity=0.05;fontSize=9;strokeWidth=1;fillColor=#ffe6cc;strokeColor=#d79b00;size=16;" parent="1" vertex="1">
                    <mxGeometry x="2185" y="760" width="40" height="49.5" as="geometry"/>
                </mxCell>
                <mxCell id="LQZeExEs7iWXj-Pr253q-2" value="subscribe" style="rounded=0;orthogonalLoop=1;jettySize=auto;html=1;entryX=1;entryY=0.5;entryDx=0;entryDy=0;entryPerimeter=0;labelBackgroundColor=default;startArrow=classicThin;startFill=1;endArrow=none;endFill=0;" parent="1" source="LQZeExEs7iWXj-Pr253q-19" target="LQZeExEs7iWXj-Pr253q-13" edge="1">
                    <mxGeometry x="0.1872" y="-4" relative="1" as="geometry">
                        <mxPoint as="offset"/>
                    </mxGeometry>
                </mxCell>
                <mxCell id="LQZeExEs7iWXj-Pr253q-3" value="&lt;span style=&quot;color: rgb(0, 0, 0); font-family: helvetica; font-size: 11px; font-style: normal; font-weight: 400; letter-spacing: normal; text-align: center; text-indent: 0px; text-transform: none; word-spacing: 0px; background-color: rgb(255, 255, 255); display: inline; float: none;&quot;&gt;subscribe&lt;/span&gt;" style="edgeStyle=none;rounded=0;orthogonalLoop=1;jettySize=auto;html=1;entryX=1;entryY=0.5;entryDx=0;entryDy=0;entryPerimeter=0;labelBackgroundColor=default;startArrow=classicThin;startFill=1;endArrow=none;endFill=0;exitX=0.789;exitY=0.235;exitDx=0;exitDy=0;exitPerimeter=0;" parent="1" source="LQZeExEs7iWXj-Pr253q-19" target="LQZeExEs7iWXj-Pr253q-12" edge="1">
                    <mxGeometry x="0.0241" y="-1" relative="1" as="geometry">
                        <mxPoint as="offset"/>
                    </mxGeometry>
                </mxCell>
                <mxCell id="LQZeExEs7iWXj-Pr253q-5" value="Twin 1" style="ellipse;whiteSpace=wrap;html=1;verticalAlign=top;" parent="1" vertex="1">
                    <mxGeometry x="2794" y="50" width="80" height="80" as="geometry"/>
                </mxCell>
                <mxCell id="LQZeExEs7iWXj-Pr253q-6" value="Twin N" style="ellipse;whiteSpace=wrap;html=1;verticalAlign=top;" parent="1" vertex="1">
                    <mxGeometry x="2804" y="224" width="80" height="80" as="geometry"/>
                </mxCell>
                <mxCell id="LQZeExEs7iWXj-Pr253q-7" style="edgeStyle=none;rounded=0;orthogonalLoop=1;jettySize=auto;html=1;entryX=0;entryY=0.5;entryDx=0;entryDy=0;entryPerimeter=0;labelBackgroundColor=default;startArrow=none;startFill=0;endArrow=classicThin;endFill=1;" parent="1" source="LQZeExEs7iWXj-Pr253q-9" target="LQZeExEs7iWXj-Pr253q-12" edge="1">
                    <mxGeometry relative="1" as="geometry"/>
                </mxCell>
                <mxCell id="LQZeExEs7iWXj-Pr253q-8" style="rounded=0;orthogonalLoop=1;jettySize=auto;html=1;entryX=0;entryY=0.5;entryDx=0;entryDy=0;entryPerimeter=0;fontSize=7;" parent="1" source="LQZeExEs7iWXj-Pr253q-9" target="LQZeExEs7iWXj-Pr253q-14" edge="1">
                    <mxGeometry relative="1" as="geometry"/>
                </mxCell>
                <mxCell id="LQZeExEs7iWXj-Pr253q-9" value="agent" style="shape=process;whiteSpace=wrap;html=1;backgroundOutline=1;" parent="1" vertex="1">
                    <mxGeometry x="2854" y="70" width="80" height="40" as="geometry"/>
                </mxCell>
                <mxCell id="LQZeExEs7iWXj-Pr253q-10" style="edgeStyle=none;rounded=0;orthogonalLoop=1;jettySize=auto;html=1;entryX=0;entryY=0.5;entryDx=0;entryDy=0;entryPerimeter=0;labelBackgroundColor=default;startArrow=none;startFill=0;endArrow=classicThin;endFill=1;" parent="1" source="LQZeExEs7iWXj-Pr253q-11" target="LQZeExEs7iWXj-Pr253q-13" edge="1">
                    <mxGeometry relative="1" as="geometry"/>
                </mxCell>
                <mxCell id="LQZeExEs7iWXj-Pr253q-11" value="agent" style="shape=process;whiteSpace=wrap;html=1;backgroundOutline=1;" parent="1" vertex="1">
                    <mxGeometry x="2864" y="244" width="80" height="40" as="geometry"/>
                </mxCell>
                <mxCell id="LQZeExEs7iWXj-Pr253q-12" value="f1" style="shape=singleArrow;direction=west;whiteSpace=wrap;html=1;arrowWidth=0.588888888888889;arrowSize=0.18000000000000058;" parent="1" vertex="1">
                    <mxGeometry x="2774" y="60" width="50" height="30" as="geometry"/>
                </mxCell>
                <mxCell id="LQZeExEs7iWXj-Pr253q-13" value="fN" style="shape=singleArrow;direction=west;whiteSpace=wrap;html=1;arrowWidth=0.588888888888889;arrowSize=0.18000000000000058;" parent="1" vertex="1">
                    <mxGeometry x="2784" y="249" width="50" height="30" as="geometry"/>
                </mxCell>
                <mxCell id="LQZeExEs7iWXj-Pr253q-14" value="f2" style="shape=singleArrow;direction=west;whiteSpace=wrap;html=1;arrowWidth=0.588888888888889;arrowSize=0.18000000000000058;" parent="1" vertex="1">
                    <mxGeometry x="2774" y="95" width="50" height="30" as="geometry"/>
                </mxCell>
                <mxCell id="LQZeExEs7iWXj-Pr253q-15" value="subscribe" style="edgeStyle=none;rounded=0;orthogonalLoop=1;jettySize=auto;html=1;entryX=1;entryY=0.5;entryDx=0;entryDy=0;entryPerimeter=0;labelBackgroundColor=default;startArrow=classicThin;startFill=1;endArrow=none;endFill=0;" parent="1" source="LQZeExEs7iWXj-Pr253q-19" target="LQZeExEs7iWXj-Pr253q-14" edge="1">
                    <mxGeometry x="0.1022" y="-4" relative="1" as="geometry">
                        <mxPoint as="offset"/>
                        <mxPoint x="2654" y="160" as="sourcePoint"/>
                        <mxPoint x="2784" y="85" as="targetPoint"/>
                    </mxGeometry>
                </mxCell>
                <mxCell id="LQZeExEs7iWXj-Pr253q-16" value="{feed1 metadata}" style="text;html=1;strokeColor=none;fillColor=none;align=center;verticalAlign=middle;whiteSpace=wrap;rounded=0;fontSize=7;" parent="1" vertex="1">
                    <mxGeometry x="2754" y="40" width="60" height="30" as="geometry"/>
                </mxCell>
                <mxCell id="LQZeExEs7iWXj-Pr253q-17" value="{feed2 metadata}" style="text;html=1;strokeColor=none;fillColor=none;align=center;verticalAlign=middle;whiteSpace=wrap;rounded=0;fontSize=7;" parent="1" vertex="1">
                    <mxGeometry x="2764" y="114" width="60" height="30" as="geometry"/>
                </mxCell>
                <mxCell id="LQZeExEs7iWXj-Pr253q-18" value="{feed3 metadata}" style="text;html=1;strokeColor=none;fillColor=none;align=center;verticalAlign=middle;whiteSpace=wrap;rounded=0;fontSize=7;" parent="1" vertex="1">
                    <mxGeometry x="2748" y="269" width="60" height="30" as="geometry"/>
                </mxCell>
                <mxCell id="LQZeExEs7iWXj-Pr253q-19" value="data interaction logic" style="ellipse;shape=umlControl;whiteSpace=wrap;html=1;fontSize=7;" parent="1" vertex="1">
                    <mxGeometry x="2590.5" y="156" width="39" height="40" as="geometry"/>
                </mxCell>
                <mxCell id="LQZeExEs7iWXj-Pr253q-20" value="Fa" style="shape=singleArrow;whiteSpace=wrap;html=1;arrowWidth=0.623809523809524;arrowSize=0.21571428571428497;fillColor=#fff2cc;strokeColor=#d6b656;" parent="1" vertex="1">
                    <mxGeometry x="2708" y="154.5" width="40" height="21" as="geometry"/>
                </mxCell>
                <mxCell id="LQZeExEs7iWXj-Pr253q-21" value="publish" style="edgeStyle=none;rounded=0;orthogonalLoop=1;jettySize=auto;html=1;labelBackgroundColor=#FFF2CC;startArrow=none;startFill=0;endArrow=classicThin;endFill=1;entryX=0;entryY=0.5;entryDx=0;entryDy=0;entryPerimeter=0;exitX=0.962;exitY=0.508;exitDx=0;exitDy=0;exitPerimeter=0;" parent="1" source="LQZeExEs7iWXj-Pr253q-19" target="LQZeExEs7iWXj-Pr253q-20" edge="1">
                    <mxGeometry x="0.2598" y="-5" relative="1" as="geometry">
                        <mxPoint x="2559.488188554329" y="186.30399326591674" as="sourcePoint"/>
                        <mxPoint x="2714" y="185" as="targetPoint"/>
                        <mxPoint as="offset"/>
                    </mxGeometry>
                </mxCell>
                <mxCell id="LQZeExEs7iWXj-Pr253q-22" value="&lt;div style=&quot;text-align: left&quot;&gt;&lt;span&gt;{ &lt;/span&gt;&lt;span&gt;v1: Fa(data1,&lt;/span&gt;&lt;span&gt;&amp;nbsp;data2,&amp;nbsp;&lt;/span&gt;&lt;span&gt;..., dataN&amp;nbsp;&lt;/span&gt;&lt;span&gt;}&lt;/span&gt;&lt;/div&gt;" style="text;html=1;strokeColor=none;fillColor=none;align=center;verticalAlign=middle;whiteSpace=wrap;rounded=0;fontSize=7;" parent="1" vertex="1">
                    <mxGeometry x="2744" y="150" width="120" height="30" as="geometry"/>
                </mxCell>
                <mxCell id="LQZeExEs7iWXj-Pr253q-23" value="{v= data1}" style="text;html=1;strokeColor=none;fillColor=none;align=center;verticalAlign=middle;whiteSpace=wrap;rounded=0;fontSize=7;rotation=-30;" parent="1" vertex="1">
                    <mxGeometry x="2716" y="70" width="60" height="30" as="geometry"/>
                </mxCell>
                <mxCell id="LQZeExEs7iWXj-Pr253q-24" value="{v= data2}" style="text;html=1;strokeColor=none;fillColor=none;align=center;verticalAlign=middle;whiteSpace=wrap;rounded=0;fontSize=7;rotation=-25;" parent="1" vertex="1">
                    <mxGeometry x="2722" y="96" width="60" height="30" as="geometry"/>
                </mxCell>
                <mxCell id="LQZeExEs7iWXj-Pr253q-25" value="{v= dataN}" style="text;html=1;strokeColor=none;fillColor=none;align=center;verticalAlign=middle;whiteSpace=wrap;rounded=0;fontSize=7;rotation=25&#10;;" parent="1" vertex="1">
                    <mxGeometry x="2734" y="234" width="60" height="30" as="geometry"/>
                </mxCell>
                <mxCell id="LQZeExEs7iWXj-Pr253q-26" value="..." style="text;html=1;strokeColor=none;fillColor=none;align=center;verticalAlign=middle;whiteSpace=wrap;rounded=0;fontSize=30;" parent="1" vertex="1">
                    <mxGeometry x="2874" y="154" width="60" height="30" as="geometry"/>
                </mxCell>
                <mxCell id="LQZeExEs7iWXj-Pr253q-27" value="Fm" style="shape=singleArrow;whiteSpace=wrap;html=1;arrowWidth=0.623809523809524;arrowSize=0.21571428571428497;fillColor=#fff2cc;strokeColor=#d6b656;" parent="1" vertex="1">
                    <mxGeometry x="2708" y="196" width="40" height="21" as="geometry"/>
                </mxCell>
                <mxCell id="LQZeExEs7iWXj-Pr253q-28" value="&lt;div style=&quot;text-align: left&quot;&gt;&lt;span&gt;{ &lt;/span&gt;&lt;span&gt;v1: Fm(data1,&lt;/span&gt;&lt;span&gt;&amp;nbsp;data2,&amp;nbsp;&lt;/span&gt;&lt;span&gt;..., dataN&amp;nbsp;&lt;/span&gt;&lt;span&gt;}&lt;/span&gt;&lt;/div&gt;" style="text;html=1;strokeColor=none;fillColor=none;align=center;verticalAlign=middle;whiteSpace=wrap;rounded=0;fontSize=7;" parent="1" vertex="1">
                    <mxGeometry x="2749" y="191.5" width="120" height="30" as="geometry"/>
                </mxCell>
                <mxCell id="LQZeExEs7iWXj-Pr253q-33" value="f1" style="shape=flexArrow;endArrow=classic;html=1;rounded=0;fontSize=11;width=16;endSize=3.25;endWidth=10.75;" parent="1" edge="1">
                    <mxGeometry width="50" height="50" relative="1" as="geometry">
                        <mxPoint x="3004" y="113" as="sourcePoint"/>
                        <mxPoint x="3060" y="113" as="targetPoint"/>
                    </mxGeometry>
                </mxCell>
                <mxCell id="LQZeExEs7iWXj-Pr253q-34" value="f2" style="shape=flexArrow;endArrow=classic;html=1;rounded=0;fontSize=11;width=16;endSize=3.25;endWidth=10.75;" parent="1" edge="1">
                    <mxGeometry width="50" height="50" relative="1" as="geometry">
                        <mxPoint x="3004" y="143.88" as="sourcePoint"/>
                        <mxPoint x="3060" y="143.88" as="targetPoint"/>
                    </mxGeometry>
                </mxCell>
                <mxCell id="LQZeExEs7iWXj-Pr253q-35" value="fN" style="shape=flexArrow;endArrow=classic;html=1;rounded=0;fontSize=11;width=16;endSize=3.25;endWidth=10.75;" parent="1" edge="1">
                    <mxGeometry width="50" height="50" relative="1" as="geometry">
                        <mxPoint x="3004" y="189" as="sourcePoint"/>
                        <mxPoint x="3060" y="189" as="targetPoint"/>
                    </mxGeometry>
                </mxCell>
                <mxCell id="LQZeExEs7iWXj-Pr253q-38" value="Fa" style="shape=flexArrow;endArrow=classic;html=1;rounded=0;fontSize=11;width=16;endSize=3.25;endWidth=10.75;" parent="1" edge="1">
                    <mxGeometry width="50" height="50" relative="1" as="geometry">
                        <mxPoint x="3128" y="151.38" as="sourcePoint"/>
                        <mxPoint x="3184" y="151.38" as="targetPoint"/>
                    </mxGeometry>
                </mxCell>
                <mxCell id="LQZeExEs7iWXj-Pr253q-37" value="..." style="text;html=1;strokeColor=none;fillColor=none;align=center;verticalAlign=middle;whiteSpace=wrap;rounded=0;fontSize=30;" parent="1" vertex="1">
                    <mxGeometry x="3000" y="143" width="60" height="30" as="geometry"/>
                </mxCell>
                <mxCell id="LQZeExEs7iWXj-Pr253q-29" value="Fa" style="rounded=1;whiteSpace=wrap;html=1;fontSize=30;" parent="1" vertex="1">
                    <mxGeometry x="3060" y="104" width="70" height="95" as="geometry"/>
                </mxCell>
                <mxCell id="LQZeExEs7iWXj-Pr253q-39" value="publish" style="edgeStyle=none;rounded=0;orthogonalLoop=1;jettySize=auto;html=1;labelBackgroundColor=#FFF2CC;startArrow=none;startFill=0;endArrow=classicThin;endFill=1;exitX=0.999;exitY=0.581;exitDx=0;exitDy=0;exitPerimeter=0;" parent="1" source="LQZeExEs7iWXj-Pr253q-19" target="LQZeExEs7iWXj-Pr253q-27" edge="1">
                    <mxGeometry x="0.1552" y="3" relative="1" as="geometry">
                        <mxPoint x="2630" y="190" as="sourcePoint"/>
                        <mxPoint x="2718" y="174.9999999999999" as="targetPoint"/>
                        <mxPoint as="offset"/>
                    </mxGeometry>
                </mxCell>
                <mxCell id="LQZeExEs7iWXj-Pr253q-40" value="find and bind logic" style="ellipse;shape=umlControl;whiteSpace=wrap;html=1;fontSize=7;" parent="1" vertex="1">
                    <mxGeometry x="2590.5" y="210" width="39" height="40" as="geometry"/>
                </mxCell>
                <mxCell id="LQZeExEs7iWXj-Pr253q-52" style="edgeStyle=orthogonalEdgeStyle;rounded=0;orthogonalLoop=1;jettySize=auto;html=1;fontSize=9;startArrow=classic;startFill=1;endArrow=classic;endFill=1;" parent="1" source="LQZeExEs7iWXj-Pr253q-41" target="LQZeExEs7iWXj-Pr253q-50" edge="1">
                    <mxGeometry relative="1" as="geometry">
                        <mxPoint x="3020" y="550" as="targetPoint"/>
                        <Array as="points">
                            <mxPoint x="2940" y="419"/>
                            <mxPoint x="2940" y="540"/>
                        </Array>
                    </mxGeometry>
                </mxCell>
                <mxCell id="LQZeExEs7iWXj-Pr253q-41" value="&amp;lt;&amp;lt;asynchronous&amp;gt;&amp;gt;&lt;br&gt;&lt;b&gt;System 1&lt;/b&gt;" style="rounded=1;whiteSpace=wrap;html=1;fontSize=11;fillColor=#ffe6cc;strokeColor=#d79b00;" parent="1" vertex="1">
                    <mxGeometry x="2654" y="389" width="120" height="60" as="geometry"/>
                </mxCell>
                <mxCell id="LQZeExEs7iWXj-Pr253q-53" style="edgeStyle=orthogonalEdgeStyle;rounded=0;orthogonalLoop=1;jettySize=auto;html=1;fontSize=9;" parent="1" source="LQZeExEs7iWXj-Pr253q-42" target="LQZeExEs7iWXj-Pr253q-50" edge="1">
                    <mxGeometry relative="1" as="geometry">
                        <Array as="points">
                            <mxPoint x="2640" y="650"/>
                            <mxPoint x="2930" y="650"/>
                            <mxPoint x="2930" y="570"/>
                        </Array>
                    </mxGeometry>
                </mxCell>
                <mxCell id="LQZeExEs7iWXj-Pr253q-42" value="&amp;lt;&amp;lt;REST API&amp;gt;&amp;gt;&lt;br&gt;&lt;b&gt;System 2&lt;/b&gt;" style="rounded=1;whiteSpace=wrap;html=1;fontSize=11;fillColor=#fff2cc;strokeColor=#d6b656;" parent="1" vertex="1">
                    <mxGeometry x="2580" y="574" width="120" height="60" as="geometry"/>
                </mxCell>
                <mxCell id="LQZeExEs7iWXj-Pr253q-51" style="edgeStyle=orthogonalEdgeStyle;rounded=0;orthogonalLoop=1;jettySize=auto;html=1;fontSize=9;" parent="1" source="LQZeExEs7iWXj-Pr253q-43" target="LQZeExEs7iWXj-Pr253q-50" edge="1">
                    <mxGeometry relative="1" as="geometry">
                        <Array as="points">
                            <mxPoint x="2844" y="557"/>
                        </Array>
                    </mxGeometry>
                </mxCell>
                <mxCell id="LQZeExEs7iWXj-Pr253q-43" value="&amp;lt;&amp;lt;REST API&amp;gt;&amp;gt;&lt;br&gt;&lt;b&gt;System 3&lt;/b&gt;" style="rounded=1;whiteSpace=wrap;html=1;fontSize=11;fillColor=#e1d5e7;strokeColor=#9673a6;" parent="1" vertex="1">
                    <mxGeometry x="2784" y="470" width="120" height="60" as="geometry"/>
                </mxCell>
                <mxCell id="LQZeExEs7iWXj-Pr253q-44" value="&lt;font style=&quot;font-size: 9px&quot;&gt;&lt;font color=&quot;#ff3333&quot;&gt;asset A data&lt;/font&gt;&lt;br&gt;&lt;font color=&quot;#3399ff&quot;&gt;asset B data&lt;br&gt;&lt;/font&gt;&lt;font color=&quot;#00cc00&quot;&gt;asset C data&lt;/font&gt;&lt;br&gt;&lt;/font&gt;" style="shape=cylinder3;whiteSpace=wrap;html=1;boundedLbl=1;backgroundOutline=1;size=9.230769230769226;fontSize=11;fillColor=#ffe6cc;strokeColor=#d79b00;" parent="1" vertex="1">
                    <mxGeometry x="2610" y="430" width="60" height="80" as="geometry"/>
                </mxCell>
                <mxCell id="LQZeExEs7iWXj-Pr253q-48" value="&lt;font style=&quot;font-size: 9px&quot;&gt;&lt;font color=&quot;#ff3333&quot;&gt;asset A data&lt;br&gt;&lt;/font&gt;&lt;font color=&quot;#3399ff&quot;&gt;asset B data&lt;/font&gt;&lt;br&gt;&lt;/font&gt;" style="shape=cylinder3;whiteSpace=wrap;html=1;boundedLbl=1;backgroundOutline=1;size=9.230769230769226;fontSize=11;fillColor=#e1d5e7;strokeColor=#9673a6;" parent="1" vertex="1">
                    <mxGeometry x="2744" y="502" width="60" height="80" as="geometry"/>
                </mxCell>
                <mxCell id="LQZeExEs7iWXj-Pr253q-49" value="&lt;font style=&quot;font-size: 9px&quot;&gt;&lt;font color=&quot;#3399ff&quot;&gt;asset B data&lt;/font&gt;&lt;br&gt;&lt;font color=&quot;#66cc00&quot;&gt;asset C data&lt;/font&gt;&lt;br&gt;&lt;/font&gt;" style="shape=cylinder3;whiteSpace=wrap;html=1;boundedLbl=1;backgroundOutline=1;size=9.230769230769226;fontSize=11;fillColor=#fff2cc;strokeColor=#d6b656;" parent="1" vertex="1">
                    <mxGeometry x="2550" y="611" width="60" height="80" as="geometry"/>
                </mxCell>
                <mxCell id="LQZeExEs7iWXj-Pr253q-57" style="rounded=0;orthogonalLoop=1;jettySize=auto;html=1;fontSize=9;fontColor=#66CC00;startArrow=none;startFill=0;endArrow=none;endFill=0;" parent="1" source="LQZeExEs7iWXj-Pr253q-50" target="LQZeExEs7iWXj-Pr253q-54" edge="1">
                    <mxGeometry relative="1" as="geometry"/>
                </mxCell>
                <mxCell id="LQZeExEs7iWXj-Pr253q-58" style="edgeStyle=none;rounded=0;orthogonalLoop=1;jettySize=auto;html=1;fontSize=9;fontColor=#66CC00;startArrow=none;startFill=0;endArrow=none;endFill=0;" parent="1" source="LQZeExEs7iWXj-Pr253q-50" target="LQZeExEs7iWXj-Pr253q-55" edge="1">
                    <mxGeometry relative="1" as="geometry"/>
                </mxCell>
                <mxCell id="LQZeExEs7iWXj-Pr253q-59" style="edgeStyle=none;rounded=0;orthogonalLoop=1;jettySize=auto;html=1;fontSize=9;fontColor=#66CC00;startArrow=none;startFill=0;endArrow=none;endFill=0;" parent="1" source="LQZeExEs7iWXj-Pr253q-50" target="LQZeExEs7iWXj-Pr253q-56" edge="1">
                    <mxGeometry relative="1" as="geometry"/>
                </mxCell>
                <mxCell id="LQZeExEs7iWXj-Pr253q-50" value="&amp;lt;&amp;lt;agent&amp;gt;&amp;gt;&lt;br&gt;connector" style="shape=process;whiteSpace=wrap;html=1;backgroundOutline=1;fontSize=9;fillColor=#d5e8d4;strokeColor=#82b366;" parent="1" vertex="1">
                    <mxGeometry x="2960" y="526.5" width="120" height="60" as="geometry"/>
                </mxCell>
                <mxCell id="LQZeExEs7iWXj-Pr253q-54" value="&lt;font color=&quot;#000000&quot; style=&quot;font-size: 12px&quot;&gt;Twin A&lt;/font&gt;" style="ellipse;whiteSpace=wrap;html=1;aspect=fixed;fontSize=9;fontColor=#66CC00;fillColor=#FF3333;" parent="1" vertex="1">
                    <mxGeometry x="3110" y="433.5" width="56.5" height="56.5" as="geometry"/>
                </mxCell>
                <mxCell id="LQZeExEs7iWXj-Pr253q-55" value="&lt;span style=&quot;color: rgb(0 , 0 , 0) ; font-size: 12px&quot;&gt;Twin B&lt;/span&gt;" style="ellipse;whiteSpace=wrap;html=1;aspect=fixed;fontSize=9;fontColor=#66CC00;fillColor=#3399FF;" parent="1" vertex="1">
                    <mxGeometry x="3150" y="525" width="56.5" height="56.5" as="geometry"/>
                </mxCell>
                <mxCell id="LQZeExEs7iWXj-Pr253q-56" value="Twin C" style="ellipse;whiteSpace=wrap;html=1;aspect=fixed;fontSize=12;fontColor=#000000;fillColor=#00CC00;" parent="1" vertex="1">
                    <mxGeometry x="3110" y="620.25" width="56.5" height="56.5" as="geometry"/>
                </mxCell>
                <mxCell id="D7zJYAnAHMYaYhCPeeGG-6" style="rounded=0;orthogonalLoop=1;jettySize=auto;html=1;endArrow=none;endFill=0;" parent="1" source="D7zJYAnAHMYaYhCPeeGG-2" target="D7zJYAnAHMYaYhCPeeGG-5" edge="1">
                    <mxGeometry relative="1" as="geometry"/>
                </mxCell>
                <mxCell id="D7zJYAnAHMYaYhCPeeGG-2" value="agent" style="shape=process;whiteSpace=wrap;html=1;backgroundOutline=1;" parent="1" vertex="1">
                    <mxGeometry x="2564" y="732" width="120" height="60" as="geometry"/>
                </mxCell>
                <mxCell id="D7zJYAnAHMYaYhCPeeGG-3" value="agent keys" style="shape=note;whiteSpace=wrap;html=1;backgroundOutline=1;darkOpacity=0.05;size=15;" parent="1" vertex="1">
                    <mxGeometry x="2533.5" y="774" width="50" height="60" as="geometry"/>
                </mxCell>
                <mxCell id="D7zJYAnAHMYaYhCPeeGG-4" value="twin keys" style="shape=note;whiteSpace=wrap;html=1;backgroundOutline=1;darkOpacity=0.05;size=15;" parent="1" vertex="1">
                    <mxGeometry x="2597" y="774" width="50" height="60" as="geometry"/>
                </mxCell>
                <mxCell id="D7zJYAnAHMYaYhCPeeGG-5" value="twin" style="ellipse;whiteSpace=wrap;html=1;aspect=fixed;" parent="1" vertex="1">
                    <mxGeometry x="2722" y="722" width="80" height="80" as="geometry"/>
                </mxCell>
                <mxCell id="D7zJYAnAHMYaYhCPeeGG-12" style="rounded=0;orthogonalLoop=1;jettySize=auto;html=1;endArrow=none;endFill=0;" parent="1" source="D7zJYAnAHMYaYhCPeeGG-13" target="D7zJYAnAHMYaYhCPeeGG-16" edge="1">
                    <mxGeometry relative="1" as="geometry"/>
                </mxCell>
                <mxCell id="D7zJYAnAHMYaYhCPeeGG-23" style="edgeStyle=none;rounded=0;orthogonalLoop=1;jettySize=auto;html=1;endArrow=none;endFill=0;" parent="1" source="D7zJYAnAHMYaYhCPeeGG-13" target="D7zJYAnAHMYaYhCPeeGG-20" edge="1">
                    <mxGeometry relative="1" as="geometry"/>
                </mxCell>
                <mxCell id="D7zJYAnAHMYaYhCPeeGG-24" style="edgeStyle=none;rounded=0;orthogonalLoop=1;jettySize=auto;html=1;endArrow=none;endFill=0;" parent="1" source="D7zJYAnAHMYaYhCPeeGG-13" target="D7zJYAnAHMYaYhCPeeGG-22" edge="1">
                    <mxGeometry relative="1" as="geometry"/>
                </mxCell>
                <mxCell id="D7zJYAnAHMYaYhCPeeGG-25" style="edgeStyle=none;rounded=0;orthogonalLoop=1;jettySize=auto;html=1;endArrow=none;endFill=0;" parent="1" source="D7zJYAnAHMYaYhCPeeGG-13" target="D7zJYAnAHMYaYhCPeeGG-21" edge="1">
                    <mxGeometry relative="1" as="geometry"/>
                </mxCell>
                <mxCell id="D7zJYAnAHMYaYhCPeeGG-13" value="agent" style="shape=process;whiteSpace=wrap;html=1;backgroundOutline=1;" parent="1" vertex="1">
                    <mxGeometry x="2207.25" y="1006.5" width="120" height="60" as="geometry"/>
                </mxCell>
                <mxCell id="D7zJYAnAHMYaYhCPeeGG-14" value="agent keys" style="shape=note;whiteSpace=wrap;html=1;backgroundOutline=1;darkOpacity=0.05;size=15;" parent="1" vertex="1">
                    <mxGeometry x="2176.75" y="1048.5" width="50" height="60" as="geometry"/>
                </mxCell>
                <mxCell id="D7zJYAnAHMYaYhCPeeGG-15" value="twin keys" style="shape=note;whiteSpace=wrap;html=1;backgroundOutline=1;darkOpacity=0.05;size=15;" parent="1" vertex="1">
                    <mxGeometry x="2240.25" y="1048.5" width="50" height="60" as="geometry"/>
                </mxCell>
                <mxCell id="D7zJYAnAHMYaYhCPeeGG-16" value="twin" style="ellipse;whiteSpace=wrap;html=1;aspect=fixed;" parent="1" vertex="1">
                    <mxGeometry x="2353.25" y="950" width="46" height="46" as="geometry"/>
                </mxCell>
                <mxCell id="D7zJYAnAHMYaYhCPeeGG-17" value="twin keys" style="shape=note;whiteSpace=wrap;html=1;backgroundOutline=1;darkOpacity=0.05;size=15;" parent="1" vertex="1">
                    <mxGeometry x="2250.25" y="1058.5" width="50" height="60" as="geometry"/>
                </mxCell>
                <mxCell id="D7zJYAnAHMYaYhCPeeGG-18" value="twin keys" style="shape=note;whiteSpace=wrap;html=1;backgroundOutline=1;darkOpacity=0.05;size=15;" parent="1" vertex="1">
                    <mxGeometry x="2260.25" y="1068.5" width="50" height="60" as="geometry"/>
                </mxCell>
                <mxCell id="D7zJYAnAHMYaYhCPeeGG-19" value="twin keys" style="shape=note;whiteSpace=wrap;html=1;backgroundOutline=1;darkOpacity=0.05;size=15;" parent="1" vertex="1">
                    <mxGeometry x="2270.25" y="1078.5" width="50" height="60" as="geometry"/>
                </mxCell>
                <mxCell id="D7zJYAnAHMYaYhCPeeGG-20" value="twin" style="ellipse;whiteSpace=wrap;html=1;aspect=fixed;" parent="1" vertex="1">
                    <mxGeometry x="2399.25" y="984.5" width="46" height="46" as="geometry"/>
                </mxCell>
                <mxCell id="D7zJYAnAHMYaYhCPeeGG-21" value="twin" style="ellipse;whiteSpace=wrap;html=1;aspect=fixed;" parent="1" vertex="1">
                    <mxGeometry x="2399.25" y="1046.5" width="46" height="46" as="geometry"/>
                </mxCell>
                <mxCell id="D7zJYAnAHMYaYhCPeeGG-22" value="twin" style="ellipse;whiteSpace=wrap;html=1;aspect=fixed;" parent="1" vertex="1">
                    <mxGeometry x="2355.25" y="1092.5" width="46" height="46" as="geometry"/>
                </mxCell>
                <mxCell id="D7zJYAnAHMYaYhCPeeGG-33" style="edgeStyle=none;rounded=0;orthogonalLoop=1;jettySize=auto;html=1;endArrow=none;endFill=0;" parent="1" source="D7zJYAnAHMYaYhCPeeGG-27" target="D7zJYAnAHMYaYhCPeeGG-30" edge="1">
                    <mxGeometry relative="1" as="geometry"/>
                </mxCell>
                <mxCell id="D7zJYAnAHMYaYhCPeeGG-36" style="edgeStyle=none;rounded=0;orthogonalLoop=1;jettySize=auto;html=1;endArrow=none;endFill=0;" parent="1" source="D7zJYAnAHMYaYhCPeeGG-27" target="D7zJYAnAHMYaYhCPeeGG-34" edge="1">
                    <mxGeometry relative="1" as="geometry"/>
                </mxCell>
                <mxCell id="D7zJYAnAHMYaYhCPeeGG-27" value="agent" style="shape=process;whiteSpace=wrap;html=1;backgroundOutline=1;" parent="1" vertex="1">
                    <mxGeometry x="3010" y="900.5" width="120" height="60" as="geometry"/>
                </mxCell>
                <mxCell id="D7zJYAnAHMYaYhCPeeGG-28" value="agent keys" style="shape=note;whiteSpace=wrap;html=1;backgroundOutline=1;darkOpacity=0.05;size=15;" parent="1" vertex="1">
                    <mxGeometry x="2874" y="864" width="50" height="60" as="geometry"/>
                </mxCell>
                <mxCell id="D7zJYAnAHMYaYhCPeeGG-29" value="twin keys" style="shape=note;whiteSpace=wrap;html=1;backgroundOutline=1;darkOpacity=0.05;size=15;" parent="1" vertex="1">
                    <mxGeometry x="2930" y="863.5" width="50" height="60" as="geometry"/>
                </mxCell>
                <mxCell id="D7zJYAnAHMYaYhCPeeGG-30" value="twin" style="ellipse;whiteSpace=wrap;html=1;aspect=fixed;" parent="1" vertex="1">
                    <mxGeometry x="3200" y="834" width="80" height="80" as="geometry"/>
                </mxCell>
                <mxCell id="D7zJYAnAHMYaYhCPeeGG-32" style="edgeStyle=none;rounded=0;orthogonalLoop=1;jettySize=auto;html=1;endArrow=none;endFill=0;" parent="1" source="D7zJYAnAHMYaYhCPeeGG-31" target="D7zJYAnAHMYaYhCPeeGG-30" edge="1">
                    <mxGeometry relative="1" as="geometry"/>
                </mxCell>
                <mxCell id="D7zJYAnAHMYaYhCPeeGG-37" style="edgeStyle=none;rounded=0;orthogonalLoop=1;jettySize=auto;html=1;endArrow=none;endFill=0;dashed=1;" parent="1" source="D7zJYAnAHMYaYhCPeeGG-31" target="D7zJYAnAHMYaYhCPeeGG-27" edge="1">
                    <mxGeometry relative="1" as="geometry"/>
                </mxCell>
                <mxCell id="D7zJYAnAHMYaYhCPeeGG-31" value="agent" style="shape=process;whiteSpace=wrap;html=1;backgroundOutline=1;" parent="1" vertex="1">
                    <mxGeometry x="3010" y="781" width="120" height="60" as="geometry"/>
                </mxCell>
                <mxCell id="D7zJYAnAHMYaYhCPeeGG-35" value="" style="endArrow=none;html=1;rounded=0;" parent="1" source="D7zJYAnAHMYaYhCPeeGG-34" target="D7zJYAnAHMYaYhCPeeGG-31" edge="1">
                    <mxGeometry width="50" height="50" relative="1" as="geometry">
                        <mxPoint x="2820" y="1049" as="sourcePoint"/>
                        <mxPoint x="2870" y="999" as="targetPoint"/>
                    </mxGeometry>
                </mxCell>
                <mxCell id="D7zJYAnAHMYaYhCPeeGG-38" style="rounded=0;orthogonalLoop=1;jettySize=auto;html=1;endArrow=none;endFill=0;" parent="1" source="D7zJYAnAHMYaYhCPeeGG-39" target="D7zJYAnAHMYaYhCPeeGG-42" edge="1">
                    <mxGeometry relative="1" as="geometry"/>
                </mxCell>
                <mxCell id="D7zJYAnAHMYaYhCPeeGG-39" value="agent 1" style="shape=process;whiteSpace=wrap;html=1;backgroundOutline=1;" parent="1" vertex="1">
                    <mxGeometry x="2538" y="898" width="120" height="60" as="geometry"/>
                </mxCell>
                <mxCell id="D7zJYAnAHMYaYhCPeeGG-40" value="agent 1 keys" style="shape=note;whiteSpace=wrap;html=1;backgroundOutline=1;darkOpacity=0.05;size=15;" parent="1" vertex="1">
                    <mxGeometry x="2507.5" y="940" width="50" height="60" as="geometry"/>
                </mxCell>
                <mxCell id="D7zJYAnAHMYaYhCPeeGG-41" value="twin keys" style="shape=note;whiteSpace=wrap;html=1;backgroundOutline=1;darkOpacity=0.05;size=15;" parent="1" vertex="1">
                    <mxGeometry x="2571" y="940" width="50" height="60" as="geometry"/>
                </mxCell>
                <mxCell id="D7zJYAnAHMYaYhCPeeGG-42" value="twin" style="ellipse;whiteSpace=wrap;html=1;aspect=fixed;" parent="1" vertex="1">
                    <mxGeometry x="2738" y="914" width="80" height="80" as="geometry"/>
                </mxCell>
                <mxCell id="D7zJYAnAHMYaYhCPeeGG-45" style="edgeStyle=none;rounded=0;orthogonalLoop=1;jettySize=auto;html=1;endArrow=none;endFill=0;" parent="1" source="D7zJYAnAHMYaYhCPeeGG-43" target="D7zJYAnAHMYaYhCPeeGG-42" edge="1">
                    <mxGeometry relative="1" as="geometry"/>
                </mxCell>
                <mxCell id="D7zJYAnAHMYaYhCPeeGG-48" value="request&lt;br&gt;control" style="edgeStyle=none;rounded=0;orthogonalLoop=1;jettySize=auto;html=1;entryX=0.5;entryY=1;entryDx=0;entryDy=0;endArrow=none;endFill=0;" parent="1" source="D7zJYAnAHMYaYhCPeeGG-43" target="D7zJYAnAHMYaYhCPeeGG-47" edge="1">
                    <mxGeometry relative="1" as="geometry"/>
                </mxCell>
                <mxCell id="D7zJYAnAHMYaYhCPeeGG-43" value="agent 2" style="shape=process;whiteSpace=wrap;html=1;backgroundOutline=1;" parent="1" vertex="1">
                    <mxGeometry x="2580" y="1027.5" width="120" height="60" as="geometry"/>
                </mxCell>
                <mxCell id="D7zJYAnAHMYaYhCPeeGG-44" value="agent 2 keys" style="shape=note;whiteSpace=wrap;html=1;backgroundOutline=1;darkOpacity=0.05;size=15;" parent="1" vertex="1">
                    <mxGeometry x="2549.5" y="1069.5" width="50" height="60" as="geometry"/>
                </mxCell>
                <mxCell id="D7zJYAnAHMYaYhCPeeGG-47" value="API" style="ellipse;whiteSpace=wrap;html=1;aspect=fixed;" parent="1" vertex="1">
                    <mxGeometry x="2640" y="940" width="30" height="30" as="geometry"/>
                </mxCell>
                <mxCell id="D7zJYAnAHMYaYhCPeeGG-56" style="edgeStyle=none;rounded=0;orthogonalLoop=1;jettySize=auto;html=1;endArrow=none;endFill=0;" parent="1" source="D7zJYAnAHMYaYhCPeeGG-49" target="D7zJYAnAHMYaYhCPeeGG-50" edge="1">
                    <mxGeometry relative="1" as="geometry"/>
                </mxCell>
                <mxCell id="D7zJYAnAHMYaYhCPeeGG-58" style="edgeStyle=none;rounded=0;orthogonalLoop=1;jettySize=auto;html=1;endArrow=none;endFill=0;" parent="1" source="D7zJYAnAHMYaYhCPeeGG-49" target="D7zJYAnAHMYaYhCPeeGG-51" edge="1">
                    <mxGeometry relative="1" as="geometry"/>
                </mxCell>
                <mxCell id="D7zJYAnAHMYaYhCPeeGG-59" style="edgeStyle=none;rounded=0;orthogonalLoop=1;jettySize=auto;html=1;endArrow=none;endFill=0;" parent="1" source="D7zJYAnAHMYaYhCPeeGG-49" target="D7zJYAnAHMYaYhCPeeGG-54" edge="1">
                    <mxGeometry relative="1" as="geometry"/>
                </mxCell>
                <mxCell id="D7zJYAnAHMYaYhCPeeGG-49" value="&lt;font color=&quot;#000000&quot; style=&quot;font-size: 12px&quot;&gt;Hub&lt;/font&gt;" style="ellipse;whiteSpace=wrap;html=1;aspect=fixed;fontSize=9;fillColor=#d5e8d4;strokeColor=#82b366;" parent="1" vertex="1">
                    <mxGeometry x="3420" y="276" width="56.5" height="56.5" as="geometry"/>
                </mxCell>
                <mxCell id="D7zJYAnAHMYaYhCPeeGG-50" value="" style="ellipse;whiteSpace=wrap;html=1;aspect=fixed;fillColor=#ffe6cc;strokeColor=#d79b00;" parent="1" vertex="1">
                    <mxGeometry x="3350" y="214" width="30" height="30" as="geometry"/>
                </mxCell>
                <mxCell id="D7zJYAnAHMYaYhCPeeGG-51" value="" style="ellipse;whiteSpace=wrap;html=1;aspect=fixed;fillColor=#fff2cc;strokeColor=#d6b656;" parent="1" vertex="1">
                    <mxGeometry x="3510" y="211" width="30" height="30" as="geometry"/>
                </mxCell>
                <mxCell id="D7zJYAnAHMYaYhCPeeGG-52" value="" style="ellipse;whiteSpace=wrap;html=1;aspect=fixed;fillColor=#ffe6cc;strokeColor=#d79b00;" parent="1" vertex="1">
                    <mxGeometry x="3420" y="204" width="30" height="30" as="geometry"/>
                </mxCell>
                <mxCell id="D7zJYAnAHMYaYhCPeeGG-53" value="" style="ellipse;whiteSpace=wrap;html=1;aspect=fixed;fillColor=#dae8fc;strokeColor=#6c8ebf;" parent="1" vertex="1">
                    <mxGeometry x="3340" y="336" width="30" height="30" as="geometry"/>
                </mxCell>
                <mxCell id="D7zJYAnAHMYaYhCPeeGG-54" value="" style="ellipse;whiteSpace=wrap;html=1;aspect=fixed;fillColor=#dae8fc;strokeColor=#6c8ebf;" parent="1" vertex="1">
                    <mxGeometry x="3430" y="415" width="30" height="30" as="geometry"/>
                </mxCell>
                <mxCell id="D7zJYAnAHMYaYhCPeeGG-55" value="" style="ellipse;whiteSpace=wrap;html=1;aspect=fixed;fillColor=#fff2cc;strokeColor=#d6b656;" parent="1" vertex="1">
                    <mxGeometry x="3550" y="341.5" width="30" height="30" as="geometry"/>
                </mxCell>
                <mxCell id="D7zJYAnAHMYaYhCPeeGG-60" style="edgeStyle=none;rounded=0;orthogonalLoop=1;jettySize=auto;html=1;endArrow=none;endFill=0;" parent="1" source="D7zJYAnAHMYaYhCPeeGG-63" target="D7zJYAnAHMYaYhCPeeGG-64" edge="1">
                    <mxGeometry relative="1" as="geometry"/>
                </mxCell>
                <mxCell id="D7zJYAnAHMYaYhCPeeGG-61" style="edgeStyle=none;rounded=0;orthogonalLoop=1;jettySize=auto;html=1;endArrow=none;endFill=0;" parent="1" source="D7zJYAnAHMYaYhCPeeGG-63" target="D7zJYAnAHMYaYhCPeeGG-69" edge="1">
                    <mxGeometry relative="1" as="geometry"/>
                </mxCell>
                <mxCell id="D7zJYAnAHMYaYhCPeeGG-62" style="edgeStyle=none;rounded=0;orthogonalLoop=1;jettySize=auto;html=1;endArrow=none;endFill=0;" parent="1" source="D7zJYAnAHMYaYhCPeeGG-63" target="D7zJYAnAHMYaYhCPeeGG-67" edge="1">
                    <mxGeometry relative="1" as="geometry"/>
                </mxCell>
                <mxCell id="D7zJYAnAHMYaYhCPeeGG-63" value="&lt;font color=&quot;#000000&quot; style=&quot;font-size: 12px&quot;&gt;Hub&lt;/font&gt;" style="ellipse;whiteSpace=wrap;html=1;aspect=fixed;fontSize=9;fillColor=#d5e8d4;strokeColor=#82b366;" parent="1" vertex="1">
                    <mxGeometry x="3750" y="271" width="56.5" height="56.5" as="geometry"/>
                </mxCell>
                <mxCell id="D7zJYAnAHMYaYhCPeeGG-64" value="" style="ellipse;whiteSpace=wrap;html=1;aspect=fixed;fillColor=#ffe6cc;strokeColor=#d79b00;" parent="1" vertex="1">
                    <mxGeometry x="3680" y="209" width="30" height="30" as="geometry"/>
                </mxCell>
                <mxCell id="D7zJYAnAHMYaYhCPeeGG-65" value="" style="ellipse;whiteSpace=wrap;html=1;aspect=fixed;fillColor=#fff2cc;strokeColor=#d6b656;" parent="1" vertex="1">
                    <mxGeometry x="3840" y="206" width="30" height="30" as="geometry"/>
                </mxCell>
                <mxCell id="D7zJYAnAHMYaYhCPeeGG-66" value="" style="ellipse;whiteSpace=wrap;html=1;aspect=fixed;fillColor=#ffe6cc;strokeColor=#d79b00;" parent="1" vertex="1">
                    <mxGeometry x="3750" y="199" width="30" height="30" as="geometry"/>
                </mxCell>
                <mxCell id="D7zJYAnAHMYaYhCPeeGG-67" value="" style="ellipse;whiteSpace=wrap;html=1;aspect=fixed;fillColor=#dae8fc;strokeColor=#6c8ebf;" parent="1" vertex="1">
                    <mxGeometry x="3670" y="331" width="30" height="30" as="geometry"/>
                </mxCell>
                <mxCell id="D7zJYAnAHMYaYhCPeeGG-68" value="" style="ellipse;whiteSpace=wrap;html=1;aspect=fixed;fillColor=#dae8fc;strokeColor=#6c8ebf;" parent="1" vertex="1">
                    <mxGeometry x="3760" y="410" width="30" height="30" as="geometry"/>
                </mxCell>
                <mxCell id="D7zJYAnAHMYaYhCPeeGG-69" value="" style="ellipse;whiteSpace=wrap;html=1;aspect=fixed;fillColor=#fff2cc;strokeColor=#d6b656;" parent="1" vertex="1">
                    <mxGeometry x="3880" y="336.5" width="30" height="30" as="geometry"/>
                </mxCell>
                <mxCell id="D7zJYAnAHMYaYhCPeeGG-70" style="edgeStyle=none;rounded=0;orthogonalLoop=1;jettySize=auto;html=1;endArrow=none;endFill=0;entryX=0.5;entryY=0;entryDx=0;entryDy=0;" parent="1" source="D7zJYAnAHMYaYhCPeeGG-73" target="D7zJYAnAHMYaYhCPeeGG-78" edge="1">
                    <mxGeometry relative="1" as="geometry"/>
                </mxCell>
                <mxCell id="D7zJYAnAHMYaYhCPeeGG-71" style="edgeStyle=none;rounded=0;orthogonalLoop=1;jettySize=auto;html=1;endArrow=none;endFill=0;" parent="1" source="D7zJYAnAHMYaYhCPeeGG-73" target="D7zJYAnAHMYaYhCPeeGG-76" edge="1">
                    <mxGeometry relative="1" as="geometry"/>
                </mxCell>
                <mxCell id="D7zJYAnAHMYaYhCPeeGG-72" style="edgeStyle=none;rounded=0;orthogonalLoop=1;jettySize=auto;html=1;endArrow=none;endFill=0;" parent="1" source="D7zJYAnAHMYaYhCPeeGG-73" target="D7zJYAnAHMYaYhCPeeGG-77" edge="1">
                    <mxGeometry relative="1" as="geometry"/>
                </mxCell>
                <mxCell id="D7zJYAnAHMYaYhCPeeGG-73" value="&lt;font color=&quot;#000000&quot; style=&quot;font-size: 12px&quot;&gt;Hub&lt;/font&gt;" style="ellipse;whiteSpace=wrap;html=1;aspect=fixed;fontSize=9;fillColor=#d5e8d4;strokeColor=#82b366;" parent="1" vertex="1">
                    <mxGeometry x="4080" y="273" width="56.5" height="56.5" as="geometry"/>
                </mxCell>
                <mxCell id="D7zJYAnAHMYaYhCPeeGG-74" value="" style="ellipse;whiteSpace=wrap;html=1;aspect=fixed;fillColor=#ffe6cc;strokeColor=#d79b00;" parent="1" vertex="1">
                    <mxGeometry x="4010" y="211" width="30" height="30" as="geometry"/>
                </mxCell>
                <mxCell id="D7zJYAnAHMYaYhCPeeGG-75" value="" style="ellipse;whiteSpace=wrap;html=1;aspect=fixed;fillColor=#fff2cc;strokeColor=#d6b656;" parent="1" vertex="1">
                    <mxGeometry x="4170" y="208" width="30" height="30" as="geometry"/>
                </mxCell>
                <mxCell id="D7zJYAnAHMYaYhCPeeGG-76" value="" style="ellipse;whiteSpace=wrap;html=1;aspect=fixed;fillColor=#ffe6cc;strokeColor=#d79b00;" parent="1" vertex="1">
                    <mxGeometry x="4080" y="201" width="30" height="30" as="geometry"/>
                </mxCell>
                <mxCell id="D7zJYAnAHMYaYhCPeeGG-77" value="" style="ellipse;whiteSpace=wrap;html=1;aspect=fixed;fillColor=#dae8fc;strokeColor=#6c8ebf;" parent="1" vertex="1">
                    <mxGeometry x="4000" y="333" width="30" height="30" as="geometry"/>
                </mxCell>
                <mxCell id="D7zJYAnAHMYaYhCPeeGG-78" value="" style="ellipse;whiteSpace=wrap;html=1;aspect=fixed;fillColor=#dae8fc;strokeColor=#6c8ebf;" parent="1" vertex="1">
                    <mxGeometry x="4090" y="412" width="30" height="30" as="geometry"/>
                </mxCell>
                <mxCell id="D7zJYAnAHMYaYhCPeeGG-79" value="" style="ellipse;whiteSpace=wrap;html=1;aspect=fixed;fillColor=#fff2cc;strokeColor=#d6b656;" parent="1" vertex="1">
                    <mxGeometry x="4210" y="338.5" width="30" height="30" as="geometry"/>
                </mxCell>
                <mxCell id="D7zJYAnAHMYaYhCPeeGG-80" value="time=0, location=x" style="text;html=1;strokeColor=none;fillColor=none;align=center;verticalAlign=middle;whiteSpace=wrap;rounded=0;" parent="1" vertex="1">
                    <mxGeometry x="3400" y="470" width="60" height="30" as="geometry"/>
                </mxCell>
                <mxCell id="D7zJYAnAHMYaYhCPeeGG-81" value="time=1, location=y" style="text;html=1;strokeColor=none;fillColor=none;align=center;verticalAlign=middle;whiteSpace=wrap;rounded=0;" parent="1" vertex="1">
                    <mxGeometry x="3735" y="469" width="60" height="30" as="geometry"/>
                </mxCell>
                <mxCell id="D7zJYAnAHMYaYhCPeeGG-82" value="time=2, location=z" style="text;html=1;strokeColor=none;fillColor=none;align=center;verticalAlign=middle;whiteSpace=wrap;rounded=0;" parent="1" vertex="1">
                    <mxGeometry x="4080" y="470" width="60" height="30" as="geometry"/>
                </mxCell>
                <mxCell id="D7zJYAnAHMYaYhCPeeGG-83" value="" style="shape=flexArrow;endArrow=classic;html=1;rounded=0;width=24;endSize=12.33;dashed=1;dashPattern=1 1;" parent="1" edge="1">
                    <mxGeometry width="50" height="50" relative="1" as="geometry">
                        <mxPoint x="3580" y="296" as="sourcePoint"/>
                        <mxPoint x="3650" y="296" as="targetPoint"/>
                    </mxGeometry>
                </mxCell>
                <mxCell id="D7zJYAnAHMYaYhCPeeGG-84" value="" style="shape=flexArrow;endArrow=classic;html=1;rounded=0;width=24;endSize=12.33;dashed=1;dashPattern=1 1;" parent="1" edge="1">
                    <mxGeometry width="50" height="50" relative="1" as="geometry">
                        <mxPoint x="3920" y="296" as="sourcePoint"/>
                        <mxPoint x="3990" y="296" as="targetPoint"/>
                    </mxGeometry>
                </mxCell>
                <mxCell id="1VjSuDgPF0RQ6vDxP6wa-20" value="" style="group" parent="1" vertex="1" connectable="0">
                    <mxGeometry x="3340" y="580" width="770" height="412" as="geometry"/>
                </mxCell>
                <mxCell id="D7zJYAnAHMYaYhCPeeGG-149" value="&lt;font color=&quot;#67ab9f&quot;&gt;marketplace network&lt;/font&gt;" style="ellipse;shape=cloud;whiteSpace=wrap;html=1;fillColor=#d5e8d4;strokeColor=#82b366;opacity=50;" parent="1VjSuDgPF0RQ6vDxP6wa-20" vertex="1">
                    <mxGeometry x="40" y="40" width="700" height="280" as="geometry"/>
                </mxCell>
                <mxCell id="D7zJYAnAHMYaYhCPeeGG-85" value="IOTICSpace 1" style="rounded=1;whiteSpace=wrap;html=1;fillColor=#f5f5f5;strokeColor=#666666;verticalAlign=top;fontColor=#333333;" parent="1VjSuDgPF0RQ6vDxP6wa-20" vertex="1">
                    <mxGeometry x="95" y="30" width="180" height="164" as="geometry"/>
                </mxCell>
                <mxCell id="D7zJYAnAHMYaYhCPeeGG-86" value="IOTICSpace 2" style="rounded=1;whiteSpace=wrap;html=1;fillColor=#f5f5f5;strokeColor=#666666;verticalAlign=top;fontColor=#333333;" parent="1VjSuDgPF0RQ6vDxP6wa-20" vertex="1">
                    <mxGeometry x="480" y="37" width="180" height="164" as="geometry"/>
                </mxCell>
                <mxCell id="D7zJYAnAHMYaYhCPeeGG-87" value="IOTICSpace 3" style="rounded=1;whiteSpace=wrap;html=1;fillColor=#f5f5f5;strokeColor=#666666;verticalAlign=bottom;fontColor=#333333;" parent="1VjSuDgPF0RQ6vDxP6wa-20" vertex="1">
                    <mxGeometry x="240" y="248" width="180" height="164" as="geometry"/>
                </mxCell>
                <mxCell id="D7zJYAnAHMYaYhCPeeGG-88" value="HOST" style="rounded=1;whiteSpace=wrap;html=1;verticalAlign=top;" parent="1VjSuDgPF0RQ6vDxP6wa-20" vertex="1">
                    <mxGeometry x="120" y="52" width="50" height="28" as="geometry"/>
                </mxCell>
                <mxCell id="D7zJYAnAHMYaYhCPeeGG-89" value="HOST" style="rounded=1;whiteSpace=wrap;html=1;verticalAlign=top;fillColor=#d5e8d4;strokeColor=#82b366;" parent="1VjSuDgPF0RQ6vDxP6wa-20" vertex="1">
                    <mxGeometry x="125" y="120" width="120" height="60" as="geometry"/>
                </mxCell>
                <mxCell id="D7zJYAnAHMYaYhCPeeGG-90" value="HOST" style="rounded=1;whiteSpace=wrap;html=1;verticalAlign=top;" parent="1VjSuDgPF0RQ6vDxP6wa-20" vertex="1">
                    <mxGeometry x="190" y="71" width="50" height="28" as="geometry"/>
                </mxCell>
                <mxCell id="D7zJYAnAHMYaYhCPeeGG-92" value="HOST" style="rounded=1;whiteSpace=wrap;html=1;verticalAlign=top;fillColor=#d5e8d4;strokeColor=#82b366;" parent="1VjSuDgPF0RQ6vDxP6wa-20" vertex="1">
                    <mxGeometry x="520" y="133" width="120" height="60" as="geometry"/>
                </mxCell>
                <mxCell id="D7zJYAnAHMYaYhCPeeGG-93" value="HOST" style="rounded=1;whiteSpace=wrap;html=1;verticalAlign=top;" parent="1VjSuDgPF0RQ6vDxP6wa-20" vertex="1">
                    <mxGeometry x="555" y="79.75" width="50" height="28" as="geometry"/>
                </mxCell>
                <mxCell id="D7zJYAnAHMYaYhCPeeGG-94" value="HOST" style="rounded=1;whiteSpace=wrap;html=1;verticalAlign=top;fillColor=#d5e8d4;strokeColor=#82b366;" parent="1VjSuDgPF0RQ6vDxP6wa-20" vertex="1">
                    <mxGeometry x="275" y="264.5" width="120" height="60" as="geometry"/>
                </mxCell>
                <mxCell id="D7zJYAnAHMYaYhCPeeGG-95" value="HOST" style="rounded=1;whiteSpace=wrap;html=1;verticalAlign=top;" parent="1VjSuDgPF0RQ6vDxP6wa-20" vertex="1">
                    <mxGeometry x="260" y="342" width="50" height="28" as="geometry"/>
                </mxCell>
                <mxCell id="D7zJYAnAHMYaYhCPeeGG-96" value="HOST" style="rounded=1;whiteSpace=wrap;html=1;verticalAlign=top;" parent="1VjSuDgPF0RQ6vDxP6wa-20" vertex="1">
                    <mxGeometry x="340" y="336.5" width="50" height="28" as="geometry"/>
                </mxCell>
                <mxCell id="D7zJYAnAHMYaYhCPeeGG-127" style="edgeStyle=none;rounded=0;orthogonalLoop=1;jettySize=auto;html=1;endArrow=none;endFill=0;" parent="1VjSuDgPF0RQ6vDxP6wa-20" source="D7zJYAnAHMYaYhCPeeGG-97" target="D7zJYAnAHMYaYhCPeeGG-92" edge="1">
                    <mxGeometry relative="1" as="geometry"/>
                </mxCell>
                <mxCell id="D7zJYAnAHMYaYhCPeeGG-146" style="edgeStyle=none;rounded=0;orthogonalLoop=1;jettySize=auto;html=1;endArrow=none;endFill=0;" parent="1VjSuDgPF0RQ6vDxP6wa-20" source="D7zJYAnAHMYaYhCPeeGG-97" target="D7zJYAnAHMYaYhCPeeGG-93" edge="1">
                    <mxGeometry relative="1" as="geometry"/>
                </mxCell>
                <mxCell id="D7zJYAnAHMYaYhCPeeGG-97" value="" style="shape=process;whiteSpace=wrap;html=1;backgroundOutline=1;fillColor=#ffe6cc;strokeColor=#d79b00;" parent="1VjSuDgPF0RQ6vDxP6wa-20" vertex="1">
                    <mxGeometry x="700" y="40.25" width="70" height="30" as="geometry"/>
                </mxCell>
                <mxCell id="D7zJYAnAHMYaYhCPeeGG-128" style="edgeStyle=none;rounded=0;orthogonalLoop=1;jettySize=auto;html=1;endArrow=none;endFill=0;" parent="1VjSuDgPF0RQ6vDxP6wa-20" source="D7zJYAnAHMYaYhCPeeGG-98" target="D7zJYAnAHMYaYhCPeeGG-92" edge="1">
                    <mxGeometry relative="1" as="geometry"/>
                </mxCell>
                <mxCell id="D7zJYAnAHMYaYhCPeeGG-98" value="" style="shape=process;whiteSpace=wrap;html=1;backgroundOutline=1;fillColor=#fff2cc;strokeColor=#d6b656;" parent="1VjSuDgPF0RQ6vDxP6wa-20" vertex="1">
                    <mxGeometry x="410" width="70" height="30" as="geometry"/>
                </mxCell>
                <mxCell id="D7zJYAnAHMYaYhCPeeGG-140" style="edgeStyle=none;rounded=0;orthogonalLoop=1;jettySize=auto;html=1;endArrow=none;endFill=0;" parent="1VjSuDgPF0RQ6vDxP6wa-20" source="D7zJYAnAHMYaYhCPeeGG-99" target="D7zJYAnAHMYaYhCPeeGG-89" edge="1">
                    <mxGeometry relative="1" as="geometry"/>
                </mxCell>
                <mxCell id="D7zJYAnAHMYaYhCPeeGG-145" style="edgeStyle=none;rounded=0;orthogonalLoop=1;jettySize=auto;html=1;endArrow=none;endFill=0;" parent="1VjSuDgPF0RQ6vDxP6wa-20" source="D7zJYAnAHMYaYhCPeeGG-99" target="D7zJYAnAHMYaYhCPeeGG-88" edge="1">
                    <mxGeometry relative="1" as="geometry"/>
                </mxCell>
                <mxCell id="D7zJYAnAHMYaYhCPeeGG-99" value="" style="shape=process;whiteSpace=wrap;html=1;backgroundOutline=1;fillColor=#f8cecc;strokeColor=#b85450;" parent="1VjSuDgPF0RQ6vDxP6wa-20" vertex="1">
                    <mxGeometry x="10" y="37" width="70" height="30" as="geometry"/>
                </mxCell>
                <mxCell id="D7zJYAnAHMYaYhCPeeGG-142" style="edgeStyle=none;rounded=0;orthogonalLoop=1;jettySize=auto;html=1;endArrow=none;endFill=0;" parent="1VjSuDgPF0RQ6vDxP6wa-20" source="D7zJYAnAHMYaYhCPeeGG-100" target="D7zJYAnAHMYaYhCPeeGG-89" edge="1">
                    <mxGeometry relative="1" as="geometry"/>
                </mxCell>
                <mxCell id="D7zJYAnAHMYaYhCPeeGG-100" value="" style="shape=process;whiteSpace=wrap;html=1;backgroundOutline=1;fillColor=#e1d5e7;strokeColor=#9673a6;" parent="1VjSuDgPF0RQ6vDxP6wa-20" vertex="1">
                    <mxGeometry y="107.75" width="70" height="30" as="geometry"/>
                </mxCell>
                <mxCell id="D7zJYAnAHMYaYhCPeeGG-137" style="edgeStyle=none;rounded=0;orthogonalLoop=1;jettySize=auto;html=1;endArrow=none;endFill=0;" parent="1VjSuDgPF0RQ6vDxP6wa-20" source="D7zJYAnAHMYaYhCPeeGG-101" target="D7zJYAnAHMYaYhCPeeGG-94" edge="1">
                    <mxGeometry relative="1" as="geometry"/>
                </mxCell>
                <mxCell id="D7zJYAnAHMYaYhCPeeGG-101" value="" style="shape=process;whiteSpace=wrap;html=1;backgroundOutline=1;fillColor=#fad9d5;strokeColor=#ae4132;" parent="1VjSuDgPF0RQ6vDxP6wa-20" vertex="1">
                    <mxGeometry x="450" y="318" width="70" height="30" as="geometry"/>
                </mxCell>
                <mxCell id="D7zJYAnAHMYaYhCPeeGG-136" style="edgeStyle=none;rounded=0;orthogonalLoop=1;jettySize=auto;html=1;endArrow=none;endFill=0;" parent="1VjSuDgPF0RQ6vDxP6wa-20" source="D7zJYAnAHMYaYhCPeeGG-102" target="D7zJYAnAHMYaYhCPeeGG-94" edge="1">
                    <mxGeometry relative="1" as="geometry"/>
                </mxCell>
                <mxCell id="D7zJYAnAHMYaYhCPeeGG-147" style="edgeStyle=none;rounded=0;orthogonalLoop=1;jettySize=auto;html=1;endArrow=none;endFill=0;" parent="1VjSuDgPF0RQ6vDxP6wa-20" source="D7zJYAnAHMYaYhCPeeGG-102" target="D7zJYAnAHMYaYhCPeeGG-96" edge="1">
                    <mxGeometry relative="1" as="geometry"/>
                </mxCell>
                <mxCell id="D7zJYAnAHMYaYhCPeeGG-102" value="" style="shape=process;whiteSpace=wrap;html=1;backgroundOutline=1;fillColor=#bac8d3;strokeColor=#23445d;" parent="1VjSuDgPF0RQ6vDxP6wa-20" vertex="1">
                    <mxGeometry x="440" y="370" width="70" height="30" as="geometry"/>
                </mxCell>
                <mxCell id="D7zJYAnAHMYaYhCPeeGG-138" style="edgeStyle=none;rounded=0;orthogonalLoop=1;jettySize=auto;html=1;endArrow=none;endFill=0;" parent="1VjSuDgPF0RQ6vDxP6wa-20" source="D7zJYAnAHMYaYhCPeeGG-103" target="D7zJYAnAHMYaYhCPeeGG-94" edge="1">
                    <mxGeometry relative="1" as="geometry"/>
                </mxCell>
                <mxCell id="D7zJYAnAHMYaYhCPeeGG-103" value="" style="shape=process;whiteSpace=wrap;html=1;backgroundOutline=1;fillColor=#b0e3e6;strokeColor=#0e8088;" parent="1VjSuDgPF0RQ6vDxP6wa-20" vertex="1">
                    <mxGeometry x="152" y="294.5" width="70" height="30" as="geometry"/>
                </mxCell>
                <mxCell id="D7zJYAnAHMYaYhCPeeGG-139" style="edgeStyle=none;rounded=0;orthogonalLoop=1;jettySize=auto;html=1;endArrow=none;endFill=0;" parent="1VjSuDgPF0RQ6vDxP6wa-20" source="D7zJYAnAHMYaYhCPeeGG-104" target="D7zJYAnAHMYaYhCPeeGG-94" edge="1">
                    <mxGeometry relative="1" as="geometry"/>
                </mxCell>
                <mxCell id="D7zJYAnAHMYaYhCPeeGG-148" style="edgeStyle=none;rounded=0;orthogonalLoop=1;jettySize=auto;html=1;endArrow=none;endFill=0;" parent="1VjSuDgPF0RQ6vDxP6wa-20" source="D7zJYAnAHMYaYhCPeeGG-104" target="D7zJYAnAHMYaYhCPeeGG-95" edge="1">
                    <mxGeometry relative="1" as="geometry"/>
                </mxCell>
                <mxCell id="D7zJYAnAHMYaYhCPeeGG-104" value="" style="shape=process;whiteSpace=wrap;html=1;backgroundOutline=1;fillColor=#b1ddf0;strokeColor=#10739e;" parent="1VjSuDgPF0RQ6vDxP6wa-20" vertex="1">
                    <mxGeometry x="152" y="348" width="70" height="30" as="geometry"/>
                </mxCell>
                <mxCell id="D7zJYAnAHMYaYhCPeeGG-143" style="edgeStyle=none;rounded=0;orthogonalLoop=1;jettySize=auto;html=1;endArrow=none;endFill=0;" parent="1VjSuDgPF0RQ6vDxP6wa-20" source="D7zJYAnAHMYaYhCPeeGG-105" target="D7zJYAnAHMYaYhCPeeGG-89" edge="1">
                    <mxGeometry relative="1" as="geometry"/>
                </mxCell>
                <mxCell id="D7zJYAnAHMYaYhCPeeGG-144" style="edgeStyle=none;rounded=0;orthogonalLoop=1;jettySize=auto;html=1;endArrow=none;endFill=0;" parent="1VjSuDgPF0RQ6vDxP6wa-20" source="D7zJYAnAHMYaYhCPeeGG-105" target="D7zJYAnAHMYaYhCPeeGG-90" edge="1">
                    <mxGeometry relative="1" as="geometry"/>
                </mxCell>
                <mxCell id="D7zJYAnAHMYaYhCPeeGG-105" value="" style="shape=process;whiteSpace=wrap;html=1;backgroundOutline=1;fillColor=#fad7ac;strokeColor=#b46504;" parent="1VjSuDgPF0RQ6vDxP6wa-20" vertex="1">
                    <mxGeometry x="290" y="26" width="70" height="30" as="geometry"/>
                </mxCell>
                <mxCell id="D7zJYAnAHMYaYhCPeeGG-106" value="" style="ellipse;whiteSpace=wrap;html=1;aspect=fixed;fillColor=#f8cecc;strokeColor=#b85450;" parent="1VjSuDgPF0RQ6vDxP6wa-20" vertex="1">
                    <mxGeometry x="140" y="142" width="10" height="10" as="geometry"/>
                </mxCell>
                <mxCell id="D7zJYAnAHMYaYhCPeeGG-107" value="" style="ellipse;whiteSpace=wrap;html=1;aspect=fixed;fillColor=#e1d5e7;strokeColor=#9673a6;" parent="1VjSuDgPF0RQ6vDxP6wa-20" vertex="1">
                    <mxGeometry x="140" y="163" width="10" height="10" as="geometry"/>
                </mxCell>
                <mxCell id="D7zJYAnAHMYaYhCPeeGG-108" value="" style="ellipse;whiteSpace=wrap;html=1;aspect=fixed;fillColor=#f8cecc;strokeColor=#b85450;" parent="1VjSuDgPF0RQ6vDxP6wa-20" vertex="1">
                    <mxGeometry x="162" y="154" width="10" height="10" as="geometry"/>
                </mxCell>
                <mxCell id="D7zJYAnAHMYaYhCPeeGG-109" value="" style="ellipse;whiteSpace=wrap;html=1;aspect=fixed;fillColor=#e1d5e7;strokeColor=#9673a6;" parent="1VjSuDgPF0RQ6vDxP6wa-20" vertex="1">
                    <mxGeometry x="200" y="144.5" width="10" height="10" as="geometry"/>
                </mxCell>
                <mxCell id="D7zJYAnAHMYaYhCPeeGG-110" value="" style="ellipse;whiteSpace=wrap;html=1;aspect=fixed;fillColor=#e1d5e7;strokeColor=#9673a6;" parent="1VjSuDgPF0RQ6vDxP6wa-20" vertex="1">
                    <mxGeometry x="200" y="165.5" width="10" height="10" as="geometry"/>
                </mxCell>
                <mxCell id="D7zJYAnAHMYaYhCPeeGG-111" value="" style="ellipse;whiteSpace=wrap;html=1;aspect=fixed;fillColor=#fad7ac;strokeColor=#b46504;" parent="1VjSuDgPF0RQ6vDxP6wa-20" vertex="1">
                    <mxGeometry x="222" y="156.5" width="10" height="10" as="geometry"/>
                </mxCell>
                <mxCell id="D7zJYAnAHMYaYhCPeeGG-112" value="" style="ellipse;whiteSpace=wrap;html=1;aspect=fixed;fillColor=#f8cecc;strokeColor=#b85450;" parent="1VjSuDgPF0RQ6vDxP6wa-20" vertex="1">
                    <mxGeometry x="180" y="153" width="10" height="10" as="geometry"/>
                </mxCell>
                <mxCell id="D7zJYAnAHMYaYhCPeeGG-113" value="" style="ellipse;whiteSpace=wrap;html=1;aspect=fixed;fillColor=#fff2cc;strokeColor=#d6b656;" parent="1VjSuDgPF0RQ6vDxP6wa-20" vertex="1">
                    <mxGeometry x="560" y="175.5" width="10" height="10" as="geometry"/>
                </mxCell>
                <mxCell id="D7zJYAnAHMYaYhCPeeGG-114" value="" style="ellipse;whiteSpace=wrap;html=1;aspect=fixed;fillColor=#fff2cc;strokeColor=#d6b656;" parent="1VjSuDgPF0RQ6vDxP6wa-20" vertex="1">
                    <mxGeometry x="612" y="180" width="10" height="10" as="geometry"/>
                </mxCell>
                <mxCell id="D7zJYAnAHMYaYhCPeeGG-115" value="" style="ellipse;whiteSpace=wrap;html=1;aspect=fixed;fillColor=#ffe6cc;strokeColor=#d79b00;" parent="1VjSuDgPF0RQ6vDxP6wa-20" vertex="1">
                    <mxGeometry x="622" y="140" width="10" height="10" as="geometry"/>
                </mxCell>
                <mxCell id="D7zJYAnAHMYaYhCPeeGG-116" value="" style="ellipse;whiteSpace=wrap;html=1;aspect=fixed;fillColor=#ffe6cc;strokeColor=#d79b00;" parent="1VjSuDgPF0RQ6vDxP6wa-20" vertex="1">
                    <mxGeometry x="600" y="156.5" width="10" height="10" as="geometry"/>
                </mxCell>
                <mxCell id="D7zJYAnAHMYaYhCPeeGG-117" value="" style="ellipse;whiteSpace=wrap;html=1;aspect=fixed;fillColor=#fff2cc;strokeColor=#d6b656;" parent="1VjSuDgPF0RQ6vDxP6wa-20" vertex="1">
                    <mxGeometry x="595" y="177" width="10" height="10" as="geometry"/>
                </mxCell>
                <mxCell id="D7zJYAnAHMYaYhCPeeGG-118" value="" style="ellipse;whiteSpace=wrap;html=1;aspect=fixed;fillColor=#ffe6cc;strokeColor=#d79b00;" parent="1VjSuDgPF0RQ6vDxP6wa-20" vertex="1">
                    <mxGeometry x="622" y="168.5" width="10" height="10" as="geometry"/>
                </mxCell>
                <mxCell id="D7zJYAnAHMYaYhCPeeGG-119" value="" style="ellipse;whiteSpace=wrap;html=1;aspect=fixed;fillColor=#fff2cc;strokeColor=#d6b656;" parent="1VjSuDgPF0RQ6vDxP6wa-20" vertex="1">
                    <mxGeometry x="580" y="165" width="10" height="10" as="geometry"/>
                </mxCell>
                <mxCell id="D7zJYAnAHMYaYhCPeeGG-120" value="" style="ellipse;whiteSpace=wrap;html=1;aspect=fixed;fillColor=#b0e3e6;strokeColor=#0e8088;" parent="1VjSuDgPF0RQ6vDxP6wa-20" vertex="1">
                    <mxGeometry x="290" y="287" width="10" height="10" as="geometry"/>
                </mxCell>
                <mxCell id="D7zJYAnAHMYaYhCPeeGG-122" value="" style="ellipse;whiteSpace=wrap;html=1;aspect=fixed;fillColor=#b0e3e6;strokeColor=#0e8088;" parent="1VjSuDgPF0RQ6vDxP6wa-20" vertex="1">
                    <mxGeometry x="312" y="299" width="10" height="10" as="geometry"/>
                </mxCell>
                <mxCell id="D7zJYAnAHMYaYhCPeeGG-123" value="" style="ellipse;whiteSpace=wrap;html=1;aspect=fixed;fillColor=#fad9d5;strokeColor=#ae4132;" parent="1VjSuDgPF0RQ6vDxP6wa-20" vertex="1">
                    <mxGeometry x="350" y="289.5" width="10" height="10" as="geometry"/>
                </mxCell>
                <mxCell id="D7zJYAnAHMYaYhCPeeGG-124" value="" style="ellipse;whiteSpace=wrap;html=1;aspect=fixed;fillColor=#bac8d3;strokeColor=#23445d;" parent="1VjSuDgPF0RQ6vDxP6wa-20" vertex="1">
                    <mxGeometry x="350" y="310.5" width="10" height="10" as="geometry"/>
                </mxCell>
                <mxCell id="D7zJYAnAHMYaYhCPeeGG-125" value="" style="ellipse;whiteSpace=wrap;html=1;aspect=fixed;fillColor=#bac8d3;strokeColor=#23445d;" parent="1VjSuDgPF0RQ6vDxP6wa-20" vertex="1">
                    <mxGeometry x="372" y="301.5" width="10" height="10" as="geometry"/>
                </mxCell>
                <mxCell id="D7zJYAnAHMYaYhCPeeGG-129" value="" style="ellipse;whiteSpace=wrap;html=1;aspect=fixed;fillColor=#ffe6cc;strokeColor=#d79b00;" parent="1VjSuDgPF0RQ6vDxP6wa-20" vertex="1">
                    <mxGeometry x="550" y="156.5" width="10" height="10" as="geometry"/>
                </mxCell>
                <mxCell id="D7zJYAnAHMYaYhCPeeGG-130" value="" style="ellipse;whiteSpace=wrap;html=1;aspect=fixed;fillColor=#fff2cc;strokeColor=#d6b656;" parent="1VjSuDgPF0RQ6vDxP6wa-20" vertex="1">
                    <mxGeometry x="530" y="165" width="10" height="10" as="geometry"/>
                </mxCell>
                <mxCell id="D7zJYAnAHMYaYhCPeeGG-131" value="" style="ellipse;whiteSpace=wrap;html=1;aspect=fixed;fillColor=#b1ddf0;strokeColor=#10739e;" parent="1VjSuDgPF0RQ6vDxP6wa-20" vertex="1">
                    <mxGeometry x="280" y="304.5" width="10" height="10" as="geometry"/>
                </mxCell>
                <mxCell id="D7zJYAnAHMYaYhCPeeGG-132" value="" style="ellipse;whiteSpace=wrap;html=1;aspect=fixed;fillColor=#b1ddf0;strokeColor=#10739e;" parent="1VjSuDgPF0RQ6vDxP6wa-20" vertex="1">
                    <mxGeometry x="300" y="309" width="10" height="10" as="geometry"/>
                </mxCell>
                <mxCell id="D7zJYAnAHMYaYhCPeeGG-133" value="" style="ellipse;whiteSpace=wrap;html=1;aspect=fixed;fillColor=#b0e3e6;strokeColor=#0e8088;" parent="1VjSuDgPF0RQ6vDxP6wa-20" vertex="1">
                    <mxGeometry x="330" y="292" width="10" height="10" as="geometry"/>
                </mxCell>
                <mxCell id="D7zJYAnAHMYaYhCPeeGG-134" value="" style="ellipse;whiteSpace=wrap;html=1;aspect=fixed;fillColor=#fad9d5;strokeColor=#ae4132;" parent="1VjSuDgPF0RQ6vDxP6wa-20" vertex="1">
                    <mxGeometry x="361" y="272" width="10" height="10" as="geometry"/>
                </mxCell>
                <mxCell id="D7zJYAnAHMYaYhCPeeGG-135" value="" style="ellipse;whiteSpace=wrap;html=1;aspect=fixed;fillColor=#fad9d5;strokeColor=#ae4132;" parent="1VjSuDgPF0RQ6vDxP6wa-20" vertex="1">
                    <mxGeometry x="383" y="284" width="10" height="10" as="geometry"/>
                </mxCell>
                <mxCell id="1VjSuDgPF0RQ6vDxP6wa-93" value="" style="group" parent="1" vertex="1" connectable="0">
                    <mxGeometry x="4249" y="577.75" width="611" height="336.25" as="geometry"/>
                </mxCell>
                <mxCell id="1VjSuDgPF0RQ6vDxP6wa-22" value="&lt;font color=&quot;#67ab9f&quot;&gt;MESH network&lt;/font&gt;" style="ellipse;shape=cloud;whiteSpace=wrap;html=1;fillColor=#d5e8d4;strokeColor=#82b366;opacity=50;" parent="1VjSuDgPF0RQ6vDxP6wa-93" vertex="1">
                    <mxGeometry x="31" y="42.25" width="580" height="240" as="geometry"/>
                </mxCell>
                <mxCell id="1VjSuDgPF0RQ6vDxP6wa-23" value="IOTICSpace 1" style="rounded=1;whiteSpace=wrap;html=1;fillColor=#f5f5f5;strokeColor=#666666;verticalAlign=top;fontColor=#333333;" parent="1VjSuDgPF0RQ6vDxP6wa-93" vertex="1">
                    <mxGeometry x="120" y="88.25" width="130" height="74" as="geometry"/>
                </mxCell>
                <mxCell id="1VjSuDgPF0RQ6vDxP6wa-24" value="IOTICSpace 2" style="rounded=1;whiteSpace=wrap;html=1;fillColor=#f5f5f5;strokeColor=#666666;verticalAlign=top;fontColor=#333333;" parent="1VjSuDgPF0RQ6vDxP6wa-93" vertex="1">
                    <mxGeometry x="381" y="89.25" width="150" height="81" as="geometry"/>
                </mxCell>
                <mxCell id="1VjSuDgPF0RQ6vDxP6wa-25" value="IOTICSpace 3" style="rounded=1;whiteSpace=wrap;html=1;fillColor=#f5f5f5;strokeColor=#666666;verticalAlign=bottom;fontColor=#333333;" parent="1VjSuDgPF0RQ6vDxP6wa-93" vertex="1">
                    <mxGeometry x="236" y="178.25" width="140" height="71" as="geometry"/>
                </mxCell>
                <mxCell id="1VjSuDgPF0RQ6vDxP6wa-34" style="edgeStyle=none;rounded=0;orthogonalLoop=1;jettySize=auto;html=1;endArrow=none;endFill=0;" parent="1VjSuDgPF0RQ6vDxP6wa-93" source="1VjSuDgPF0RQ6vDxP6wa-36" target="1VjSuDgPF0RQ6vDxP6wa-24" edge="1">
                    <mxGeometry relative="1" as="geometry">
                        <mxPoint x="544.1554524361954" y="105.25" as="targetPoint"/>
                    </mxGeometry>
                </mxCell>
                <mxCell id="1VjSuDgPF0RQ6vDxP6wa-36" value="" style="shape=process;whiteSpace=wrap;html=1;backgroundOutline=1;fillColor=#ffe6cc;strokeColor=#d79b00;" parent="1VjSuDgPF0RQ6vDxP6wa-93" vertex="1">
                    <mxGeometry x="511" y="11.25" width="70" height="30" as="geometry"/>
                </mxCell>
                <mxCell id="1VjSuDgPF0RQ6vDxP6wa-37" style="edgeStyle=none;rounded=0;orthogonalLoop=1;jettySize=auto;html=1;endArrow=none;endFill=0;" parent="1VjSuDgPF0RQ6vDxP6wa-93" source="1VjSuDgPF0RQ6vDxP6wa-38" target="1VjSuDgPF0RQ6vDxP6wa-24" edge="1">
                    <mxGeometry relative="1" as="geometry">
                        <mxPoint x="473.635135135135" y="105.25" as="targetPoint"/>
                    </mxGeometry>
                </mxCell>
                <mxCell id="1VjSuDgPF0RQ6vDxP6wa-38" value="" style="shape=process;whiteSpace=wrap;html=1;backgroundOutline=1;fillColor=#fff2cc;strokeColor=#d6b656;" parent="1VjSuDgPF0RQ6vDxP6wa-93" vertex="1">
                    <mxGeometry x="381" width="70" height="30" as="geometry"/>
                </mxCell>
                <mxCell id="1VjSuDgPF0RQ6vDxP6wa-39" style="edgeStyle=none;rounded=0;orthogonalLoop=1;jettySize=auto;html=1;endArrow=none;endFill=0;" parent="1VjSuDgPF0RQ6vDxP6wa-93" source="1VjSuDgPF0RQ6vDxP6wa-41" edge="1">
                    <mxGeometry relative="1" as="geometry">
                        <mxPoint x="142.14285714285688" y="88.25" as="targetPoint"/>
                    </mxGeometry>
                </mxCell>
                <mxCell id="1VjSuDgPF0RQ6vDxP6wa-41" value="" style="shape=process;whiteSpace=wrap;html=1;backgroundOutline=1;fillColor=#f8cecc;strokeColor=#b85450;" parent="1VjSuDgPF0RQ6vDxP6wa-93" vertex="1">
                    <mxGeometry x="10" y="5.25" width="70" height="30" as="geometry"/>
                </mxCell>
                <mxCell id="1VjSuDgPF0RQ6vDxP6wa-42" style="edgeStyle=none;rounded=0;orthogonalLoop=1;jettySize=auto;html=1;endArrow=none;endFill=0;" parent="1VjSuDgPF0RQ6vDxP6wa-93" source="1VjSuDgPF0RQ6vDxP6wa-43" target="1VjSuDgPF0RQ6vDxP6wa-23" edge="1">
                    <mxGeometry relative="1" as="geometry">
                        <mxPoint x="125" y="107.34999999999991" as="targetPoint"/>
                    </mxGeometry>
                </mxCell>
                <mxCell id="1VjSuDgPF0RQ6vDxP6wa-43" value="" style="shape=process;whiteSpace=wrap;html=1;backgroundOutline=1;fillColor=#e1d5e7;strokeColor=#9673a6;" parent="1VjSuDgPF0RQ6vDxP6wa-93" vertex="1">
                    <mxGeometry y="76" width="70" height="30" as="geometry"/>
                </mxCell>
                <mxCell id="1VjSuDgPF0RQ6vDxP6wa-44" style="edgeStyle=none;rounded=0;orthogonalLoop=1;jettySize=auto;html=1;endArrow=none;endFill=0;" parent="1VjSuDgPF0RQ6vDxP6wa-93" source="1VjSuDgPF0RQ6vDxP6wa-45" target="1VjSuDgPF0RQ6vDxP6wa-25" edge="1">
                    <mxGeometry relative="1" as="geometry">
                        <mxPoint x="351" y="268.14999999999986" as="targetPoint"/>
                    </mxGeometry>
                </mxCell>
                <mxCell id="1VjSuDgPF0RQ6vDxP6wa-45" value="" style="shape=process;whiteSpace=wrap;html=1;backgroundOutline=1;fillColor=#fad9d5;strokeColor=#ae4132;" parent="1VjSuDgPF0RQ6vDxP6wa-93" vertex="1">
                    <mxGeometry x="406" y="276.25" width="70" height="30" as="geometry"/>
                </mxCell>
                <mxCell id="1VjSuDgPF0RQ6vDxP6wa-46" style="edgeStyle=none;rounded=0;orthogonalLoop=1;jettySize=auto;html=1;endArrow=none;endFill=0;" parent="1VjSuDgPF0RQ6vDxP6wa-93" source="1VjSuDgPF0RQ6vDxP6wa-48" target="1VjSuDgPF0RQ6vDxP6wa-25" edge="1">
                    <mxGeometry relative="1" as="geometry">
                        <mxPoint x="337.4088397790056" y="282.75" as="targetPoint"/>
                    </mxGeometry>
                </mxCell>
                <mxCell id="1VjSuDgPF0RQ6vDxP6wa-48" value="" style="shape=process;whiteSpace=wrap;html=1;backgroundOutline=1;fillColor=#bac8d3;strokeColor=#23445d;" parent="1VjSuDgPF0RQ6vDxP6wa-93" vertex="1">
                    <mxGeometry x="304" y="292.25" width="70" height="30" as="geometry"/>
                </mxCell>
                <mxCell id="1VjSuDgPF0RQ6vDxP6wa-49" style="edgeStyle=none;rounded=0;orthogonalLoop=1;jettySize=auto;html=1;endArrow=none;endFill=0;" parent="1VjSuDgPF0RQ6vDxP6wa-93" source="1VjSuDgPF0RQ6vDxP6wa-50" target="1VjSuDgPF0RQ6vDxP6wa-25" edge="1">
                    <mxGeometry relative="1" as="geometry">
                        <mxPoint x="231" y="258.83108108108104" as="targetPoint"/>
                    </mxGeometry>
                </mxCell>
                <mxCell id="1VjSuDgPF0RQ6vDxP6wa-50" value="" style="shape=process;whiteSpace=wrap;html=1;backgroundOutline=1;fillColor=#b0e3e6;strokeColor=#0e8088;" parent="1VjSuDgPF0RQ6vDxP6wa-93" vertex="1">
                    <mxGeometry x="108" y="252.75" width="70" height="30" as="geometry"/>
                </mxCell>
                <mxCell id="1VjSuDgPF0RQ6vDxP6wa-52" style="edgeStyle=none;rounded=0;orthogonalLoop=1;jettySize=auto;html=1;endArrow=none;endFill=0;" parent="1VjSuDgPF0RQ6vDxP6wa-93" source="1VjSuDgPF0RQ6vDxP6wa-53" target="1VjSuDgPF0RQ6vDxP6wa-25" edge="1">
                    <mxGeometry relative="1" as="geometry">
                        <mxPoint x="216" y="316.0357142857142" as="targetPoint"/>
                    </mxGeometry>
                </mxCell>
                <mxCell id="1VjSuDgPF0RQ6vDxP6wa-53" value="" style="shape=process;whiteSpace=wrap;html=1;backgroundOutline=1;fillColor=#b1ddf0;strokeColor=#10739e;" parent="1VjSuDgPF0RQ6vDxP6wa-93" vertex="1">
                    <mxGeometry x="188" y="306.25" width="70" height="30" as="geometry"/>
                </mxCell>
                <mxCell id="1VjSuDgPF0RQ6vDxP6wa-54" style="edgeStyle=none;rounded=0;orthogonalLoop=1;jettySize=auto;html=1;endArrow=none;endFill=0;" parent="1VjSuDgPF0RQ6vDxP6wa-93" source="1VjSuDgPF0RQ6vDxP6wa-56" target="1VjSuDgPF0RQ6vDxP6wa-23" edge="1">
                    <mxGeometry relative="1" as="geometry">
                        <mxPoint x="223.53211009174356" y="88.25" as="targetPoint"/>
                    </mxGeometry>
                </mxCell>
                <mxCell id="1VjSuDgPF0RQ6vDxP6wa-56" value="" style="shape=process;whiteSpace=wrap;html=1;backgroundOutline=1;fillColor=#fad7ac;strokeColor=#b46504;" parent="1VjSuDgPF0RQ6vDxP6wa-93" vertex="1">
                    <mxGeometry x="140" y="2.25" width="70" height="30" as="geometry"/>
                </mxCell>
                <mxCell id="1VjSuDgPF0RQ6vDxP6wa-57" value="" style="ellipse;whiteSpace=wrap;html=1;aspect=fixed;fillColor=#f8cecc;strokeColor=#b85450;" parent="1VjSuDgPF0RQ6vDxP6wa-93" vertex="1">
                    <mxGeometry x="140" y="110.25" width="10" height="10" as="geometry"/>
                </mxCell>
                <mxCell id="1VjSuDgPF0RQ6vDxP6wa-58" value="" style="ellipse;whiteSpace=wrap;html=1;aspect=fixed;fillColor=#e1d5e7;strokeColor=#9673a6;" parent="1VjSuDgPF0RQ6vDxP6wa-93" vertex="1">
                    <mxGeometry x="140" y="131.25" width="10" height="10" as="geometry"/>
                </mxCell>
                <mxCell id="1VjSuDgPF0RQ6vDxP6wa-59" value="" style="ellipse;whiteSpace=wrap;html=1;aspect=fixed;fillColor=#f8cecc;strokeColor=#b85450;" parent="1VjSuDgPF0RQ6vDxP6wa-93" vertex="1">
                    <mxGeometry x="162" y="122.25" width="10" height="10" as="geometry"/>
                </mxCell>
                <mxCell id="1VjSuDgPF0RQ6vDxP6wa-60" value="" style="ellipse;whiteSpace=wrap;html=1;aspect=fixed;fillColor=#e1d5e7;strokeColor=#9673a6;" parent="1VjSuDgPF0RQ6vDxP6wa-93" vertex="1">
                    <mxGeometry x="200" y="112.75" width="10" height="10" as="geometry"/>
                </mxCell>
                <mxCell id="1VjSuDgPF0RQ6vDxP6wa-61" value="" style="ellipse;whiteSpace=wrap;html=1;aspect=fixed;fillColor=#e1d5e7;strokeColor=#9673a6;" parent="1VjSuDgPF0RQ6vDxP6wa-93" vertex="1">
                    <mxGeometry x="200" y="133.75" width="10" height="10" as="geometry"/>
                </mxCell>
                <mxCell id="1VjSuDgPF0RQ6vDxP6wa-62" value="" style="ellipse;whiteSpace=wrap;html=1;aspect=fixed;fillColor=#fad7ac;strokeColor=#b46504;" parent="1VjSuDgPF0RQ6vDxP6wa-93" vertex="1">
                    <mxGeometry x="222" y="124.75" width="10" height="10" as="geometry"/>
                </mxCell>
                <mxCell id="1VjSuDgPF0RQ6vDxP6wa-63" value="" style="ellipse;whiteSpace=wrap;html=1;aspect=fixed;fillColor=#f8cecc;strokeColor=#b85450;" parent="1VjSuDgPF0RQ6vDxP6wa-93" vertex="1">
                    <mxGeometry x="180" y="121.25" width="10" height="10" as="geometry"/>
                </mxCell>
                <mxCell id="1VjSuDgPF0RQ6vDxP6wa-64" value="" style="ellipse;whiteSpace=wrap;html=1;aspect=fixed;fillColor=#fff2cc;strokeColor=#d6b656;" parent="1VjSuDgPF0RQ6vDxP6wa-93" vertex="1">
                    <mxGeometry x="431" y="144.75" width="10" height="10" as="geometry"/>
                </mxCell>
                <mxCell id="1VjSuDgPF0RQ6vDxP6wa-65" value="" style="ellipse;whiteSpace=wrap;html=1;aspect=fixed;fillColor=#fff2cc;strokeColor=#d6b656;" parent="1VjSuDgPF0RQ6vDxP6wa-93" vertex="1">
                    <mxGeometry x="483" y="149.25" width="10" height="10" as="geometry"/>
                </mxCell>
                <mxCell id="1VjSuDgPF0RQ6vDxP6wa-66" value="" style="ellipse;whiteSpace=wrap;html=1;aspect=fixed;fillColor=#ffe6cc;strokeColor=#d79b00;" parent="1VjSuDgPF0RQ6vDxP6wa-93" vertex="1">
                    <mxGeometry x="493" y="109.25" width="10" height="10" as="geometry"/>
                </mxCell>
                <mxCell id="1VjSuDgPF0RQ6vDxP6wa-67" value="" style="ellipse;whiteSpace=wrap;html=1;aspect=fixed;fillColor=#ffe6cc;strokeColor=#d79b00;" parent="1VjSuDgPF0RQ6vDxP6wa-93" vertex="1">
                    <mxGeometry x="471" y="125.75" width="10" height="10" as="geometry"/>
                </mxCell>
                <mxCell id="1VjSuDgPF0RQ6vDxP6wa-68" value="" style="ellipse;whiteSpace=wrap;html=1;aspect=fixed;fillColor=#fff2cc;strokeColor=#d6b656;" parent="1VjSuDgPF0RQ6vDxP6wa-93" vertex="1">
                    <mxGeometry x="466" y="146.25" width="10" height="10" as="geometry"/>
                </mxCell>
                <mxCell id="1VjSuDgPF0RQ6vDxP6wa-69" value="" style="ellipse;whiteSpace=wrap;html=1;aspect=fixed;fillColor=#ffe6cc;strokeColor=#d79b00;" parent="1VjSuDgPF0RQ6vDxP6wa-93" vertex="1">
                    <mxGeometry x="493" y="137.75" width="10" height="10" as="geometry"/>
                </mxCell>
                <mxCell id="1VjSuDgPF0RQ6vDxP6wa-70" value="" style="ellipse;whiteSpace=wrap;html=1;aspect=fixed;fillColor=#fff2cc;strokeColor=#d6b656;" parent="1VjSuDgPF0RQ6vDxP6wa-93" vertex="1">
                    <mxGeometry x="451" y="134.25" width="10" height="10" as="geometry"/>
                </mxCell>
                <mxCell id="1VjSuDgPF0RQ6vDxP6wa-71" value="" style="ellipse;whiteSpace=wrap;html=1;aspect=fixed;fillColor=#b0e3e6;strokeColor=#0e8088;" parent="1VjSuDgPF0RQ6vDxP6wa-93" vertex="1">
                    <mxGeometry x="263" y="196.25" width="10" height="10" as="geometry"/>
                </mxCell>
                <mxCell id="1VjSuDgPF0RQ6vDxP6wa-72" value="" style="ellipse;whiteSpace=wrap;html=1;aspect=fixed;fillColor=#b0e3e6;strokeColor=#0e8088;" parent="1VjSuDgPF0RQ6vDxP6wa-93" vertex="1">
                    <mxGeometry x="285" y="208.25" width="10" height="10" as="geometry"/>
                </mxCell>
                <mxCell id="1VjSuDgPF0RQ6vDxP6wa-73" value="" style="ellipse;whiteSpace=wrap;html=1;aspect=fixed;fillColor=#fad9d5;strokeColor=#ae4132;" parent="1VjSuDgPF0RQ6vDxP6wa-93" vertex="1">
                    <mxGeometry x="323" y="198.75" width="10" height="10" as="geometry"/>
                </mxCell>
                <mxCell id="1VjSuDgPF0RQ6vDxP6wa-74" value="" style="ellipse;whiteSpace=wrap;html=1;aspect=fixed;fillColor=#bac8d3;strokeColor=#23445d;" parent="1VjSuDgPF0RQ6vDxP6wa-93" vertex="1">
                    <mxGeometry x="323" y="219.75" width="10" height="10" as="geometry"/>
                </mxCell>
                <mxCell id="1VjSuDgPF0RQ6vDxP6wa-75" value="" style="ellipse;whiteSpace=wrap;html=1;aspect=fixed;fillColor=#bac8d3;strokeColor=#23445d;" parent="1VjSuDgPF0RQ6vDxP6wa-93" vertex="1">
                    <mxGeometry x="345" y="210.75" width="10" height="10" as="geometry"/>
                </mxCell>
                <mxCell id="1VjSuDgPF0RQ6vDxP6wa-76" value="" style="ellipse;whiteSpace=wrap;html=1;aspect=fixed;fillColor=#ffe6cc;strokeColor=#d79b00;" parent="1VjSuDgPF0RQ6vDxP6wa-93" vertex="1">
                    <mxGeometry x="421" y="125.75" width="10" height="10" as="geometry"/>
                </mxCell>
                <mxCell id="1VjSuDgPF0RQ6vDxP6wa-77" value="" style="ellipse;whiteSpace=wrap;html=1;aspect=fixed;fillColor=#fff2cc;strokeColor=#d6b656;" parent="1VjSuDgPF0RQ6vDxP6wa-93" vertex="1">
                    <mxGeometry x="401" y="134.25" width="10" height="10" as="geometry"/>
                </mxCell>
                <mxCell id="1VjSuDgPF0RQ6vDxP6wa-78" value="" style="ellipse;whiteSpace=wrap;html=1;aspect=fixed;fillColor=#b1ddf0;strokeColor=#10739e;" parent="1VjSuDgPF0RQ6vDxP6wa-93" vertex="1">
                    <mxGeometry x="253" y="213.75" width="10" height="10" as="geometry"/>
                </mxCell>
                <mxCell id="1VjSuDgPF0RQ6vDxP6wa-79" value="" style="ellipse;whiteSpace=wrap;html=1;aspect=fixed;fillColor=#b1ddf0;strokeColor=#10739e;" parent="1VjSuDgPF0RQ6vDxP6wa-93" vertex="1">
                    <mxGeometry x="273" y="218.25" width="10" height="10" as="geometry"/>
                </mxCell>
                <mxCell id="1VjSuDgPF0RQ6vDxP6wa-80" value="" style="ellipse;whiteSpace=wrap;html=1;aspect=fixed;fillColor=#b0e3e6;strokeColor=#0e8088;" parent="1VjSuDgPF0RQ6vDxP6wa-93" vertex="1">
                    <mxGeometry x="303" y="201.25" width="10" height="10" as="geometry"/>
                </mxCell>
                <mxCell id="1VjSuDgPF0RQ6vDxP6wa-81" value="" style="ellipse;whiteSpace=wrap;html=1;aspect=fixed;fillColor=#fad9d5;strokeColor=#ae4132;" parent="1VjSuDgPF0RQ6vDxP6wa-93" vertex="1">
                    <mxGeometry x="334" y="181.25" width="10" height="10" as="geometry"/>
                </mxCell>
                <mxCell id="1VjSuDgPF0RQ6vDxP6wa-82" value="" style="ellipse;whiteSpace=wrap;html=1;aspect=fixed;fillColor=#fad9d5;strokeColor=#ae4132;" parent="1VjSuDgPF0RQ6vDxP6wa-93" vertex="1">
                    <mxGeometry x="356" y="193.25" width="10" height="10" as="geometry"/>
                </mxCell>
                <mxCell id="1VjSuDgPF0RQ6vDxP6wa-94" value="IOTICSpace" style="rounded=1;whiteSpace=wrap;html=1;fillColor=#f5f5f5;strokeColor=#666666;verticalAlign=top;fontColor=#333333;" parent="1" vertex="1">
                    <mxGeometry x="4098" y="974.5" width="180" height="164" as="geometry"/>
                </mxCell>
                <mxCell id="1VjSuDgPF0RQ6vDxP6wa-95" value="HOST (shard 2)" style="rounded=1;whiteSpace=wrap;html=1;verticalAlign=top;fillColor=#d5e8d4;strokeColor=#82b366;" parent="1" vertex="1">
                    <mxGeometry x="4132" y="1070.5" width="120" height="60" as="geometry"/>
                </mxCell>
                <mxCell id="1VjSuDgPF0RQ6vDxP6wa-97" style="edgeStyle=none;rounded=0;orthogonalLoop=1;jettySize=auto;html=1;endArrow=none;endFill=0;" parent="1" source="1VjSuDgPF0RQ6vDxP6wa-99" target="1VjSuDgPF0RQ6vDxP6wa-95" edge="1">
                    <mxGeometry relative="1" as="geometry"/>
                </mxCell>
                <mxCell id="1VjSuDgPF0RQ6vDxP6wa-99" value="" style="shape=process;whiteSpace=wrap;html=1;backgroundOutline=1;fillColor=#ffe6cc;strokeColor=#d79b00;" parent="1" vertex="1">
                    <mxGeometry x="4322" y="1063" width="70" height="30" as="geometry"/>
                </mxCell>
                <mxCell id="1VjSuDgPF0RQ6vDxP6wa-100" style="edgeStyle=none;rounded=0;orthogonalLoop=1;jettySize=auto;html=1;endArrow=none;endFill=0;" parent="1" source="1VjSuDgPF0RQ6vDxP6wa-101" target="1VjSuDgPF0RQ6vDxP6wa-95" edge="1">
                    <mxGeometry relative="1" as="geometry"/>
                </mxCell>
                <mxCell id="1VjSuDgPF0RQ6vDxP6wa-101" value="" style="shape=process;whiteSpace=wrap;html=1;backgroundOutline=1;fillColor=#fff2cc;strokeColor=#d6b656;" parent="1" vertex="1">
                    <mxGeometry x="3990" y="1097.5" width="70" height="30" as="geometry"/>
                </mxCell>
                <mxCell id="1VjSuDgPF0RQ6vDxP6wa-102" value="" style="ellipse;whiteSpace=wrap;html=1;aspect=fixed;fillColor=#fff2cc;strokeColor=#d6b656;" parent="1" vertex="1">
                    <mxGeometry x="4172" y="1113" width="10" height="10" as="geometry"/>
                </mxCell>
                <mxCell id="1VjSuDgPF0RQ6vDxP6wa-103" value="" style="ellipse;whiteSpace=wrap;html=1;aspect=fixed;fillColor=#fff2cc;strokeColor=#d6b656;" parent="1" vertex="1">
                    <mxGeometry x="4224" y="1117.5" width="10" height="10" as="geometry"/>
                </mxCell>
                <mxCell id="1VjSuDgPF0RQ6vDxP6wa-104" value="" style="ellipse;whiteSpace=wrap;html=1;aspect=fixed;fillColor=#ffe6cc;strokeColor=#d79b00;" parent="1" vertex="1">
                    <mxGeometry x="4238" y="1080.5" width="10" height="10" as="geometry"/>
                </mxCell>
                <mxCell id="1VjSuDgPF0RQ6vDxP6wa-105" value="" style="ellipse;whiteSpace=wrap;html=1;aspect=fixed;fillColor=#e1d5e7;strokeColor=#9673a6;" parent="1" vertex="1">
                    <mxGeometry x="4212" y="1094" width="10" height="10" as="geometry"/>
                </mxCell>
                <mxCell id="1VjSuDgPF0RQ6vDxP6wa-106" value="" style="ellipse;whiteSpace=wrap;html=1;aspect=fixed;fillColor=#fff2cc;strokeColor=#d6b656;" parent="1" vertex="1">
                    <mxGeometry x="4207" y="1114.5" width="10" height="10" as="geometry"/>
                </mxCell>
                <mxCell id="1VjSuDgPF0RQ6vDxP6wa-107" value="" style="ellipse;whiteSpace=wrap;html=1;aspect=fixed;fillColor=#ffe6cc;strokeColor=#d79b00;" parent="1" vertex="1">
                    <mxGeometry x="4234" y="1106" width="10" height="10" as="geometry"/>
                </mxCell>
                <mxCell id="1VjSuDgPF0RQ6vDxP6wa-108" value="" style="ellipse;whiteSpace=wrap;html=1;aspect=fixed;fillColor=#e1d5e7;strokeColor=#9673a6;" parent="1" vertex="1">
                    <mxGeometry x="4192" y="1102.5" width="10" height="10" as="geometry"/>
                </mxCell>
                <mxCell id="1VjSuDgPF0RQ6vDxP6wa-109" value="" style="ellipse;whiteSpace=wrap;html=1;aspect=fixed;fillColor=#e1d5e7;strokeColor=#9673a6;" parent="1" vertex="1">
                    <mxGeometry x="4162" y="1094" width="10" height="10" as="geometry"/>
                </mxCell>
                <mxCell id="1VjSuDgPF0RQ6vDxP6wa-110" value="" style="ellipse;whiteSpace=wrap;html=1;aspect=fixed;fillColor=#fff2cc;strokeColor=#d6b656;" parent="1" vertex="1">
                    <mxGeometry x="4142" y="1102.5" width="10" height="10" as="geometry"/>
                </mxCell>
                <mxCell id="1VjSuDgPF0RQ6vDxP6wa-111" value="HOST (shard 1)" style="rounded=1;whiteSpace=wrap;html=1;verticalAlign=top;fillColor=#d5e8d4;strokeColor=#82b366;" parent="1" vertex="1">
                    <mxGeometry x="4131" y="999.5" width="120" height="60" as="geometry"/>
                </mxCell>
                <mxCell id="1VjSuDgPF0RQ6vDxP6wa-112" value="" style="ellipse;whiteSpace=wrap;html=1;aspect=fixed;fillColor=#e1d5e7;strokeColor=#9673a6;" parent="1" vertex="1">
                    <mxGeometry x="4172" y="1042" width="10" height="10" as="geometry"/>
                </mxCell>
                <mxCell id="1VjSuDgPF0RQ6vDxP6wa-113" value="" style="ellipse;whiteSpace=wrap;html=1;aspect=fixed;fillColor=#dae8fc;strokeColor=#6c8ebf;" parent="1" vertex="1">
                    <mxGeometry x="4224" y="1046.5" width="10" height="10" as="geometry"/>
                </mxCell>
                <mxCell id="1VjSuDgPF0RQ6vDxP6wa-114" value="" style="ellipse;whiteSpace=wrap;html=1;aspect=fixed;fillColor=#dae8fc;strokeColor=#6c8ebf;" parent="1" vertex="1">
                    <mxGeometry x="4234" y="1017.5" width="10" height="10" as="geometry"/>
                </mxCell>
                <mxCell id="1VjSuDgPF0RQ6vDxP6wa-115" value="" style="ellipse;whiteSpace=wrap;html=1;aspect=fixed;fillColor=#dae8fc;strokeColor=#6c8ebf;" parent="1" vertex="1">
                    <mxGeometry x="4212" y="1023" width="10" height="10" as="geometry"/>
                </mxCell>
                <mxCell id="1VjSuDgPF0RQ6vDxP6wa-116" value="" style="ellipse;whiteSpace=wrap;html=1;aspect=fixed;fillColor=#dae8fc;strokeColor=#6c8ebf;" parent="1" vertex="1">
                    <mxGeometry x="4207" y="1043.5" width="10" height="10" as="geometry"/>
                </mxCell>
                <mxCell id="1VjSuDgPF0RQ6vDxP6wa-117" value="" style="ellipse;whiteSpace=wrap;html=1;aspect=fixed;fillColor=#dae8fc;strokeColor=#6c8ebf;" parent="1" vertex="1">
                    <mxGeometry x="4234" y="1035" width="10" height="10" as="geometry"/>
                </mxCell>
                <mxCell id="1VjSuDgPF0RQ6vDxP6wa-118" value="" style="ellipse;whiteSpace=wrap;html=1;aspect=fixed;fillColor=#e1d5e7;strokeColor=#9673a6;" parent="1" vertex="1">
                    <mxGeometry x="4192" y="1031.5" width="10" height="10" as="geometry"/>
                </mxCell>
                <mxCell id="1VjSuDgPF0RQ6vDxP6wa-119" value="" style="ellipse;whiteSpace=wrap;html=1;aspect=fixed;fillColor=#e1d5e7;strokeColor=#9673a6;" parent="1" vertex="1">
                    <mxGeometry x="4162" y="1023" width="10" height="10" as="geometry"/>
                </mxCell>
                <mxCell id="1VjSuDgPF0RQ6vDxP6wa-120" value="" style="ellipse;whiteSpace=wrap;html=1;aspect=fixed;fillColor=#e1d5e7;strokeColor=#9673a6;" parent="1" vertex="1">
                    <mxGeometry x="4142" y="1031.5" width="10" height="10" as="geometry"/>
                </mxCell>
                <mxCell id="1VjSuDgPF0RQ6vDxP6wa-125" style="edgeStyle=none;rounded=0;orthogonalLoop=1;jettySize=auto;html=1;endArrow=none;endFill=0;" parent="1" source="1VjSuDgPF0RQ6vDxP6wa-123" target="1VjSuDgPF0RQ6vDxP6wa-111" edge="1">
                    <mxGeometry relative="1" as="geometry"/>
                </mxCell>
                <mxCell id="1VjSuDgPF0RQ6vDxP6wa-123" value="" style="shape=process;whiteSpace=wrap;html=1;backgroundOutline=1;fillColor=#dae8fc;strokeColor=#6c8ebf;" parent="1" vertex="1">
                    <mxGeometry x="4321" y="1000" width="70" height="30" as="geometry"/>
                </mxCell>
                <mxCell id="1VjSuDgPF0RQ6vDxP6wa-126" style="edgeStyle=none;rounded=0;orthogonalLoop=1;jettySize=auto;html=1;endArrow=none;endFill=0;" parent="1" source="1VjSuDgPF0RQ6vDxP6wa-124" target="1VjSuDgPF0RQ6vDxP6wa-111" edge="1">
                    <mxGeometry relative="1" as="geometry"/>
                </mxCell>
                <mxCell id="1VjSuDgPF0RQ6vDxP6wa-127" style="edgeStyle=none;rounded=0;orthogonalLoop=1;jettySize=auto;html=1;endArrow=none;endFill=0;" parent="1" source="1VjSuDgPF0RQ6vDxP6wa-124" target="1VjSuDgPF0RQ6vDxP6wa-95" edge="1">
                    <mxGeometry relative="1" as="geometry"/>
                </mxCell>
                <mxCell id="1VjSuDgPF0RQ6vDxP6wa-124" value="" style="shape=process;whiteSpace=wrap;html=1;backgroundOutline=1;fillColor=#e1d5e7;strokeColor=#9673a6;" parent="1" vertex="1">
                    <mxGeometry x="3991" y="1011" width="70" height="30" as="geometry"/>
                </mxCell>
                <mxCell id="1VjSuDgPF0RQ6vDxP6wa-134" style="edgeStyle=none;rounded=0;orthogonalLoop=1;jettySize=auto;html=1;entryX=0;entryY=0.5;entryDx=0;entryDy=0;endArrow=none;endFill=0;" parent="1" source="1VjSuDgPF0RQ6vDxP6wa-128" target="1VjSuDgPF0RQ6vDxP6wa-133" edge="1">
                    <mxGeometry relative="1" as="geometry"/>
                </mxCell>
                <mxCell id="1VjSuDgPF0RQ6vDxP6wa-128" value="agent" style="shape=process;whiteSpace=wrap;html=1;backgroundOutline=1;fillColor=#dae8fc;strokeColor=#6c8ebf;" parent="1" vertex="1">
                    <mxGeometry x="4514" y="1028.5" width="70" height="30" as="geometry"/>
                </mxCell>
                <mxCell id="1VjSuDgPF0RQ6vDxP6wa-130" value="HOST 1" style="rounded=1;whiteSpace=wrap;html=1;verticalAlign=top;fillColor=#d5e8d4;strokeColor=#82b366;" parent="1" vertex="1">
                    <mxGeometry x="4610" y="983" width="120" height="60" as="geometry"/>
                </mxCell>
                <mxCell id="1VjSuDgPF0RQ6vDxP6wa-131" value="" style="ellipse;whiteSpace=wrap;html=1;aspect=fixed;fillColor=#dae8fc;strokeColor=#6c8ebf;" parent="1" vertex="1">
                    <mxGeometry x="4630" y="1010" width="10" height="10" as="geometry"/>
                </mxCell>
                <mxCell id="1VjSuDgPF0RQ6vDxP6wa-132" style="edgeStyle=none;rounded=0;orthogonalLoop=1;jettySize=auto;html=1;endArrow=none;endFill=0;" parent="1" source="1VjSuDgPF0RQ6vDxP6wa-128" target="1VjSuDgPF0RQ6vDxP6wa-131" edge="1">
                    <mxGeometry relative="1" as="geometry"/>
                </mxCell>
                <mxCell id="1VjSuDgPF0RQ6vDxP6wa-133" value="" style="ellipse;whiteSpace=wrap;html=1;aspect=fixed;fillColor=#dae8fc;strokeColor=#6c8ebf;" parent="1" vertex="1">
                    <mxGeometry x="4630" y="1073.5" width="10" height="10" as="geometry"/>
                </mxCell>
                <mxCell id="1VjSuDgPF0RQ6vDxP6wa-136" style="edgeStyle=none;rounded=0;orthogonalLoop=1;jettySize=auto;html=1;endArrow=none;endFill=0;" parent="1" source="1VjSuDgPF0RQ6vDxP6wa-135" target="1VjSuDgPF0RQ6vDxP6wa-128" edge="1">
                    <mxGeometry relative="1" as="geometry"/>
                </mxCell>
                <mxCell id="1VjSuDgPF0RQ6vDxP6wa-135" value="" style="sketch=0;outlineConnect=0;fillColor=#6C8EBF;strokeColor=none;dashed=0;verticalLabelPosition=bottom;verticalAlign=top;align=center;html=1;fontSize=12;fontStyle=0;aspect=fixed;pointerEvents=1;shape=mxgraph.aws4.iot_sitewise_asset;" parent="1" vertex="1">
                    <mxGeometry x="4420" y="1002.5" width="77" height="78" as="geometry"/>
                </mxCell>
                <mxCell id="1VjSuDgPF0RQ6vDxP6wa-137" value="" style="sketch=0;outlineConnect=0;fillColor=#9673A6;strokeColor=none;dashed=0;verticalLabelPosition=bottom;verticalAlign=top;align=center;html=1;fontSize=12;fontStyle=0;aspect=fixed;pointerEvents=1;shape=mxgraph.aws4.iot_sitewise_asset;" parent="1" vertex="1">
                    <mxGeometry x="4860" y="1001" width="77" height="78" as="geometry"/>
                </mxCell>
                <mxCell id="1VjSuDgPF0RQ6vDxP6wa-140" style="edgeStyle=none;rounded=0;orthogonalLoop=1;jettySize=auto;html=1;endArrow=none;endFill=0;" parent="1" source="1VjSuDgPF0RQ6vDxP6wa-138" target="1VjSuDgPF0RQ6vDxP6wa-137" edge="1">
                    <mxGeometry relative="1" as="geometry"/>
                </mxCell>
                <mxCell id="1VjSuDgPF0RQ6vDxP6wa-149" style="edgeStyle=none;rounded=0;orthogonalLoop=1;jettySize=auto;html=1;fontSize=8;endArrow=none;endFill=0;" parent="1" source="1VjSuDgPF0RQ6vDxP6wa-138" target="1VjSuDgPF0RQ6vDxP6wa-142" edge="1">
                    <mxGeometry relative="1" as="geometry"/>
                </mxCell>
                <mxCell id="1VjSuDgPF0RQ6vDxP6wa-138" value="agent" style="shape=process;whiteSpace=wrap;html=1;backgroundOutline=1;fillColor=#e1d5e7;strokeColor=#9673a6;" parent="1" vertex="1">
                    <mxGeometry x="4770" y="1003" width="70" height="30" as="geometry"/>
                </mxCell>
                <mxCell id="1VjSuDgPF0RQ6vDxP6wa-141" style="edgeStyle=none;rounded=0;orthogonalLoop=1;jettySize=auto;html=1;endArrow=none;endFill=0;" parent="1" source="1VjSuDgPF0RQ6vDxP6wa-139" target="1VjSuDgPF0RQ6vDxP6wa-137" edge="1">
                    <mxGeometry relative="1" as="geometry"/>
                </mxCell>
                <mxCell id="1VjSuDgPF0RQ6vDxP6wa-148" style="edgeStyle=none;rounded=0;orthogonalLoop=1;jettySize=auto;html=1;fontSize=8;endArrow=none;endFill=0;" parent="1" source="1VjSuDgPF0RQ6vDxP6wa-139" target="1VjSuDgPF0RQ6vDxP6wa-143" edge="1">
                    <mxGeometry relative="1" as="geometry"/>
                </mxCell>
                <mxCell id="1VjSuDgPF0RQ6vDxP6wa-139" value="agent" style="shape=process;whiteSpace=wrap;html=1;backgroundOutline=1;fillColor=#e1d5e7;strokeColor=#9673a6;" parent="1" vertex="1">
                    <mxGeometry x="4770" y="1066.5" width="70" height="30" as="geometry"/>
                </mxCell>
                <mxCell id="1VjSuDgPF0RQ6vDxP6wa-142" value="" style="ellipse;whiteSpace=wrap;html=1;aspect=fixed;fillColor=#e1d5e7;strokeColor=#9673a6;" parent="1" vertex="1">
                    <mxGeometry x="4700" y="1011" width="10" height="10" as="geometry"/>
                </mxCell>
                <mxCell id="1VjSuDgPF0RQ6vDxP6wa-143" value="" style="ellipse;whiteSpace=wrap;html=1;aspect=fixed;fillColor=#e1d5e7;strokeColor=#9673a6;" parent="1" vertex="1">
                    <mxGeometry x="4700" y="1086.5" width="10" height="10" as="geometry"/>
                </mxCell>
                <mxCell id="1VjSuDgPF0RQ6vDxP6wa-144" value="did:iotics:123" style="text;html=1;strokeColor=none;fillColor=none;align=center;verticalAlign=middle;whiteSpace=wrap;rounded=0;fontSize=8;" parent="1" vertex="1">
                    <mxGeometry x="4590.5" y="1017.5" width="89" height="17" as="geometry"/>
                </mxCell>
                <mxCell id="1VjSuDgPF0RQ6vDxP6wa-145" value="did:iotics:123" style="text;html=1;strokeColor=none;fillColor=none;align=center;verticalAlign=middle;whiteSpace=wrap;rounded=0;fontSize=8;" parent="1" vertex="1">
                    <mxGeometry x="4590.5" y="1080.5" width="89" height="17" as="geometry"/>
                </mxCell>
                <mxCell id="1VjSuDgPF0RQ6vDxP6wa-146" value="did:iotics:456" style="text;html=1;strokeColor=none;fillColor=none;align=center;verticalAlign=middle;whiteSpace=wrap;rounded=0;fontSize=8;" parent="1" vertex="1">
                    <mxGeometry x="4660.5" y="1016" width="89" height="17" as="geometry"/>
                </mxCell>
                <mxCell id="1VjSuDgPF0RQ6vDxP6wa-147" value="did:iotics:456" style="text;html=1;strokeColor=none;fillColor=none;align=center;verticalAlign=middle;whiteSpace=wrap;rounded=0;fontSize=8;" parent="1" vertex="1">
                    <mxGeometry x="4660.5" y="1092" width="89" height="17" as="geometry"/>
                </mxCell>
                <mxCell id="6jeWKin9Ll09lfW82CDg-3" value="Follower Twin" style="text;html=1;strokeColor=none;fillColor=none;align=center;verticalAlign=middle;whiteSpace=wrap;rounded=0;" parent="1" vertex="1">
                    <mxGeometry x="240" y="169" width="60" height="30" as="geometry"/>
                </mxCell>
                <mxCell id="6jeWKin9Ll09lfW82CDg-4" value="Aggregator Twin" style="text;html=1;strokeColor=none;fillColor=none;align=center;verticalAlign=middle;whiteSpace=wrap;rounded=0;" parent="1" vertex="1">
                    <mxGeometry x="1187" y="210" width="60" height="30" as="geometry"/>
                </mxCell>
                <mxCell id="6jeWKin9Ll09lfW82CDg-5" value="Shadow Twin" style="text;html=1;strokeColor=none;fillColor=none;align=center;verticalAlign=middle;whiteSpace=wrap;rounded=0;" parent="1" vertex="1">
                    <mxGeometry x="1271" y="472" width="60" height="30" as="geometry"/>
                </mxCell>
                <mxCell id="6jeWKin9Ll09lfW82CDg-7" value="Shadowed Twin" style="text;html=1;strokeColor=none;fillColor=none;align=center;verticalAlign=middle;whiteSpace=wrap;rounded=0;" parent="1" vertex="1">
                    <mxGeometry x="1017.5" y="474" width="60" height="30" as="geometry"/>
                </mxCell>
                <mxCell id="5ruBN4sgf1n4J8o_bO0m-2" value="System 2" style="rounded=0;whiteSpace=wrap;html=1;fillColor=#ffe6cc;strokeColor=#d79b00;" parent="1" vertex="1">
                    <mxGeometry x="1670" y="1019.5" width="70" height="30" as="geometry"/>
                </mxCell>
                <mxCell id="5ruBN4sgf1n4J8o_bO0m-3" style="edgeStyle=none;rounded=0;orthogonalLoop=1;jettySize=auto;html=1;entryX=0;entryY=0.5;entryDx=0;entryDy=0;fontSize=12;startArrow=classic;startFill=1;exitX=1;exitY=0.5;exitDx=0;exitDy=0;" parent="1" source="5ruBN4sgf1n4J8o_bO0m-4" target="5ruBN4sgf1n4J8o_bO0m-9" edge="1">
                    <mxGeometry relative="1" as="geometry"/>
                </mxCell>
                <mxCell id="5ruBN4sgf1n4J8o_bO0m-4" value="agent 3" style="shape=process;whiteSpace=wrap;html=1;backgroundOutline=1;fillColor=#d5e8d4;strokeColor=#82b366;" parent="1" vertex="1">
                    <mxGeometry x="1810" y="1078.5" width="80" height="40" as="geometry"/>
                </mxCell>
                <mxCell id="5ruBN4sgf1n4J8o_bO0m-5" value="Asset 1" style="rounded=0;whiteSpace=wrap;html=1;fillColor=#ffe6cc;strokeColor=#d79b00;" parent="1" vertex="1">
                    <mxGeometry x="1670" y="959" width="70" height="30" as="geometry"/>
                </mxCell>
                <mxCell id="5ruBN4sgf1n4J8o_bO0m-6" value="Sensor 3" style="rounded=0;whiteSpace=wrap;html=1;fillColor=#ffe6cc;strokeColor=#d79b00;" parent="1" vertex="1">
                    <mxGeometry x="1670" y="1083.5" width="70" height="30" as="geometry"/>
                </mxCell>
                <mxCell id="5ruBN4sgf1n4J8o_bO0m-7" value="sync" style="rounded=0;orthogonalLoop=1;jettySize=auto;html=1;startArrow=classicThin;startFill=1;endArrow=classicThin;endFill=1;exitX=1;exitY=0.5;exitDx=0;exitDy=0;entryX=0;entryY=0.5;entryDx=0;entryDy=0;" parent="1" source="5ruBN4sgf1n4J8o_bO0m-6" target="5ruBN4sgf1n4J8o_bO0m-4" edge="1">
                    <mxGeometry relative="1" as="geometry">
                        <mxPoint x="1750" y="1042.5" as="sourcePoint"/>
                        <mxPoint x="1820" y="1042.5" as="targetPoint"/>
                    </mxGeometry>
                </mxCell>
                <mxCell id="5ruBN4sgf1n4J8o_bO0m-8" value="sync" style="rounded=0;orthogonalLoop=1;jettySize=auto;html=1;startArrow=classicThin;startFill=1;endArrow=classicThin;endFill=1;exitX=1;exitY=0.5;exitDx=0;exitDy=0;entryX=0;entryY=0.5;entryDx=0;entryDy=0;" parent="1" source="5ruBN4sgf1n4J8o_bO0m-5" target="5ruBN4sgf1n4J8o_bO0m-12" edge="1">
                    <mxGeometry relative="1" as="geometry">
                        <mxPoint x="1750" y="1042.5" as="sourcePoint"/>
                        <mxPoint x="1810" y="1031.5" as="targetPoint"/>
                    </mxGeometry>
                </mxCell>
                <mxCell id="5ruBN4sgf1n4J8o_bO0m-9" value="Twin" style="ellipse;whiteSpace=wrap;html=1;verticalAlign=top;fillColor=#fff2cc;strokeColor=#d6b656;" parent="1" vertex="1">
                    <mxGeometry x="1946" y="1011" width="56" height="51" as="geometry"/>
                </mxCell>
                <mxCell id="5ruBN4sgf1n4J8o_bO0m-10" value="F" style="shape=singleArrow;whiteSpace=wrap;html=1;arrowWidth=0.623809523809524;arrowSize=0.21571428571428497;fillColor=#fff2cc;strokeColor=#d6b656;" parent="1" vertex="1">
                    <mxGeometry x="1992" y="1038.5" width="40" height="21" as="geometry"/>
                </mxCell>
                <mxCell id="5ruBN4sgf1n4J8o_bO0m-12" value="agent 1" style="shape=process;whiteSpace=wrap;html=1;backgroundOutline=1;fillColor=#d5e8d4;strokeColor=#82b366;" parent="1" vertex="1">
                    <mxGeometry x="1810" y="954" width="80" height="40" as="geometry"/>
                </mxCell>
                <mxCell id="5ruBN4sgf1n4J8o_bO0m-13" value="agent 2" style="shape=process;whiteSpace=wrap;html=1;backgroundOutline=1;fillColor=#d5e8d4;strokeColor=#82b366;" parent="1" vertex="1">
                    <mxGeometry x="1810" y="1016" width="80" height="40" as="geometry"/>
                </mxCell>
                <mxCell id="5ruBN4sgf1n4J8o_bO0m-16" value="sync" style="rounded=0;orthogonalLoop=1;jettySize=auto;html=1;startArrow=classicThin;startFill=1;endArrow=classicThin;endFill=1;entryX=0;entryY=0.5;entryDx=0;entryDy=0;exitX=1;exitY=0.5;exitDx=0;exitDy=0;" parent="1" source="5ruBN4sgf1n4J8o_bO0m-2" target="5ruBN4sgf1n4J8o_bO0m-13" edge="1">
                    <mxGeometry relative="1" as="geometry">
                        <mxPoint x="1740" y="1036" as="sourcePoint"/>
                        <mxPoint x="1810" y="1038" as="targetPoint"/>
                    </mxGeometry>
                </mxCell>
                <mxCell id="5ruBN4sgf1n4J8o_bO0m-18" style="edgeStyle=none;rounded=0;orthogonalLoop=1;jettySize=auto;html=1;entryX=0;entryY=0.5;entryDx=0;entryDy=0;fontSize=12;startArrow=classic;startFill=1;exitX=1;exitY=0.5;exitDx=0;exitDy=0;" parent="1" source="5ruBN4sgf1n4J8o_bO0m-13" target="5ruBN4sgf1n4J8o_bO0m-9" edge="1">
                    <mxGeometry relative="1" as="geometry">
                        <mxPoint x="1900" y="1112.5" as="sourcePoint"/>
                        <mxPoint x="1956" y="1046.5" as="targetPoint"/>
                    </mxGeometry>
                </mxCell>
                <mxCell id="5ruBN4sgf1n4J8o_bO0m-19" style="edgeStyle=none;rounded=0;orthogonalLoop=1;jettySize=auto;html=1;entryX=0;entryY=0.5;entryDx=0;entryDy=0;fontSize=12;startArrow=classic;startFill=1;exitX=1;exitY=0.5;exitDx=0;exitDy=0;" parent="1" source="5ruBN4sgf1n4J8o_bO0m-12" target="5ruBN4sgf1n4J8o_bO0m-9" edge="1">
                    <mxGeometry relative="1" as="geometry">
                        <mxPoint x="1910" y="1122.5" as="sourcePoint"/>
                        <mxPoint x="1966" y="1056.5" as="targetPoint"/>
                    </mxGeometry>
                </mxCell>
                <mxCell id="5ruBN4sgf1n4J8o_bO0m-21" value="Lintball Twin" style="text;html=1;strokeColor=none;fillColor=none;align=center;verticalAlign=middle;whiteSpace=wrap;rounded=0;fontSize=12;" parent="1" vertex="1">
                    <mxGeometry x="1942" y="1069.5" width="60" height="13" as="geometry"/>
                </mxCell>
                <mxCell id="3" value="Twin 3" style="ellipse;whiteSpace=wrap;html=1;verticalAlign=top;fillColor=#fff2cc;strokeColor=#d6b656;" vertex="1" parent="1">
                    <mxGeometry x="4410" y="49" width="56" height="51" as="geometry"/>
                </mxCell>
                <mxCell id="4" value="sync" style="edgeStyle=orthogonalEdgeStyle;rounded=0;orthogonalLoop=1;jettySize=auto;html=1;startArrow=classicThin;startFill=1;endArrow=classicThin;endFill=1;" edge="1" parent="1" source="5" target="6">
                    <mxGeometry relative="1" as="geometry"/>
                </mxCell>
                <mxCell id="5" value="Master Asset&lt;br&gt;Data" style="rounded=0;whiteSpace=wrap;html=1;fillColor=#ffe6cc;strokeColor=#d79b00;fontColor=#030303;" vertex="1" parent="1">
                    <mxGeometry x="4200" y="49" width="70" height="50" as="geometry"/>
                </mxCell>
                <mxCell id="6" value="master&lt;br&gt;agent" style="shape=process;whiteSpace=wrap;html=1;backgroundOutline=1;fillColor=#d5e8d4;strokeColor=#82b366;fontColor=#030303;" vertex="1" parent="1">
                    <mxGeometry x="4340" y="55" width="80" height="40" as="geometry"/>
                </mxCell>
                <mxCell id="8" style="edgeStyle=none;rounded=0;orthogonalLoop=1;jettySize=auto;html=1;dashed=1;fontSize=12;startArrow=classic;startFill=1;endArrow=none;endFill=0;" edge="1" parent="1" source="9" target="3">
                    <mxGeometry relative="1" as="geometry"/>
                </mxCell>
                <mxCell id="9" value="Twin 2" style="ellipse;whiteSpace=wrap;html=1;verticalAlign=top;fillColor=#fff2cc;strokeColor=#d6b656;" vertex="1" parent="1">
                    <mxGeometry x="4584" y="24" width="56" height="51" as="geometry"/>
                </mxCell>
                <mxCell id="11" value="Twin 1" style="ellipse;whiteSpace=wrap;html=1;verticalAlign=top;fillColor=#fff2cc;strokeColor=#d6b656;" vertex="1" parent="1">
                    <mxGeometry x="4549" y="110" width="56" height="51" as="geometry"/>
                </mxCell>
                <mxCell id="14" value="sync" style="edgeStyle=orthogonalEdgeStyle;rounded=0;orthogonalLoop=1;jettySize=auto;html=1;startArrow=classicThin;startFill=1;endArrow=classicThin;endFill=1;" edge="1" parent="1" source="15" target="16">
                    <mxGeometry relative="1" as="geometry"/>
                </mxCell>
                <mxCell id="15" value="Asset&lt;br&gt;Data #1" style="rounded=0;whiteSpace=wrap;html=1;fillColor=#ffe6cc;strokeColor=#d79b00;fontColor=#030303;" vertex="1" parent="1">
                    <mxGeometry x="4720" y="34" width="70" height="30" as="geometry"/>
                </mxCell>
                <mxCell id="16" value="" style="shape=process;whiteSpace=wrap;html=1;backgroundOutline=1;fillColor=#d5e8d4;strokeColor=#82b366;fontColor=#030303;" vertex="1" parent="1">
                    <mxGeometry x="4611" y="35" width="50" height="29" as="geometry"/>
                </mxCell>
                <mxCell id="17" style="edgeStyle=none;rounded=0;orthogonalLoop=1;jettySize=auto;html=1;dashed=1;fontSize=12;startArrow=classic;startFill=1;endArrow=none;endFill=0;" edge="1" parent="1" source="11" target="3">
                    <mxGeometry relative="1" as="geometry">
                        <mxPoint x="4594.342817693353" y="63.478087866024566" as="sourcePoint"/>
                        <mxPoint x="4475.6579187634325" y="80.52616109720805" as="targetPoint"/>
                    </mxGeometry>
                </mxCell>
                <mxCell id="18" value="sync" style="edgeStyle=orthogonalEdgeStyle;rounded=0;orthogonalLoop=1;jettySize=auto;html=1;startArrow=classicThin;startFill=1;endArrow=classicThin;endFill=1;" edge="1" parent="1" source="19" target="20">
                    <mxGeometry relative="1" as="geometry"/>
                </mxCell>
                <mxCell id="19" value="Asset&lt;br&gt;Data #2" style="rounded=0;whiteSpace=wrap;html=1;fillColor=#ffe6cc;strokeColor=#d79b00;fontColor=#030303;" vertex="1" parent="1">
                    <mxGeometry x="4679.5" y="120.5" width="70" height="30" as="geometry"/>
                </mxCell>
                <mxCell id="20" value="" style="shape=process;whiteSpace=wrap;html=1;backgroundOutline=1;fillColor=#d5e8d4;strokeColor=#82b366;fontColor=#030303;" vertex="1" parent="1">
                    <mxGeometry x="4570.5" y="121.5" width="50" height="29" as="geometry"/>
                </mxCell>
                <mxCell id="21" value="sync" style="edgeStyle=orthogonalEdgeStyle;rounded=0;orthogonalLoop=1;jettySize=auto;html=1;startArrow=classicThin;startFill=1;endArrow=classicThin;endFill=1;" edge="1" parent="1" source="22" target="23">
                    <mxGeometry relative="1" as="geometry"/>
                </mxCell>
                <mxCell id="22" value="Asset&lt;br&gt;Data #3" style="rounded=0;whiteSpace=wrap;html=1;fillColor=#ffe6cc;strokeColor=#d79b00;fontColor=#030303;" vertex="1" parent="1">
                    <mxGeometry x="4609.5" y="184" width="70" height="30" as="geometry"/>
                </mxCell>
                <mxCell id="23" value="" style="shape=process;whiteSpace=wrap;html=1;backgroundOutline=1;fillColor=#d5e8d4;strokeColor=#82b366;fontColor=#030303;" vertex="1" parent="1">
                    <mxGeometry x="4500.5" y="185" width="50" height="29" as="geometry"/>
                </mxCell>
                <mxCell id="25" style="edgeStyle=none;rounded=0;orthogonalLoop=1;jettySize=auto;html=1;dashed=1;fontSize=12;startArrow=classic;startFill=1;endArrow=none;endFill=0;" edge="1" parent="1" source="24" target="3">
                    <mxGeometry relative="1" as="geometry">
                        <mxPoint x="4561.719418982916" y="134.53762416073323" as="sourcePoint"/>
                        <mxPoint x="4473.22418215971" y="95.56960512044816" as="targetPoint"/>
                    </mxGeometry>
                </mxCell>
            </root>
        </mxGraphModel>
    </diagram>
</mxfile>